<svg xmlns="http://www.w3.org/2000/svg" xmlns:xlink="http://www.w3.org/1999/xlink" width="500" zoomAndPan="magnify" viewBox="0 0 375 374.999991" height="500" preserveAspectRatio="xMidYMid meet" version="1.0"><path fill="#000000" d="M 181.25 133.125 C 182.265625 132.980469 183.363281 132.949219 184.375 133.125 C 185.015625 133.484375 185.367188 133.933594 185.78125 134.53125 C 185.957031 134.734375 186.136719 134.9375 186.320312 135.136719 C 186.449219 135.289062 186.449219 135.289062 186.582031 135.441406 C 187.054688 135.988281 187.550781 136.515625 188.042969 137.046875 C 188.335938 137.386719 188.617188 137.738281 188.882812 138.101562 C 189.382812 138.78125 189.949219 139.382812 190.535156 139.992188 C 191.144531 140.621094 191.730469 141.25 192.261719 141.949219 C 192.816406 142.675781 193.425781 143.328125 194.0625 143.984375 C 194.804688 144.75 195.492188 145.527344 196.136719 146.378906 C 196.5625 146.914062 197.027344 147.40625 197.5 147.898438 C 197.785156 148.199219 198.066406 148.5 198.351562 148.800781 C 198.808594 149.292969 199.25 149.800781 199.6875 150.3125 C 199.871094 150.519531 200.050781 150.730469 200.234375 150.9375 C 200.503906 151.246094 200.773438 151.554688 201.042969 151.863281 C 201.550781 152.445312 202.066406 153.023438 202.585938 153.59375 C 202.988281 154.035156 203.367188 154.476562 203.710938 154.960938 C 204.183594 155.609375 204.714844 156.195312 205.253906 156.789062 L 205.519531 157.085938 L 205.777344 157.363281 L 206.007812 157.613281 C 206.289062 157.84375 206.519531 157.90625 206.875 157.96875 C 207.707031 157.0625 208.539062 156.15625 209.367188 155.246094 L 209.691406 154.882812 C 209.914062 154.628906 210.128906 154.367188 210.332031 154.097656 L 210.625 153.75 L 210.9375 153.75 L 211.027344 153.429688 C 211.339844 152.785156 211.796875 152.335938 212.292969 151.824219 C 212.496094 151.617188 212.695312 151.40625 212.894531 151.199219 L 213.179688 150.898438 C 213.480469 150.578125 213.769531 150.253906 214.050781 149.921875 C 214.464844 149.441406 214.902344 149 215.363281 148.566406 C 215.648438 148.273438 215.648438 148.273438 215.902344 147.851562 C 216.324219 147.238281 216.808594 146.726562 217.324219 146.191406 C 217.886719 145.609375 218.425781 145.035156 218.902344 144.378906 C 219.488281 143.574219 220.183594 142.875 220.875 142.160156 C 221.4375 141.574219 221.914062 141 222.34375 140.3125 C 222.597656 140.019531 222.597656 140.019531 222.8125 139.84375 L 223.125 139.84375 L 223.125 139.53125 L 223.4375 139.53125 L 223.558594 139.179688 C 223.761719 138.722656 223.964844 138.492188 224.328125 138.15625 C 225.191406 137.320312 225.957031 136.429688 226.699219 135.488281 L 227.023438 135.09375 C 227.351562 134.691406 227.351562 134.691406 227.625 134.242188 C 227.976562 133.746094 228.230469 133.445312 228.75 133.125 C 229.761719 132.929688 230.855469 132.980469 231.875 133.125 L 232.1875 133.28125 C 232.191406 140.488281 232.195312 147.695312 232.195312 154.902344 L 232.195312 155.359375 C 232.195312 157.816406 232.199219 160.269531 232.199219 162.722656 C 232.199219 165.238281 232.203125 167.753906 232.203125 170.273438 C 232.203125 171.824219 232.203125 173.378906 232.203125 174.933594 C 232.207031 175.996094 232.207031 177.0625 232.207031 178.125 C 232.203125 178.742188 232.207031 179.355469 232.207031 179.96875 C 232.207031 180.53125 232.207031 181.09375 232.207031 181.65625 C 232.207031 181.957031 232.207031 182.257812 232.207031 182.5625 L 232.207031 183.5625 L 232.1875 183.90625 L 232.03125 184.0625 C 231.730469 184.078125 231.429688 184.085938 231.128906 184.085938 L 230.542969 184.089844 L 229.257812 184.089844 C 228.804688 184.089844 228.351562 184.089844 227.898438 184.089844 C 227.316406 184.089844 226.734375 184.09375 226.152344 184.097656 C 225.703125 184.097656 225.257812 184.097656 224.808594 184.097656 C 224.59375 184.097656 224.378906 184.097656 224.167969 184.101562 C 223.867188 184.101562 223.566406 184.101562 223.265625 184.101562 L 222.75 184.101562 L 222.34375 184.0625 L 222.03125 183.75 C 222 183.378906 221.984375 183.003906 221.988281 182.632812 C 221.984375 182.457031 221.984375 182.457031 221.984375 182.28125 C 221.980469 181.886719 221.980469 181.496094 221.980469 181.105469 L 221.976562 180.261719 C 221.972656 179.5 221.96875 178.738281 221.96875 177.976562 C 221.964844 177.179688 221.960938 176.382812 221.957031 175.585938 C 221.949219 174.078125 221.945312 172.570312 221.9375 171.0625 C 221.933594 169.34375 221.925781 167.628906 221.917969 165.910156 C 221.902344 162.378906 221.886719 158.84375 221.875 155.3125 C 221.613281 155.355469 221.351562 155.40625 221.09375 155.46875 C 220.769531 155.746094 220.769531 155.746094 220.488281 156.105469 L 220.195312 156.449219 L 219.84375 156.875 C 218.988281 157.875 218.089844 158.832031 217.179688 159.789062 C 216.398438 160.613281 215.644531 161.460938 214.902344 162.328125 C 214.375 162.941406 213.824219 163.535156 213.269531 164.125 C 212.429688 165.019531 211.613281 165.910156 210.867188 166.882812 C 210.644531 167.164062 210.425781 167.421875 210.15625 167.65625 L 209.84375 167.65625 L 209.71875 167.933594 C 209.527344 168.289062 209.320312 168.546875 209.050781 168.847656 L 208.761719 169.171875 L 208.4375 169.53125 L 208.070312 169.953125 L 207.695312 170.378906 L 207.347656 170.78125 C 207.03125 171.09375 207.03125 171.09375 206.5625 171.25 C 205.808594 170.761719 205.1875 170.050781 204.621094 169.359375 C 203.695312 168.242188 202.699219 167.1875 201.699219 166.136719 C 201.058594 165.460938 200.429688 164.785156 199.84375 164.0625 L 199.84375 163.75 L 199.53125 163.75 L 199.53125 163.4375 L 199.0625 163.28125 L 199.0625 162.96875 L 198.59375 162.8125 C 198.390625 162.574219 198.390625 162.574219 198.183594 162.265625 C 197.710938 161.609375 197.171875 161.066406 196.597656 160.503906 C 195.855469 159.765625 195.203125 158.96875 194.558594 158.144531 C 193.988281 157.421875 193.363281 156.78125 192.703125 156.144531 C 192.34375 155.78125 192.03125 155.402344 191.71875 155 L 191.25 155.15625 L 191.25 155.605469 C 191.234375 159.199219 191.222656 162.792969 191.203125 166.386719 C 191.195312 168.125 191.191406 169.863281 191.183594 171.597656 C 191.179688 173.113281 191.171875 174.628906 191.164062 176.140625 C 191.160156 176.945312 191.15625 177.746094 191.15625 178.546875 C 191.152344 179.304688 191.148438 180.058594 191.144531 180.8125 C 191.144531 181.089844 191.144531 181.367188 191.144531 181.644531 C 191.140625 182.023438 191.140625 182.398438 191.136719 182.777344 L 191.136719 183.113281 C 191.136719 183.378906 191.117188 183.640625 191.09375 183.90625 L 190.78125 184.21875 C 190.390625 184.257812 190.390625 184.257812 189.890625 184.257812 L 189.324219 184.261719 L 188.082031 184.261719 C 187.644531 184.261719 187.207031 184.261719 186.769531 184.257812 C 186.207031 184.257812 185.644531 184.257812 185.082031 184.261719 C 184.652344 184.261719 184.21875 184.261719 183.789062 184.261719 C 183.480469 184.261719 183.171875 184.261719 182.863281 184.261719 L 182.296875 184.257812 C 182.132812 184.257812 181.96875 184.257812 181.796875 184.257812 L 181.40625 184.21875 L 181.09375 183.90625 C 181.054688 183.550781 181.054688 183.550781 181.050781 183.09375 L 181.046875 182.574219 L 181.046875 181.394531 C 181.042969 180.851562 181.042969 180.304688 181.042969 179.757812 C 181.039062 179.300781 181.039062 178.84375 181.039062 178.390625 C 181.035156 177.3125 181.035156 176.238281 181.035156 175.164062 C 181.035156 174.054688 181.03125 172.941406 181.027344 171.832031 C 181.023438 170.878906 181.023438 169.929688 181.023438 168.976562 C 181.023438 168.40625 181.019531 167.835938 181.019531 167.269531 C 181.015625 166.632812 181.015625 166 181.019531 165.363281 L 181.011719 164.792969 L 181.015625 164.269531 L 181.015625 163.8125 L 181.09375 163.4375 C 181.511719 163.046875 181.941406 162.859375 182.476562 162.667969 L 182.917969 162.507812 L 183.378906 162.34375 L 183.828125 162.179688 C 184.675781 161.875 185.53125 161.597656 186.394531 161.347656 C 186.660156 161.265625 186.925781 161.183594 187.1875 161.09375 C 187.246094 159.984375 187.070312 158.96875 186.855469 157.882812 C 186.703125 157.132812 186.578125 156.378906 186.457031 155.625 L 186.394531 155.25 C 186.34375 154.957031 186.296875 154.667969 186.25 154.375 C 186.792969 154.203125 187.273438 154.21875 187.84375 154.238281 C 188.761719 154.246094 189.472656 154.121094 190.3125 153.75 L 190.792969 153.546875 C 191.902344 152.90625 192.769531 152.199219 193.4375 151.09375 C 193.863281 150.300781 194.101562 149.574219 194.132812 148.671875 C 194.074219 147.347656 193.667969 146.210938 192.957031 145.09375 C 192.132812 143.984375 191.125 142.90625 189.84375 142.34375 C 188.734375 142.066406 187.515625 142.042969 186.398438 142.292969 C 185.414062 142.628906 184.582031 143.132812 183.75 143.75 C 183.464844 143.675781 183.464844 143.675781 183.125 143.4375 C 182.957031 143.015625 182.816406 142.589844 182.699219 142.152344 L 182.589844 141.761719 C 182.472656 141.351562 182.359375 140.941406 182.246094 140.527344 C 182.167969 140.253906 182.089844 139.980469 182.015625 139.707031 C 181.808594 138.972656 181.605469 138.238281 181.40625 137.5 L 181.3125 137.160156 C 181.164062 136.59375 181.054688 136.070312 181.058594 135.484375 L 181.058594 135.09375 L 181.0625 134.695312 L 181.066406 134.289062 C 181.066406 133.953125 181.078125 133.617188 181.09375 133.28125 Z M 129.84375 129.84375 C 130.539062 129.933594 131.066406 130.21875 131.660156 130.578125 L 132.246094 130.917969 L 132.539062 131.089844 C 132.914062 131.308594 133.296875 131.515625 133.683594 131.71875 C 134.484375 132.152344 135.253906 132.628906 136.03125 133.113281 C 137.75 134.164062 139.480469 135.152344 141.378906 135.851562 L 141.761719 135.992188 C 143.816406 136.726562 145.921875 137.332031 148.113281 137.386719 L 148.714844 137.40625 C 149.027344 137.414062 149.339844 137.421875 149.652344 137.429688 C 149.957031 137.4375 150.257812 137.445312 150.5625 137.457031 L 151.109375 137.46875 C 151.5625 137.5 151.5625 137.5 152.03125 137.65625 C 152.265625 137.671875 152.496094 137.679688 152.730469 137.683594 L 153.160156 137.691406 L 153.625 137.695312 L 154.609375 137.710938 C 155.125 137.71875 155.636719 137.722656 156.152344 137.730469 C 162.902344 137.816406 162.902344 137.816406 165.9375 139.375 L 166.285156 139.539062 C 167.28125 140.039062 168.066406 140.679688 168.75 141.5625 C 169.242188 142.359375 169.625 143.207031 170 144.0625 L 170.21875 144.542969 C 171.3125 147.152344 171.839844 150.074219 172.265625 152.863281 L 172.445312 154.03125 C 172.488281 154.3125 172.539062 154.59375 172.589844 154.875 C 172.796875 156.066406 172.894531 157.261719 172.988281 158.46875 L 173.03125 158.992188 C 173.105469 160.007812 173.144531 161.011719 173.125 162.03125 L 172.65625 161.875 C 172.410156 161.476562 172.183594 161.070312 171.972656 160.65625 L 171.78125 160.285156 C 171.289062 159.324219 170.867188 158.347656 170.46875 157.34375 C 169.773438 155.621094 169.050781 153.957031 168.125 152.34375 L 167.847656 151.851562 C 167.421875 151.109375 166.980469 150.371094 166.523438 149.648438 L 166.304688 149.304688 C 166.234375 149.222656 166.164062 149.144531 166.09375 149.0625 L 165.625 149.0625 C 165.648438 149.753906 165.667969 150.449219 165.695312 151.144531 L 165.710938 151.742188 L 165.730469 152.3125 L 165.75 152.839844 C 165.765625 153.292969 165.765625 153.292969 165.9375 153.75 C 165.96875 154.054688 165.996094 154.363281 166.015625 154.667969 L 166.054688 155.210938 L 166.132812 156.351562 L 166.171875 156.894531 L 166.207031 157.394531 C 166.238281 157.828125 166.238281 157.828125 166.40625 158.28125 C 166.449219 158.613281 166.480469 158.949219 166.511719 159.28125 L 166.570312 159.890625 L 166.628906 160.527344 C 166.753906 161.867188 166.898438 163.195312 167.113281 164.523438 C 167.230469 165.269531 167.324219 166.019531 167.421875 166.765625 L 167.480469 167.234375 C 167.574219 167.941406 167.664062 168.652344 167.75 169.363281 L 167.792969 169.714844 C 167.828125 170.019531 167.867188 170.324219 167.902344 170.628906 C 167.957031 171.101562 167.957031 171.101562 168.125 171.5625 C 168.15625 171.804688 168.179688 172.046875 168.199219 172.289062 L 168.234375 172.726562 C 168.257812 173.023438 168.28125 173.324219 168.304688 173.621094 C 168.390625 174.59375 168.515625 175.550781 168.671875 176.511719 C 168.804688 177.382812 168.90625 178.253906 169.003906 179.132812 L 169.066406 179.6875 C 169.199219 180.945312 169.28125 182.171875 169.21875 183.4375 C 168.496094 183.140625 168.15625 182.628906 167.6875 182.023438 C 167.09375 181.222656 166.53125 180.40625 165.976562 179.578125 L 165.625 179.066406 C 165.070312 178.246094 164.539062 177.429688 164.0625 176.5625 C 163.890625 176.28125 163.714844 176 163.535156 175.722656 L 163.246094 175.273438 C 163.007812 174.90625 162.765625 174.542969 162.519531 174.179688 C 161.558594 172.746094 160.703125 171.246094 159.855469 169.746094 L 159.675781 169.433594 C 159.378906 168.902344 159.113281 168.382812 158.90625 167.8125 C 158.605469 167.847656 158.605469 167.847656 158.28125 167.96875 C 158.054688 168.210938 158.054688 168.210938 157.871094 168.535156 C 157.792969 168.660156 157.710938 168.789062 157.628906 168.917969 L 157.34375 169.375 C 157.089844 169.761719 156.835938 170.144531 156.582031 170.527344 L 156.378906 170.835938 C 155.886719 171.570312 155.378906 172.289062 154.851562 173 C 154.550781 173.410156 154.253906 173.824219 153.960938 174.242188 C 153.242188 175.25 152.507812 176.25 151.757812 177.238281 C 151.539062 177.53125 151.320312 177.824219 151.101562 178.117188 C 150.234375 179.28125 149.355469 180.4375 148.4375 181.5625 L 148.070312 182.011719 C 147.832031 182.300781 147.59375 182.59375 147.355469 182.882812 C 147.035156 183.273438 146.71875 183.667969 146.40625 184.0625 L 145.9375 183.90625 C 146.132812 182.863281 146.371094 181.832031 146.652344 180.808594 L 146.769531 180.375 C 146.847656 180.074219 146.929688 179.773438 147.011719 179.46875 C 147.226562 178.679688 147.4375 177.890625 147.648438 177.101562 L 147.773438 176.632812 C 148.15625 175.207031 148.515625 173.777344 148.871094 172.34375 C 149.078125 171.492188 149.296875 170.644531 149.523438 169.796875 C 149.878906 168.488281 150.195312 167.171875 150.496094 165.851562 C 150.535156 165.683594 150.574219 165.515625 150.617188 165.347656 C 151.21875 162.667969 151.300781 160.027344 151.289062 157.292969 C 151.289062 156.742188 151.289062 156.1875 151.292969 155.636719 C 151.339844 150.792969 151.339844 150.792969 149.84375 146.25 C 149.257812 145.398438 148.558594 144.859375 147.65625 144.375 C 147.125 144.136719 146.582031 143.925781 146.039062 143.710938 C 144.859375 143.238281 143.765625 142.648438 142.65625 142.03125 L 141.75 141.542969 C 139.269531 140.183594 137.023438 138.601562 135.011719 136.613281 L 134.753906 136.359375 C 134.234375 135.839844 133.84375 135.300781 133.4375 134.6875 C 133.164062 134.382812 132.890625 134.082031 132.609375 133.789062 C 131.859375 132.992188 131.230469 132.160156 130.625 131.25 C 130.472656 131.042969 130.320312 130.832031 130.167969 130.625 L 129.84375 130.15625 Z M 129.84375 129.84375 " fill-opacity="1" fill-rule="nonzero"/><path fill="#003e52" d="M 120.730469 105.1875 L 121.09375 105.3125 C 121.695312 106.277344 122 107.359375 122.34375 108.4375 C 122.449219 108.765625 122.558594 109.09375 122.671875 109.421875 C 122.753906 109.667969 122.835938 109.910156 122.914062 110.15625 C 123.03125 110.519531 123.152344 110.878906 123.273438 111.242188 L 123.386719 111.601562 C 123.507812 111.980469 123.507812 111.980469 123.75 112.5 C 124.066406 112.746094 124.066406 112.746094 124.375 112.8125 L 124.484375 112.550781 C 124.804688 111.984375 125.203125 111.570312 125.757812 111.230469 C 126.738281 110.71875 127.714844 110.390625 128.824219 110.417969 C 130.03125 110.570312 131.195312 111.035156 132.183594 111.746094 C 132.941406 112.425781 133.503906 113.289062 133.898438 114.226562 C 134.25 115.46875 134.214844 116.910156 133.960938 118.164062 C 133.636719 119.167969 133.113281 119.914062 132.34375 120.625 C 131.636719 121.195312 130.890625 121.539062 130 121.71875 C 128.988281 121.785156 128.027344 121.746094 127.03125 121.5625 C 127.230469 122.398438 127.464844 123.226562 127.738281 124.039062 L 127.851562 124.378906 C 127.929688 124.609375 128.007812 124.84375 128.085938 125.074219 C 128.203125 125.429688 128.320312 125.785156 128.4375 126.140625 L 128.667969 126.824219 L 128.773438 127.144531 C 128.910156 127.550781 129.050781 127.941406 129.242188 128.324219 C 129.417969 128.683594 129.398438 128.980469 129.375 129.375 C 128.453125 129.722656 127.53125 130.058594 126.601562 130.382812 C 125.445312 130.785156 124.289062 131.179688 123.125 131.5625 L 122.65625 131.71875 C 122.90625 132.164062 123.148438 132.527344 123.496094 132.898438 C 124.09375 133.625 124.453125 134.40625 124.6875 135.3125 C 124.84375 136.570312 124.875 137.953125 124.453125 139.160156 C 124.050781 139.96875 123.488281 140.652344 122.8125 141.25 C 122.140625 141.691406 121.4375 141.984375 120.628906 142.058594 C 118.167969 142.132812 118.167969 142.132812 117.34375 141.804688 C 116.339844 141.25 115.492188 140.414062 114.777344 139.53125 C 114.007812 138.058594 113.960938 136.632812 113.90625 135 C 112.816406 135.089844 111.835938 135.472656 110.8125 135.839844 C 107.128906 137.148438 107.128906 137.148438 106.40625 137.03125 C 105.929688 136.445312 105.722656 135.707031 105.480469 135 L 105.359375 134.640625 C 105.273438 134.390625 105.1875 134.140625 105.101562 133.890625 C 104.972656 133.507812 104.839844 133.125 104.707031 132.742188 L 104.457031 132.011719 L 104.335938 131.664062 C 104.15625 131.128906 104.0625 130.730469 104.0625 130.15625 C 104.527344 130.015625 104.847656 130.003906 105.324219 130.085938 C 106.328125 130.21875 107.308594 130.035156 108.253906 129.675781 L 108.59375 129.53125 L 108.59375 129.21875 L 108.945312 128.964844 C 109.496094 128.488281 109.71875 128.003906 110 127.34375 L 110.195312 126.90625 C 110.425781 125.929688 110.421875 124.933594 110.148438 123.964844 C 109.828125 123.148438 109.386719 122.480469 108.75 121.875 C 107.976562 121.308594 107.234375 120.992188 106.289062 120.847656 C 105.492188 120.8125 104.808594 120.832031 104.0625 121.117188 C 103.265625 121.566406 102.738281 122.09375 102.1875 122.8125 L 101.71875 122.96875 C 101.257812 122.433594 100.976562 121.972656 100.746094 121.304688 L 100.566406 120.78125 L 100.378906 120.21875 L 100.179688 119.636719 C 100.042969 119.234375 99.90625 118.828125 99.769531 118.425781 C 99.59375 117.90625 99.417969 117.386719 99.242188 116.871094 C 99.070312 116.375 98.90625 115.878906 98.738281 115.386719 L 98.542969 114.824219 L 98.371094 114.300781 L 98.214844 113.839844 C 98.125 113.4375 98.125 113.4375 98.171875 113.078125 L 98.28125 112.8125 C 98.542969 112.671875 98.542969 112.671875 98.886719 112.578125 C 99.410156 112.429688 99.929688 112.261719 100.441406 112.074219 L 100.898438 111.90625 L 101.40625 111.71875 C 102.117188 111.457031 102.832031 111.195312 103.546875 110.9375 C 103.761719 110.859375 103.976562 110.78125 104.191406 110.699219 C 104.507812 110.582031 104.828125 110.46875 105.144531 110.355469 L 105.707031 110.148438 C 106.277344 109.992188 106.757812 109.972656 107.34375 110 C 107.5 110.546875 107.496094 111.03125 107.472656 111.601562 C 107.421875 112.992188 107.421875 112.992188 107.804688 114.316406 C 108.394531 115.289062 109.234375 115.972656 110.195312 116.5625 C 111.191406 116.828125 112.191406 116.855469 113.203125 116.632812 C 114.117188 116.289062 114.789062 115.648438 115.453125 114.945312 C 115.832031 114.46875 116.054688 114.078125 116.199219 113.488281 C 116.378906 112.230469 116.273438 111.160156 115.835938 109.960938 C 115.515625 109.3125 115.089844 108.882812 114.53125 108.4375 L 114.152344 108.136719 L 113.90625 107.96875 C 114.003906 107.679688 114.003906 107.679688 114.21875 107.34375 C 114.628906 107.140625 114.628906 107.140625 115.144531 106.964844 L 115.71875 106.765625 L 116.320312 106.5625 L 117.480469 106.164062 L 118.050781 105.96875 C 118.6875 105.75 119.316406 105.503906 119.941406 105.25 C 120.3125 105.15625 120.3125 105.15625 120.730469 105.1875 " fill-opacity="1" fill-rule="nonzero"/><path fill="#000000" d="M 227.34375 190.15625 C 229.0625 190.15625 229.0625 190.15625 229.515625 190.398438 L 229.859375 190.75 L 230.265625 191.144531 L 230.6875 191.589844 C 230.839844 191.742188 230.992188 191.894531 231.148438 192.050781 C 231.5625 192.464844 231.972656 192.882812 232.382812 193.304688 C 232.8125 193.746094 233.246094 194.183594 233.679688 194.617188 C 234.5 195.445312 235.3125 196.273438 236.128906 197.105469 C 237.144531 198.144531 238.167969 199.179688 239.191406 200.214844 L 240.261719 201.296875 L 240.523438 201.5625 C 241.121094 202.167969 241.71875 202.773438 242.3125 203.382812 L 243.019531 204.101562 C 243.238281 204.324219 243.457031 204.546875 243.675781 204.769531 L 244.066406 205.167969 L 244.410156 205.519531 C 244.671875 205.792969 244.671875 205.792969 245 205.9375 L 245 190.15625 L 250 190.15625 L 250 215.625 C 248.125 215.625 248.125 215.625 247.648438 215.382812 L 247.304688 215.03125 L 246.898438 214.632812 L 246.476562 214.191406 C 246.324219 214.035156 246.167969 213.882812 246.015625 213.730469 C 245.601562 213.3125 245.1875 212.894531 244.78125 212.46875 C 244.351562 212.027344 243.914062 211.59375 243.480469 211.15625 C 242.660156 210.328125 241.84375 209.5 241.03125 208.664062 C 239.929688 207.539062 238.820312 206.421875 237.714844 205.300781 C 235.96875 203.539062 234.234375 201.769531 232.5 200 L 232.34375 215.625 L 227.34375 215.625 Z M 195.382812 191.144531 C 196.671875 191.726562 197.847656 192.496094 198.90625 193.4375 C 198.472656 194.160156 197.964844 194.710938 197.359375 195.296875 C 196.941406 195.714844 196.558594 196.160156 196.179688 196.613281 C 195.9375 196.875 195.9375 196.875 195.46875 197.1875 C 195.328125 197.101562 195.1875 197.019531 195.046875 196.929688 C 193.324219 195.90625 191.785156 195.335938 189.757812 195.273438 C 188.3125 195.292969 186.9375 195.546875 185.644531 196.203125 C 184.558594 196.851562 183.761719 197.660156 183.078125 198.71875 C 182.269531 200.175781 182.113281 201.5625 182.121094 203.203125 C 182.164062 204.683594 182.527344 205.9375 183.234375 207.238281 C 183.847656 208.179688 184.597656 208.902344 185.578125 209.457031 C 187.335938 210.300781 189.011719 210.417969 190.9375 210.3125 C 192.058594 210.195312 192.695312 209.902344 193.75 209.375 L 193.90625 205 L 190.46875 205 L 190.46875 200.3125 L 198.90625 200.3125 C 198.988281 203.257812 198.988281 203.257812 199.003906 204.519531 C 199.015625 205.378906 199.03125 206.238281 199.058594 207.097656 C 199.082031 207.789062 199.09375 208.484375 199.097656 209.175781 C 199.101562 209.441406 199.109375 209.703125 199.121094 209.96875 C 199.15625 210.800781 199.148438 211.539062 198.90625 212.34375 C 198.375 213.015625 197.628906 213.378906 196.875 213.75 L 196.375 214.03125 C 194.378906 215.140625 192.042969 215.609375 189.777344 215.664062 C 187.332031 215.605469 185.097656 215.089844 182.96875 213.882812 C 180.992188 212.664062 179.417969 211.039062 178.273438 209.023438 C 177.203125 207.039062 176.796875 204.792969 176.820312 202.558594 C 176.890625 200.324219 177.449219 198.179688 178.554688 196.230469 C 179.75 194.355469 181.25 192.777344 183.195312 191.671875 C 187.035156 189.71875 191.371094 189.59375 195.382812 191.140625 M 203.75 190.15625 L 222.5 190.15625 L 222.5 194.84375 L 208.90625 194.84375 L 208.90625 200.3125 L 219.0625 200.3125 L 219.0625 205 L 208.90625 205 L 208.90625 210.78125 L 210.136719 210.777344 C 211.476562 210.777344 212.816406 210.773438 214.152344 210.773438 C 214.964844 210.773438 215.777344 210.769531 216.589844 210.769531 C 217.375 210.769531 218.15625 210.765625 218.941406 210.765625 C 219.238281 210.765625 219.539062 210.765625 219.839844 210.765625 C 220.257812 210.765625 220.675781 210.761719 221.09375 210.761719 L 221.472656 210.761719 C 221.761719 210.761719 222.054688 210.769531 222.34375 210.78125 L 222.5 210.9375 C 222.515625 211.269531 222.519531 211.605469 222.519531 211.9375 L 222.519531 212.875 C 222.519531 213.203125 222.519531 213.527344 222.519531 213.851562 L 222.519531 215.039062 L 222.5 215.46875 L 222.34375 215.625 C 222.101562 215.640625 221.859375 215.644531 221.617188 215.644531 L 220.0625 215.644531 C 219.460938 215.644531 218.859375 215.640625 218.261719 215.640625 L 217.152344 215.640625 C 215.78125 215.640625 214.410156 215.636719 213.035156 215.632812 L 203.75 215.625 Z M 99.375 190.15625 L 117.96875 190.15625 L 117.96875 194.84375 L 104.53125 195 L 104.53125 200.15625 L 114.6875 200.3125 L 114.6875 205 L 104.53125 205.15625 L 104.375 210.78125 L 117.96875 210.78125 L 117.96875 215.625 L 99.375 215.625 Z M 280.9375 190.15625 L 299.53125 190.15625 L 299.53125 194.84375 L 285.9375 194.84375 L 285.9375 200.3125 L 296.09375 200.3125 L 296.09375 205 L 285.9375 205 L 285.9375 210.78125 L 299.53125 210.78125 L 299.53125 215.625 L 280.9375 215.625 Z M 271.746094 190.964844 C 272.164062 191.148438 272.566406 191.347656 272.96875 191.5625 L 273.417969 191.789062 C 274.308594 192.25 275.046875 192.75 275.78125 193.4375 C 275.25 194.1875 274.695312 194.863281 274.03125 195.5 C 273.628906 195.90625 273.273438 196.347656 272.917969 196.796875 L 272.65625 197.03125 C 272.03125 197.03125 272.03125 197.03125 271.695312 196.847656 L 271.328125 196.601562 C 270.023438 195.789062 268.621094 195.378906 267.09375 195.289062 C 265.519531 195.238281 263.988281 195.480469 262.558594 196.160156 C 262.039062 196.445312 261.644531 196.742188 261.25 197.1875 L 260.9375 197.1875 L 260.808594 197.460938 C 260.625 197.8125 260.410156 198.117188 260.175781 198.4375 C 259.542969 199.402344 259.132812 200.320312 259.027344 201.484375 C 258.929688 203.1875 258.914062 204.847656 259.6875 206.40625 L 259.886719 206.820312 C 260.425781 207.816406 261.109375 208.566406 262.03125 209.21875 C 263.621094 210.121094 265.105469 210.367188 266.90625 210.359375 C 268.707031 210.316406 270.152344 209.785156 271.71875 208.90625 L 272.1875 208.59375 C 272.5 208.621094 272.5 208.621094 272.8125 208.75 C 273.046875 208.96875 273.046875 208.96875 273.28125 209.257812 C 273.640625 209.691406 274.007812 210.113281 274.394531 210.523438 L 274.652344 210.796875 C 274.824219 210.980469 274.996094 211.164062 275.171875 211.34375 C 275.378906 211.566406 275.582031 211.800781 275.78125 212.03125 L 275.78125 212.34375 C 275.492188 212.578125 275.191406 212.800781 274.882812 213.007812 L 274.605469 213.199219 C 272.300781 214.734375 269.820312 215.46875 267.0625 215.65625 C 264.550781 215.714844 262.132812 215.15625 259.925781 213.972656 C 258.871094 213.367188 258.03125 212.585938 257.1875 211.71875 C 257.070312 211.605469 256.957031 211.492188 256.835938 211.375 C 255.542969 210.019531 254.667969 208.371094 254.179688 206.570312 L 254.0625 206.09375 L 253.957031 205.695312 C 253.460938 203.507812 253.605469 201.046875 254.21875 198.90625 C 254.984375 196.636719 256.230469 194.753906 257.96875 193.125 C 259.566406 191.75 261.519531 190.71875 263.59375 190.3125 C 266.292969 189.835938 269.171875 190.015625 271.746094 190.964844 M 73.59375 190.15625 L 95.625 190.15625 L 95.625 194.84375 L 87.1875 194.84375 L 87.1875 215.625 L 82.1875 215.625 L 82.03125 215.46875 C 82.015625 215.203125 82.011719 214.933594 82.011719 214.667969 L 82.011719 212.949219 C 82.011719 212.394531 82.015625 211.839844 82.015625 211.289062 C 82.015625 210.710938 82.015625 210.132812 82.015625 209.554688 C 82.015625 208.460938 82.019531 207.367188 82.019531 206.269531 C 82.023438 205.027344 82.023438 203.78125 82.023438 202.535156 C 82.023438 199.96875 82.027344 197.40625 82.03125 194.84375 L 73.59375 194.84375 Z M 145.625 190.15625 L 150.78125 190.15625 L 150.78125 210.78125 C 155.195312 210.773438 155.195312 210.773438 159.613281 210.765625 C 160.464844 210.765625 160.464844 210.765625 160.863281 210.765625 C 161.140625 210.765625 161.421875 210.765625 161.699219 210.765625 C 162.121094 210.765625 162.546875 210.761719 162.96875 210.761719 L 163.347656 210.761719 C 163.636719 210.761719 163.929688 210.769531 164.21875 210.78125 L 164.375 210.9375 C 164.390625 211.269531 164.394531 211.605469 164.394531 211.9375 L 164.394531 212.875 C 164.394531 213.203125 164.394531 213.527344 164.394531 213.851562 L 164.394531 215.039062 L 164.375 215.46875 L 164.21875 215.625 C 163.976562 215.640625 163.734375 215.644531 163.492188 215.644531 L 161.9375 215.644531 C 161.335938 215.644531 160.734375 215.640625 160.136719 215.640625 L 159.027344 215.640625 C 157.65625 215.640625 156.285156 215.636719 154.914062 215.632812 L 145.625 215.625 Z M 122.96875 190.15625 L 127.96875 190.15625 L 127.96875 210.78125 L 141.5625 210.78125 L 141.5625 215.625 L 122.96875 215.625 Z M 168.28125 190.15625 L 173.4375 190.15625 L 173.4375 215.625 L 168.28125 215.625 Z M 158.007812 123.398438 L 158.390625 123.390625 C 159.511719 123.382812 160.410156 123.648438 161.414062 124.136719 C 162.476562 124.789062 163.132812 125.476562 163.75 126.5625 L 163.949219 126.894531 C 164.515625 127.960938 164.539062 129.125 164.53125 130.3125 C 164.449219 131.574219 163.945312 132.683594 163.28125 133.75 C 162.625 134.601562 161.871094 135.175781 160.890625 135.621094 C 159.738281 136.058594 158.578125 136.367188 157.34375 136.25 C 155.886719 135.953125 154.722656 135.480469 153.574219 134.53125 C 152.753906 133.769531 152.28125 132.914062 151.875 131.875 C 151.492188 130.550781 151.539062 128.882812 151.855469 127.550781 C 152.03125 127.101562 152.25 126.664062 152.5 126.25 L 152.71875 125.867188 C 153.367188 124.894531 154.253906 124.375 155.265625 123.832031 C 156.175781 123.410156 157.019531 123.40625 158.007812 123.398438 M 278.4375 222.1875 L 278.4375 222.8125 L 278.683594 222.675781 C 279.507812 222.261719 280.203125 222.085938 281.128906 222.113281 C 281.757812 222.222656 282.246094 222.492188 282.78125 222.828125 L 283.125 222.96875 C 283.453125 222.859375 283.453125 222.859375 283.75 222.65625 C 284.683594 222.246094 285.554688 222.101562 286.574219 222.136719 C 287.148438 222.199219 287.613281 222.320312 288.128906 222.582031 C 288.703125 223.011719 289.050781 223.589844 289.375 224.21875 C 289.515625 224.644531 289.550781 224.890625 289.550781 225.328125 L 289.550781 225.71875 L 289.546875 226.132812 L 289.546875 226.5625 C 289.542969 227.015625 289.542969 227.46875 289.542969 227.917969 C 289.539062 228.226562 289.539062 228.53125 289.539062 228.839844 C 289.535156 229.589844 289.535156 230.34375 289.53125 231.09375 C 289.144531 231.097656 288.757812 231.101562 288.371094 231.105469 L 288.035156 231.109375 C 287.753906 231.109375 287.46875 231.101562 287.1875 231.09375 L 287.03125 230.9375 C 287.015625 230.515625 287.007812 230.101562 287.003906 229.679688 C 287 229.417969 286.996094 229.160156 286.992188 228.898438 C 286.988281 228.488281 286.984375 228.078125 286.980469 227.664062 C 286.976562 227.269531 286.972656 226.871094 286.964844 226.476562 L 286.964844 226.105469 C 286.964844 225.710938 286.964844 225.710938 286.875 225.15625 C 286.609375 224.761719 286.609375 224.761719 286.25 224.53125 C 285.796875 224.363281 285.796875 224.363281 285.3125 224.375 C 284.878906 224.550781 284.878906 224.550781 284.53125 224.84375 C 284.171875 225.300781 284.171875 225.300781 284.167969 225.894531 C 284.164062 226.136719 284.15625 226.378906 284.152344 226.621094 L 284.144531 227.011719 C 284.136719 227.417969 284.128906 227.824219 284.121094 228.230469 C 284.113281 228.507812 284.109375 228.785156 284.101562 229.0625 C 284.089844 229.738281 284.074219 230.417969 284.0625 231.09375 C 283.675781 231.097656 283.289062 231.101562 282.902344 231.105469 L 282.566406 231.109375 C 282.285156 231.109375 282 231.101562 281.71875 231.09375 L 281.5625 230.9375 C 281.542969 230.527344 281.53125 230.121094 281.523438 229.714844 L 281.507812 228.953125 C 281.5 228.554688 281.496094 228.15625 281.488281 227.753906 C 281.480469 227.367188 281.472656 226.984375 281.464844 226.597656 L 281.460938 226.238281 C 281.449219 225.769531 281.425781 225.367188 281.261719 224.929688 C 281.109375 224.667969 281.109375 224.667969 280.824219 224.542969 C 280.492188 224.457031 280.1875 224.394531 279.84375 224.375 C 279.3125 224.523438 279.3125 224.523438 278.90625 224.84375 C 278.703125 225.101562 278.703125 225.101562 278.59375 225.46875 C 278.570312 225.890625 278.5625 226.296875 278.570312 226.71875 L 278.570312 227.085938 C 278.574219 227.46875 278.578125 227.851562 278.585938 228.230469 C 278.589844 228.617188 278.59375 229 278.59375 229.386719 C 278.597656 229.625 278.601562 229.863281 278.601562 230.101562 C 278.605469 230.378906 278.601562 230.660156 278.59375 230.9375 L 278.4375 231.09375 C 278.042969 231.105469 277.652344 231.109375 277.257812 231.105469 L 276.917969 231.101562 C 276.644531 231.097656 276.367188 231.097656 276.09375 231.09375 C 276.089844 229.871094 276.085938 228.652344 276.085938 227.429688 C 276.085938 227.015625 276.082031 226.597656 276.082031 226.183594 C 276.082031 225.585938 276.078125 224.992188 276.078125 224.394531 L 276.074219 223.828125 L 276.074219 222.84375 L 276.09375 222.5 L 276.25 222.34375 C 276.972656 222.222656 277.707031 222.164062 278.4375 222.1875 M 291.25 222.1875 L 293.75 222.1875 L 293.773438 223.394531 C 293.78125 223.78125 293.789062 224.167969 293.800781 224.554688 C 293.804688 224.824219 293.8125 225.09375 293.816406 225.363281 C 293.824219 225.75 293.832031 226.132812 293.839844 226.519531 L 293.847656 226.882812 C 293.859375 227.351562 293.882812 227.753906 294.050781 228.195312 C 294.210938 228.453125 294.210938 228.453125 294.480469 228.632812 C 294.996094 228.800781 295.398438 228.808594 295.9375 228.75 C 296.378906 228.535156 296.378906 228.535156 296.71875 228.125 C 296.800781 227.644531 296.832031 227.246094 296.828125 226.765625 L 296.835938 226.367188 C 296.84375 225.953125 296.84375 225.535156 296.847656 225.117188 C 296.847656 224.832031 296.851562 224.550781 296.859375 224.269531 C 296.867188 223.574219 296.871094 222.882812 296.875 222.1875 L 299.375 222.1875 C 299.386719 223.40625 299.394531 224.621094 299.402344 225.839844 C 299.402344 226.253906 299.40625 226.667969 299.410156 227.082031 C 299.417969 227.679688 299.417969 228.273438 299.421875 228.871094 C 299.421875 229.054688 299.425781 229.238281 299.429688 229.425781 C 299.429688 230.652344 299.316406 231.769531 298.707031 232.855469 C 298.226562 233.59375 297.617188 234.089844 296.847656 234.511719 C 296.03125 234.835938 295.25 234.90625 294.375 234.84375 C 293.285156 234.601562 292.425781 234.128906 291.5625 233.4375 C 291.925781 232.855469 292.230469 232.40625 292.8125 232.03125 L 293.054688 232.164062 C 293.699219 232.503906 294.257812 232.78125 295 232.8125 C 295.554688 232.710938 295.949219 232.621094 296.386719 232.257812 C 296.652344 231.679688 296.679688 231.09375 296.71875 230.46875 L 296.339844 230.695312 C 295.671875 230.984375 295.101562 231.09375 294.375 231.09375 C 293.726562 231.019531 293.210938 230.824219 292.628906 230.527344 C 292.074219 230.058594 291.738281 229.546875 291.40625 228.90625 C 291.265625 228.484375 291.230469 228.242188 291.230469 227.8125 L 291.230469 227.429688 L 291.234375 227.023438 L 291.234375 226.605469 C 291.234375 226.164062 291.238281 225.722656 291.238281 225.285156 C 291.242188 224.984375 291.242188 224.683594 291.242188 224.386719 C 291.242188 223.652344 291.246094 222.921875 291.25 222.1875 M 261.71875 217.8125 L 264.21875 217.8125 C 264.222656 219.519531 264.226562 221.230469 264.226562 222.9375 C 264.226562 223.730469 264.230469 224.523438 264.230469 225.316406 C 264.230469 226.082031 264.234375 226.847656 264.234375 227.613281 C 264.234375 227.90625 264.234375 228.199219 264.234375 228.492188 C 264.234375 228.898438 264.238281 229.304688 264.238281 229.714844 L 264.238281 230.085938 C 264.238281 230.371094 264.230469 230.652344 264.21875 230.9375 L 264.0625 231.09375 C 263.667969 231.105469 263.277344 231.109375 262.882812 231.105469 L 262.542969 231.101562 C 262.269531 231.097656 261.992188 231.097656 261.71875 231.09375 L 261.71875 230.46875 L 261.339844 230.695312 C 260.5625 231.035156 259.867188 231.132812 259.023438 231.066406 C 258.207031 230.925781 257.558594 230.609375 256.886719 230.128906 C 256.25 229.566406 255.804688 228.902344 255.5 228.109375 C 255.273438 227.300781 255.226562 226.542969 255.386719 225.722656 C 255.636719 224.746094 256.042969 224.027344 256.71875 223.28125 C 257.257812 222.742188 257.8125 222.488281 258.53125 222.273438 C 259.132812 222.136719 259.703125 222.085938 260.3125 222.1875 L 261.5625 222.65625 Z M 258.390625 224.660156 C 258.058594 224.890625 257.851562 225.113281 257.65625 225.46875 C 257.460938 226.054688 257.421875 226.578125 257.5 227.1875 C 257.652344 227.648438 257.847656 228.042969 258.125 228.4375 C 258.558594 228.800781 258.886719 228.902344 259.433594 229.042969 C 260.011719 229.09375 260.011719 229.09375 260.578125 228.886719 C 261.132812 228.570312 261.375 228.347656 261.71875 227.8125 C 261.8125 227.28125 261.8125 227.28125 261.789062 226.71875 L 261.785156 226.152344 C 261.714844 225.589844 261.578125 225.296875 261.25 224.84375 C 260.996094 224.550781 260.996094 224.550781 260.625 224.375 C 259.71875 224.148438 259.203125 224.199219 258.390625 224.660156 M 251.953125 222.453125 C 252.398438 222.65625 252.671875 222.828125 253.039062 223.164062 C 253.5625 224.089844 253.804688 224.882812 253.804688 225.9375 L 253.796875 226.332031 L 253.792969 226.746094 C 253.792969 227.179688 253.785156 227.613281 253.78125 228.046875 C 253.777344 228.34375 253.773438 228.636719 253.773438 228.933594 C 253.769531 229.652344 253.757812 230.375 253.75 231.09375 L 251.25 231.09375 L 251.09375 230.46875 L 250.703125 230.695312 C 249.957031 231.027344 249.320312 231.128906 248.515625 231.058594 C 247.730469 230.933594 247.09375 230.734375 246.46875 230.230469 C 246.082031 229.824219 245.933594 229.445312 245.78125 228.90625 C 245.671875 228.25 245.703125 227.714844 245.929688 227.085938 C 246.207031 226.492188 246.484375 226.019531 246.933594 225.546875 C 247.636719 225.144531 248.316406 224.984375 249.121094 224.953125 C 249.882812 224.964844 250.546875 225.1875 251.25 225.46875 C 251.125 225.085938 251.125 225.085938 250.9375 224.6875 C 250.511719 224.351562 250.511719 224.351562 250.097656 224.332031 C 249.128906 224.339844 248.277344 224.441406 247.34375 224.6875 L 246.40625 223.28125 C 247.894531 222.082031 250.171875 221.808594 251.953125 222.453125 M 248.125 227.1875 C 247.9375 227.511719 247.9375 227.511719 247.929688 227.960938 L 247.96875 228.4375 C 248.15625 228.730469 248.15625 228.730469 248.4375 228.90625 C 249.117188 229.132812 249.757812 229.121094 250.46875 229.0625 L 250.957031 228.917969 C 251.273438 228.625 251.273438 228.625 251.324219 228.265625 C 251.347656 227.882812 251.335938 227.5625 251.25 227.1875 C 250.960938 226.824219 250.960938 226.824219 250.46875 226.71875 C 249.574219 226.605469 248.898438 226.683594 248.125 227.1875 M 233.039062 222.355469 C 233.59375 222.601562 233.953125 222.972656 234.339844 223.4375 C 234.644531 223.9375 234.824219 224.429688 234.871094 225.019531 C 234.878906 225.40625 234.878906 225.792969 234.875 226.179688 L 234.871094 226.605469 C 234.871094 227.054688 234.867188 227.5 234.863281 227.949219 C 234.863281 228.253906 234.859375 228.558594 234.859375 228.863281 C 234.855469 229.605469 234.851562 230.351562 234.84375 231.09375 L 232.5 231.09375 L 232.34375 230.46875 L 231.964844 230.695312 C 231.167969 231.042969 230.472656 231.121094 229.605469 231.070312 C 229.023438 230.988281 228.574219 230.867188 228.070312 230.550781 C 227.574219 230.144531 227.242188 229.796875 226.953125 229.21875 C 226.820312 228.433594 226.808594 227.769531 227.0625 227.011719 C 227.304688 226.417969 227.628906 226.039062 228.125 225.625 C 228.644531 225.261719 229.058594 225.070312 229.6875 225 C 230.695312 224.921875 231.417969 225.066406 232.34375 225.46875 L 232.1875 224.53125 C 231.164062 224.234375 230.066406 224.300781 229.035156 224.53125 L 228.4375 224.6875 C 228.300781 224.519531 228.167969 224.351562 228.039062 224.179688 L 227.8125 223.894531 C 227.65625 223.59375 227.65625 223.59375 227.660156 223.265625 L 227.8125 222.96875 C 228.175781 222.777344 228.175781 222.777344 228.632812 222.628906 L 229.085938 222.472656 C 230.339844 222.109375 231.769531 221.957031 233.035156 222.351562 M 229.695312 226.933594 C 229.367188 227.183594 229.367188 227.183594 229.0625 227.5 C 229.050781 228.046875 229.050781 228.046875 229.21875 228.59375 C 229.511719 228.933594 229.511719 228.933594 230 229.0625 C 230.71875 229.144531 231.355469 229.125 232.050781 228.914062 C 232.367188 228.621094 232.367188 228.621094 232.417969 228.265625 C 232.441406 227.882812 232.429688 227.5625 232.34375 227.1875 C 232.054688 226.824219 232.054688 226.824219 231.5625 226.71875 C 230.871094 226.632812 230.332031 226.636719 229.695312 226.933594 M 271.679688 222.363281 C 272.394531 222.640625 272.945312 223.007812 273.4375 223.59375 C 273.929688 224.375 274.316406 225.164062 274.375 226.09375 L 274.375 227.5 L 268.28125 227.5 L 268.75 228.4375 C 269.160156 228.691406 269.386719 228.816406 269.84375 228.90625 C 270.765625 228.929688 271.523438 228.683594 272.34375 228.28125 C 272.558594 228.472656 272.769531 228.667969 272.980469 228.867188 L 273.335938 229.195312 L 273.59375 229.53125 C 273.582031 229.863281 273.582031 229.863281 273.4375 230.15625 C 272.699219 230.699219 271.988281 230.917969 271.085938 231.054688 C 269.960938 231.152344 268.945312 231.078125 267.910156 230.605469 C 267.195312 230.203125 266.675781 229.769531 266.25 229.0625 C 265.816406 228.171875 265.515625 227.285156 265.578125 226.289062 C 265.695312 225.40625 265.875 224.699219 266.378906 223.949219 C 266.953125 223.25 267.496094 222.746094 268.339844 222.402344 C 269.464844 222.070312 270.550781 222.042969 271.679688 222.363281 M 269.101562 224.414062 C 268.746094 224.691406 268.503906 224.917969 268.28125 225.3125 L 268.4375 225.78125 L 271.71875 225.78125 L 271.875 225.3125 C 271.800781 224.980469 271.800781 224.980469 271.5625 224.6875 C 271.046875 224.351562 270.679688 224.222656 270.070312 224.160156 C 269.535156 224.191406 269.535156 224.191406 269.101562 224.414062 M 242.628906 222.363281 C 243.332031 222.628906 243.847656 223.066406 244.375 223.59375 C 243.839844 224.160156 243.3125 224.585938 242.65625 225 L 242.1875 224.6875 C 241.757812 224.445312 241.421875 224.320312 240.929688 224.296875 C 240.308594 224.339844 240.308594 224.339844 239.796875 224.640625 C 239.34375 225.027344 239.117188 225.226562 238.90625 225.78125 C 238.832031 226.367188 238.832031 226.914062 238.90625 227.5 C 239.117188 228.058594 239.117188 228.058594 239.53125 228.4375 C 240.039062 228.761719 240.039062 228.761719 240.625 228.90625 C 241.191406 228.90625 241.191406 228.90625 241.71875 228.75 L 242.128906 228.488281 L 242.5 228.28125 C 243.222656 228.433594 243.792969 228.941406 244.375 229.375 C 244.21875 229.808594 244.042969 230.015625 243.691406 230.324219 C 242.828125 230.851562 241.804688 231.066406 240.800781 231.113281 C 239.886719 231.070312 239.128906 230.84375 238.328125 230.40625 C 237.628906 229.921875 237.097656 229.320312 236.695312 228.574219 C 236.5 227.914062 236.5 227.277344 236.496094 226.589844 L 236.480469 226.183594 C 236.472656 225.621094 236.492188 225.160156 236.722656 224.644531 C 237.214844 223.828125 237.808594 223.195312 238.59375 222.65625 C 239.820312 222.011719 241.308594 221.984375 242.628906 222.363281 " fill-opacity="1" fill-rule="nonzero"/><path fill="#002c3b" d="M 132.65625 112.34375 C 133.363281 113.199219 133.796875 113.914062 134.0625 115 C 134.214844 116.347656 134.1875 117.75 133.644531 119.003906 C 133.191406 119.8125 132.613281 120.410156 131.894531 120.988281 C 130.738281 121.609375 129.769531 121.769531 128.457031 121.75 C 127.972656 121.71875 127.507812 121.652344 127.03125 121.5625 C 127.230469 122.398438 127.464844 123.226562 127.738281 124.039062 L 127.851562 124.378906 C 127.929688 124.609375 128.007812 124.84375 128.085938 125.074219 C 128.203125 125.429688 128.320312 125.785156 128.4375 126.140625 L 128.667969 126.824219 L 128.773438 127.144531 C 128.910156 127.550781 129.050781 127.941406 129.242188 128.324219 C 129.417969 128.683594 129.398438 128.980469 129.375 129.375 C 128.453125 129.722656 127.53125 130.058594 126.601562 130.382812 C 125.445312 130.785156 124.289062 131.179688 123.125 131.5625 L 122.65625 131.71875 C 122.90625 132.164062 123.148438 132.527344 123.496094 132.898438 C 124.09375 133.625 124.453125 134.40625 124.6875 135.3125 C 124.84375 136.570312 124.875 137.953125 124.453125 139.160156 C 124.050781 139.96875 123.488281 140.652344 122.8125 141.25 C 122.140625 141.691406 121.4375 141.984375 120.628906 142.058594 C 118.167969 142.132812 118.167969 142.132812 117.34375 141.804688 C 116.511719 141.351562 115.828125 140.65625 115.15625 140 L 115.625 140 L 116.09375 140.46875 C 116.832031 140.933594 117.386719 141.222656 118.273438 141.265625 C 118.632812 141.269531 118.988281 141.269531 119.347656 141.269531 L 119.710938 141.269531 C 121.160156 141.277344 121.160156 141.277344 122.519531 140.847656 C 123.171875 140.296875 123.695312 139.710938 124.035156 138.917969 C 124.40625 137.5625 124.394531 135.730469 124.0625 134.375 L 123.75 134.375 L 123.46875 133.875 L 123.292969 133.574219 C 123.15625 133.332031 123.019531 133.089844 122.890625 132.839844 C 122.679688 132.480469 122.679688 132.480469 122.316406 132.292969 L 122.03125 132.1875 L 122.03125 131.40625 C 125.808594 129.808594 125.808594 129.808594 127.03125 129.84375 L 127.03125 129.53125 L 127.8125 129.375 L 127.8125 129.0625 L 128.75 129.0625 C 128.386719 127.785156 128.019531 126.511719 127.558594 125.265625 C 127.246094 124.417969 127.007812 123.570312 126.808594 122.691406 L 126.71875 122.34375 L 126.5625 122.1875 C 126.535156 121.808594 126.535156 121.808594 126.5625 121.40625 L 126.875 121.09375 C 127.269531 121.042969 127.269531 121.042969 127.761719 121.027344 L 128.292969 121.011719 L 128.847656 120.996094 L 129.40625 120.976562 C 129.867188 120.964844 130.324219 120.949219 130.78125 120.9375 L 130.78125 120.625 L 131.25 120.46875 L 131.40625 120.15625 L 132.242188 119.699219 C 132.53125 119.535156 132.53125 119.535156 132.722656 119.179688 L 132.8125 118.90625 L 133.125 118.90625 L 133.195312 118.378906 C 133.28125 117.8125 133.28125 117.8125 133.4375 117.5 C 133.523438 115.933594 133.519531 114.460938 132.96875 112.96875 L 132.65625 112.96875 Z M 132.65625 112.34375 " fill-opacity="1" fill-rule="nonzero"/><path fill="#003e52" d="M 104.375 130 C 104.707031 130.042969 104.707031 130.042969 105.089844 130.128906 C 105.214844 130.152344 105.339844 130.179688 105.46875 130.207031 L 105.78125 130.3125 L 105.9375 130.625 L 104.375 130.46875 L 104.6875 131.09375 C 104.707031 131.601562 104.707031 131.601562 104.6875 132.03125 L 105 132.03125 L 105 132.65625 L 105.3125 132.65625 L 105.402344 133.003906 L 105.527344 133.464844 L 105.648438 133.921875 C 105.773438 134.375 105.773438 134.375 105.953125 134.785156 C 106.09375 135.15625 106.09375 135.15625 106.09375 135.78125 L 106.40625 135.78125 L 106.5625 136.25 C 106.859375 136.207031 107.15625 136.160156 107.453125 136.113281 L 107.949219 136.035156 C 108.40625 135.945312 108.789062 135.804688 109.21875 135.625 C 109.445312 135.566406 109.671875 135.515625 109.902344 135.46875 C 110.515625 135.339844 111.117188 135.175781 111.71875 135 C 112.398438 134.808594 113.035156 134.644531 113.75 134.6875 C 113.265625 135.007812 112.847656 135.167969 112.300781 135.355469 L 112.007812 135.457031 C 111.804688 135.527344 111.601562 135.597656 111.394531 135.664062 C 111.089844 135.769531 110.78125 135.875 110.476562 135.980469 C 109.609375 136.277344 108.742188 136.570312 107.871094 136.847656 L 107.523438 136.957031 C 107.117188 137.046875 106.820312 137.097656 106.40625 137.03125 C 105.929688 136.445312 105.722656 135.710938 105.480469 135 L 105.359375 134.640625 C 105.273438 134.390625 105.1875 134.140625 105.101562 133.890625 C 104.972656 133.507812 104.839844 133.125 104.707031 132.742188 L 104.457031 132.011719 L 104.335938 131.664062 C 104.15625 131.128906 104.0625 130.730469 104.0625 130.15625 Z M 105.441406 120.285156 L 106.019531 120.277344 C 106.542969 120.3125 106.871094 120.410156 107.34375 120.625 L 107.929688 120.773438 L 108.4375 120.9375 L 108.59375 121.40625 L 108.90625 121.40625 C 109.238281 121.742188 109.238281 121.742188 109.621094 122.199219 L 110 122.640625 C 110.351562 123.183594 110.421875 123.582031 110.46875 124.21875 L 110.78125 124.21875 L 110.78125 126.5625 L 110.46875 126.40625 C 110.410156 126.039062 110.367188 125.671875 110.332031 125.304688 C 110.222656 124.363281 110.074219 123.597656 109.53125 122.8125 L 109.34375 122.523438 C 108.917969 121.949219 108.449219 121.589844 107.824219 121.261719 C 106.914062 120.890625 106.066406 120.816406 105.09375 120.851562 C 104.375 120.960938 103.878906 121.191406 103.285156 121.605469 C 102.855469 121.972656 102.53125 122.367188 102.1875 122.8125 L 101.71875 122.96875 L 101.71875 122.5 C 102.121094 121.933594 102.398438 121.621094 103 121.269531 C 103.4375 121.09375 103.4375 121.09375 103.75 121.09375 L 103.75 120.78125 L 104.0625 120.78125 L 104.0625 120.46875 C 104.519531 120.238281 104.929688 120.285156 105.441406 120.285156 " fill-opacity="1" fill-rule="nonzero"/><path fill="#00131a" d="M 132.65625 112.34375 C 133.363281 113.199219 133.796875 113.914062 134.0625 115 C 134.214844 116.347656 134.1875 117.75 133.644531 119.003906 C 133.191406 119.8125 132.613281 120.410156 131.894531 120.988281 C 130.726562 121.617188 129.738281 121.769531 128.410156 121.765625 C 127.96875 121.71875 127.96875 121.71875 127.5 121.40625 L 127.964844 121.382812 C 129.640625 121.335938 129.640625 121.335938 131.25 120.9375 C 131.671875 120.59375 131.671875 120.59375 132.03125 120.15625 C 132.3125 119.921875 132.59375 119.695312 132.882812 119.472656 C 133.191406 119.148438 133.292969 118.863281 133.4375 118.4375 C 133.5 117.832031 133.488281 117.226562 133.488281 116.621094 L 133.492188 116.132812 C 133.496094 115.011719 133.316406 114.035156 132.96875 112.96875 L 132.65625 112.96875 Z M 132.65625 112.34375 " fill-opacity="1" fill-rule="nonzero"/><path fill="#003e52" d="M 107.34375 110.3125 C 107.554688 110.738281 107.492188 111.109375 107.472656 111.574219 C 107.417969 112.980469 107.417969 112.980469 107.804688 114.316406 C 108.394531 115.285156 109.234375 115.984375 110.207031 116.554688 C 111.015625 116.785156 111.816406 116.835938 112.65625 116.875 L 112.65625 117.1875 C 112.324219 117.195312 111.992188 117.203125 111.660156 117.207031 L 111.101562 117.21875 L 110.625 117.1875 L 110.3125 116.875 L 109.835938 116.796875 L 109.375 116.71875 L 109.21875 116.40625 L 108.867188 116.203125 C 108.375 115.898438 108.035156 115.59375 107.65625 115.15625 C 107.394531 114.621094 107.394531 114.621094 107.1875 114.0625 L 107.023438 113.632812 C 106.851562 113.046875 106.828125 112.535156 106.828125 111.921875 L 106.816406 111.308594 L 106.875 110.78125 C 107.113281 110.476562 107.113281 110.476562 107.34375 110.3125 M 98.125 113.125 L 98.59375 113.28125 C 98.933594 114.042969 99.125 114.785156 99.292969 115.601562 C 99.414062 116.101562 99.632812 116.558594 99.84375 117.03125 L 100.15625 118.125 C 100.265625 118.378906 100.378906 118.628906 100.492188 118.882812 C 100.933594 119.992188 101.296875 121.152344 101.40625 122.34375 L 101.71875 122.34375 L 101.71875 122.03125 C 102.253906 121.476562 102.898438 120.953125 103.59375 120.625 L 104.0625 120.78125 L 103.75 120.78125 L 103.75 121.09375 C 102.851562 121.5625 102.851562 121.5625 102.5 121.5625 L 102.1875 122.1875 L 101.875 122.1875 L 101.71875 122.65625 L 101.25 122.5 C 101.074219 122.101562 100.933594 121.714844 100.800781 121.300781 C 100.707031 121.019531 100.613281 120.738281 100.519531 120.457031 L 100.351562 119.960938 C 100.117188 119.257812 99.875 118.554688 99.632812 117.855469 L 98.929688 115.820312 C 98.796875 115.433594 98.664062 115.046875 98.53125 114.65625 L 98.40625 114.296875 C 98.125 113.472656 98.125 113.472656 98.125 113.125 " fill-opacity="1" fill-rule="nonzero"/><path fill="#002c3b" d="M 115.15625 139.84375 C 115.761719 140.128906 116.28125 140.496094 116.824219 140.882812 C 117.339844 141.183594 117.8125 141.242188 118.402344 141.269531 L 118.867188 141.265625 L 119.371094 141.265625 L 119.890625 141.261719 L 120.421875 141.257812 C 120.855469 141.253906 121.285156 141.253906 121.71875 141.25 L 121.5625 141.875 C 120.359375 142.207031 118.898438 142.1875 117.683594 141.941406 C 116.6875 141.546875 115.890625 140.757812 115.15625 140 Z M 115.15625 139.84375 " fill-opacity="1" fill-rule="nonzero"/><path fill="#003e52" d="M 113.90625 107.8125 C 114.332031 107.871094 114.644531 107.941406 115.015625 108.167969 C 115.621094 108.679688 116.011719 109.121094 116.308594 109.863281 C 116.394531 110.117188 116.480469 110.371094 116.5625 110.625 L 116.730469 111.007812 C 116.996094 111.746094 116.957031 112.503906 116.875 113.28125 C 116.726562 113.746094 116.546875 114.144531 116.25 114.53125 L 115.78125 114.84375 L 115.882812 114.527344 C 116.257812 113.285156 116.417969 112.199219 116.148438 110.917969 C 115.917969 110.121094 115.667969 109.5 115.078125 108.90625 C 114.898438 108.746094 114.714844 108.589844 114.53125 108.4375 Z M 122.5 109.375 C 122.761719 109.769531 122.886719 110.023438 123.027344 110.460938 L 123.144531 110.8125 C 123.222656 111.058594 123.300781 111.304688 123.378906 111.550781 C 123.417969 111.667969 123.453125 111.785156 123.496094 111.90625 L 123.597656 112.226562 L 123.75 112.5 C 124.066406 112.695312 124.066406 112.695312 124.375 112.8125 L 124.484375 112.550781 C 124.75 112.074219 125.050781 111.753906 125.46875 111.40625 C 125.832031 111.4375 125.832031 111.4375 126.09375 111.5625 L 125.625 111.71875 L 125.488281 112.070312 C 125.261719 112.625 125 112.910156 124.53125 113.28125 C 124.015625 113.332031 124.015625 113.332031 123.59375 113.28125 L 123.59375 112.96875 L 123.28125 112.96875 C 123.070312 112.546875 123.113281 112.1875 123.125 111.71875 L 122.8125 111.71875 L 122.707031 110.757812 L 122.65625 110.46875 L 122.5 110.3125 C 122.492188 110 122.492188 109.6875 122.5 109.375 " fill-opacity="1" fill-rule="nonzero"/><path fill="#002c3b" d="M 120.703125 105.136719 L 121.09375 105.3125 C 121.628906 106.167969 121.914062 107.097656 122.214844 108.054688 C 122.308594 108.425781 122.308594 108.425781 122.5 108.59375 C 122.507812 108.855469 122.507812 109.113281 122.5 109.375 L 122.1875 109.21875 C 122.019531 108.855469 122.019531 108.855469 121.855469 108.398438 L 121.6875 107.945312 C 121.566406 107.511719 121.539062 107.167969 121.5625 106.71875 L 121.25 106.71875 L 121.25 105.9375 C 120.714844 105.8125 120.363281 105.769531 119.828125 105.902344 L 119.347656 106.082031 C 118.476562 106.40625 118.476562 106.40625 117.96875 106.40625 L 118.125 105.9375 C 118.460938 105.800781 118.460938 105.800781 118.878906 105.695312 C 119.492188 105.53125 120.078125 105.167969 120.703125 105.136719 " fill-opacity="1" fill-rule="nonzero"/><path fill="#00131a" d="M 113.75 134.6875 C 113.265625 135.007812 112.847656 135.167969 112.300781 135.355469 L 112.007812 135.457031 C 111.804688 135.527344 111.601562 135.597656 111.394531 135.664062 C 111.089844 135.769531 110.78125 135.875 110.476562 135.980469 C 107.417969 137.03125 107.417969 137.03125 106.71875 137.03125 L 106.71875 136.71875 L 107.03125 136.667969 L 107.453125 136.59375 L 107.863281 136.519531 C 108.328125 136.394531 108.65625 136.195312 109.0625 135.9375 C 110.5 135.171875 112.101562 134.628906 113.75 134.6875 " fill-opacity="1" fill-rule="nonzero"/><path fill="#003e52" d="M 123.90625 134.375 C 124.21875 134.6875 124.21875 134.6875 124.375 135.15625 C 124.515625 138.207031 124.515625 138.207031 124.0625 139.21875 C 123.523438 140.089844 122.925781 140.746094 122.03125 141.25 L 121.71875 141.09375 L 121.875 140.78125 L 122.335938 140.644531 L 122.8125 140.46875 C 123.03125 140.175781 123.03125 140.175781 123.125 139.84375 L 123.28125 139.375 L 123.59375 139.21875 C 123.910156 138.136719 123.945312 137.128906 123.925781 136.007812 L 123.921875 135.527344 C 123.917969 135.144531 123.914062 134.757812 123.90625 134.375 M 114.0625 134.21875 C 114.242188 134.578125 114.238281 134.777344 114.234375 135.175781 L 114.234375 135.558594 L 114.230469 135.957031 L 114.226562 136.359375 C 114.222656 136.6875 114.222656 137.015625 114.21875 137.34375 L 114.53125 137.34375 L 114.6875 138.59375 L 115 138.59375 L 115 139.53125 C 114.546875 139.121094 114.347656 138.714844 114.160156 138.128906 C 114.007812 137.386719 113.980469 136.640625 113.953125 135.886719 C 113.941406 135.589844 113.925781 135.296875 113.90625 135 L 113.75 134.84375 C 113.445312 134.855469 113.445312 134.855469 113.097656 134.902344 C 112.96875 134.917969 112.84375 134.933594 112.714844 134.949219 C 112.277344 135.007812 111.839844 135.078125 111.40625 135.15625 L 111.5625 134.84375 C 111.925781 134.675781 111.925781 134.675781 112.382812 134.511719 L 112.835938 134.34375 C 113.269531 134.222656 113.613281 134.195312 114.0625 134.21875 " fill-opacity="1" fill-rule="nonzero"/><path fill="#00131a" d="M 124.53125 135.3125 L 124.6875 135.3125 C 124.804688 138.449219 124.804688 138.449219 124.28125 139.507812 C 123.734375 140.347656 123.144531 141.046875 122.285156 141.570312 C 121.875 141.71875 121.875 141.71875 121.5625 141.71875 L 121.71875 141.25 C 121.972656 141.078125 121.972656 141.078125 122.296875 140.910156 C 123.027344 140.46875 123.464844 139.945312 123.90625 139.21875 C 124.546875 138.007812 124.488281 136.65625 124.53125 135.3125 " fill-opacity="1" fill-rule="nonzero"/><path fill="#002c3b" d="M 133.4375 117.5 L 133.59375 117.5 C 133.574219 117.726562 133.554688 117.949219 133.535156 118.175781 C 133.523438 118.300781 133.511719 118.425781 133.503906 118.554688 C 133.4375 118.90625 133.4375 118.90625 133.125 119.375 L 132.8125 119.375 L 132.707031 119.648438 C 132.445312 120.09375 132.136719 120.332031 131.71875 120.625 L 131.40625 120.625 L 131.25 121.09375 C 130.796875 121.269531 130.359375 121.269531 129.878906 121.265625 L 129.460938 121.265625 L 129.023438 121.261719 L 128.582031 121.257812 C 128.21875 121.253906 127.859375 121.253906 127.5 121.25 L 127.5 121.09375 L 130.78125 120.9375 L 130.78125 120.625 L 131.25 120.46875 L 131.40625 120.15625 L 132.242188 119.699219 C 132.53125 119.535156 132.53125 119.535156 132.722656 119.179688 L 132.8125 118.90625 L 133.125 118.90625 L 133.195312 118.378906 C 133.28125 117.8125 133.28125 117.8125 133.4375 117.5 " fill-opacity="1" fill-rule="nonzero"/><path fill="#003e52" d="M 104.375 130 C 104.707031 130.042969 104.707031 130.042969 105.089844 130.128906 C 105.214844 130.152344 105.339844 130.179688 105.46875 130.207031 L 105.78125 130.3125 L 105.9375 130.625 L 104.375 130.46875 L 104.6875 131.09375 C 104.707031 131.601562 104.707031 131.601562 104.6875 132.03125 L 105 132.03125 L 105 132.65625 L 105.3125 132.65625 L 105.625 134.0625 L 105.15625 133.90625 C 105.003906 133.613281 105.003906 133.613281 104.871094 133.230469 L 104.726562 132.8125 L 104.429688 131.9375 C 104.210938 131.304688 104.0625 130.835938 104.0625 130.15625 Z M 104.375 130 " fill-opacity="1" fill-rule="nonzero"/><path fill="#00131a" d="M 107.34375 110.3125 C 107.640625 110.910156 107.496094 111.695312 107.480469 112.355469 C 107.46875 113.148438 107.558594 113.78125 107.8125 114.53125 L 107.5 114.53125 C 107.214844 114.222656 107.050781 113.976562 106.941406 113.566406 C 106.859375 113.019531 106.84375 112.488281 106.835938 111.933594 L 106.824219 111.3125 L 106.875 110.78125 C 107.113281 110.476562 107.113281 110.476562 107.34375 110.3125 " fill-opacity="1" fill-rule="nonzero"/><path fill="#003e52" d="M 107.34375 110 L 107.34375 110.46875 L 107.03125 110.46875 L 106.875 113.125 L 106.71875 113.125 L 106.71875 110.46875 L 105 110.78125 L 105 111.09375 L 104.375 110.78125 C 106.324219 109.882812 106.324219 109.882812 107.34375 110 M 129.21875 110.625 C 130.4375 110.773438 131.34375 111.167969 132.34375 111.875 L 132.65625 112.1875 C 132.675781 112.597656 132.675781 112.597656 132.65625 112.96875 L 132.96875 112.96875 C 133.234375 113.445312 133.429688 113.804688 133.46875 114.355469 L 133.4375 114.6875 L 133.320312 114.433594 C 133.121094 114.035156 133.121094 114.035156 132.792969 113.59375 L 132.5 113.125 L 132.5 112.5 L 132.03125 112.34375 L 131.71875 111.875 C 131.335938 111.652344 131.335938 111.652344 130.890625 111.464844 C 130.742188 111.398438 130.59375 111.332031 130.441406 111.261719 C 130.03125 111.105469 129.652344 111.007812 129.21875 110.9375 Z M 129.21875 110.625 " fill-opacity="1" fill-rule="nonzero"/><path fill="#002c3b" d="M 132.65625 112.34375 C 133.21875 113.023438 133.730469 113.652344 133.90625 114.53125 C 133.917969 114.769531 133.921875 115.003906 133.921875 115.242188 L 133.921875 115.640625 L 133.917969 116.054688 L 133.914062 116.476562 C 133.910156 116.816406 133.910156 117.160156 133.90625 117.5 L 133.59375 117.5 L 133.574219 116.945312 C 133.523438 115.5625 133.429688 114.285156 132.96875 112.96875 L 132.65625 112.96875 Z M 132.65625 112.34375 " fill-opacity="1" fill-rule="nonzero"/><path fill="#003e52" d="M 100.46875 120 C 100.9375 120.3125 100.9375 120.3125 101.085938 120.589844 C 101.304688 121.191406 101.46875 121.691406 101.40625 122.34375 L 101.71875 122.34375 L 101.71875 122.03125 C 102.253906 121.476562 102.898438 120.953125 103.59375 120.625 L 104.0625 120.78125 L 103.75 120.78125 L 103.75 121.09375 C 102.851562 121.5625 102.851562 121.5625 102.5 121.5625 L 102.1875 122.1875 L 101.875 122.1875 L 101.71875 122.65625 L 101.25 122.5 C 101.089844 122.144531 100.949219 121.785156 100.832031 121.417969 L 100.722656 121.109375 C 100.46875 120.363281 100.46875 120.363281 100.46875 120 " fill-opacity="1" fill-rule="nonzero"/><path fill="#00131a" d="M 105.410156 120.617188 L 105.789062 120.617188 C 106.097656 120.621094 106.410156 120.621094 106.71875 120.625 L 106.71875 120.78125 L 106.296875 120.78125 C 105.324219 120.8125 104.515625 120.863281 103.664062 121.359375 C 103.050781 121.773438 102.636719 122.230469 102.1875 122.8125 L 101.71875 122.96875 L 101.71875 122.5 C 102.121094 121.933594 102.398438 121.621094 103 121.269531 C 103.4375 121.09375 103.4375 121.09375 103.75 121.09375 L 103.75 120.78125 C 104.265625 120.523438 104.84375 120.609375 105.410156 120.617188 " fill-opacity="1" fill-rule="nonzero"/><path fill="#003e52" d="M 113.90625 107.8125 C 114.339844 107.871094 114.648438 107.945312 115.019531 108.179688 C 115.5625 108.644531 115.988281 109.046875 116.261719 109.71875 C 116.40625 110.3125 116.40625 110.3125 116.335938 110.664062 L 116.25 110.9375 L 116.132812 110.644531 C 115.671875 109.601562 115.097656 108.964844 114.21875 108.238281 L 113.90625 107.96875 Z M 113.90625 107.8125 " fill-opacity="1" fill-rule="nonzero"/><path fill="#002c3b" d="M 104.375 120.3125 C 105.296875 120.191406 106.203125 120.191406 107.089844 120.488281 C 107.496094 120.675781 107.890625 120.871094 108.28125 121.09375 L 108.28125 121.40625 C 108.050781 121.332031 107.820312 121.257812 107.589844 121.183594 L 107.199219 121.054688 C 106.875 120.9375 106.875 120.9375 106.71875 120.78125 C 106.273438 120.746094 105.828125 120.714844 105.382812 120.695312 L 105 120.671875 C 104.6875 120.65625 104.375 120.640625 104.0625 120.625 Z M 104.375 120.3125 " fill-opacity="1" fill-rule="nonzero"/><path fill="#00131a" d="M 126.875 130.3125 L 122.65625 131.71875 L 122.5 132.03125 L 122.5 131.40625 C 122.742188 131.300781 122.988281 131.195312 123.234375 131.09375 L 123.644531 130.917969 C 124.070312 130.777344 124.398438 130.753906 124.84375 130.78125 L 124.84375 130.46875 C 125.066406 130.410156 125.285156 130.355469 125.507812 130.304688 L 125.882812 130.210938 C 126.269531 130.152344 126.503906 130.207031 126.875 130.3125 " fill-opacity="1" fill-rule="nonzero"/><path fill="#002c3b" d="M 122.5 109.375 C 122.757812 109.761719 122.894531 110.03125 123.042969 110.460938 L 123.164062 110.8125 L 123.292969 111.183594 C 123.375 111.421875 123.457031 111.664062 123.539062 111.90625 L 123.652344 112.226562 C 123.75 112.511719 123.75 112.511719 123.90625 112.8125 L 123.4375 112.8125 L 123.125 112.34375 L 123.125 111.71875 L 122.8125 111.71875 L 122.707031 110.757812 L 122.65625 110.46875 L 122.5 110.3125 C 122.492188 110 122.492188 109.6875 122.5 109.375 " fill-opacity="1" fill-rule="nonzero"/><path fill="#00131a" d="M 128.90625 127.96875 C 129.140625 128.234375 129.140625 128.234375 129.375 128.59375 C 129.40625 129.023438 129.40625 129.023438 129.375 129.375 C 129.066406 129.488281 128.761719 129.605469 128.453125 129.71875 C 128.195312 129.816406 127.9375 129.925781 127.6875 130.039062 L 127.34375 130.15625 L 126.875 130 L 127.34375 129.6875 L 127.96875 129.6875 L 127.96875 129.375 L 128.351562 129.25 L 128.75 129.0625 C 128.9375 128.578125 128.9375 128.578125 128.90625 127.96875 " fill-opacity="1" fill-rule="nonzero"/><path fill="#003e52" d="M 107.65625 120.78125 L 108.4375 120.9375 L 108.59375 121.40625 L 108.90625 121.40625 C 109.214844 121.730469 109.214844 121.730469 109.5625 122.160156 L 109.910156 122.582031 L 110.15625 122.96875 L 110 123.4375 L 109.742188 123.105469 L 109.402344 122.675781 L 109.070312 122.246094 C 108.757812 121.847656 108.757812 121.847656 108.28125 121.5625 L 108.125 121.09375 Z M 109.375 116.40625 C 110.429688 116.542969 110.429688 116.542969 110.78125 116.71875 C 111.097656 116.753906 111.417969 116.78125 111.738281 116.808594 L 112.257812 116.847656 L 112.65625 116.875 L 112.65625 117.1875 C 112.324219 117.195312 111.992188 117.203125 111.660156 117.207031 L 111.101562 117.21875 L 110.625 117.1875 L 110.3125 116.875 C 110 116.8125 109.6875 116.761719 109.375 116.71875 Z M 121.875 108.28125 C 122.347656 108.753906 122.476562 109.300781 122.6875 109.933594 C 122.8125 110.46875 122.8125 110.46875 122.753906 110.851562 L 122.65625 111.09375 C 122.375 110.761719 122.199219 110.503906 122.074219 110.089844 L 122.003906 109.6875 C 121.976562 109.554688 121.953125 109.421875 121.925781 109.289062 C 121.875 108.90625 121.875 108.90625 121.875 108.28125 " fill-opacity="1" fill-rule="nonzero"/><path fill="#002c3b" d="M 109.570312 135.691406 L 109.84375 135.78125 C 109.023438 136.164062 108.230469 136.527344 107.34375 136.71875 C 107 136.648438 107 136.648438 106.71875 136.5625 C 107.121094 136.402344 107.523438 136.242188 107.929688 136.082031 L 108.273438 135.945312 L 108.609375 135.816406 L 108.917969 135.691406 C 109.21875 135.625 109.21875 135.625 109.570312 135.691406 " fill-opacity="1" fill-rule="nonzero"/><path fill="#003e52" d="M 107.34375 110 L 107.34375 110.46875 L 107.03125 110.46875 L 106.875 113.125 L 106.71875 113.125 L 106.71875 110.3125 L 106.40625 110.15625 C 106.730469 110.070312 107.007812 110 107.34375 110 M 113.90625 107.8125 C 114.253906 107.847656 114.253906 107.847656 114.6875 107.96875 C 115.039062 108.292969 115.039062 108.292969 115.363281 108.683594 L 115.691406 109.074219 L 115.9375 109.375 L 115.78125 109.84375 L 115.570312 109.597656 C 115.035156 108.980469 114.492188 108.382812 113.90625 107.8125 " fill-opacity="1" fill-rule="nonzero"/><path fill="#002c3b" d="M 103.59375 120.625 L 104.0625 120.78125 L 103.75 120.78125 L 103.75 121.09375 C 102.851562 121.5625 102.851562 121.5625 102.5 121.5625 L 102.1875 122.1875 L 102.03125 121.875 C 102.511719 121.367188 102.957031 120.925781 103.59375 120.625 " fill-opacity="1" fill-rule="nonzero"/><path fill="#00131a" d="M 122.65625 140.625 L 122.96875 140.78125 C 122.277344 141.53125 122.277344 141.53125 121.828125 141.691406 L 121.5625 141.71875 L 121.71875 141.25 C 122.023438 141.03125 122.335938 140.824219 122.65625 140.625 " fill-opacity="1" fill-rule="nonzero"/><path fill="#003e52" d="M 126.5625 122.1875 C 126.785156 122.363281 126.785156 122.363281 127.03125 122.65625 C 127.144531 123.113281 127.144531 123.113281 127.21875 123.625 L 127.292969 124.136719 L 127.34375 124.53125 L 127.03125 124.375 C 126.9375 124.078125 126.9375 124.078125 126.867188 123.710938 L 126.789062 123.328125 C 126.765625 123.210938 126.742188 123.089844 126.71875 122.96875 L 126.621094 122.492188 Z M 126.5625 122.1875 " fill-opacity="1" fill-rule="nonzero"/><path fill="#002c3b" d="M 107.03125 113.125 L 107.34375 113.125 L 107.8125 114.53125 L 107.5 114.53125 C 107.246094 114.269531 107.246094 114.269531 107.03125 113.90625 C 107.003906 113.476562 107.003906 113.476562 107.03125 113.125 M 133.4375 117.5 L 133.59375 117.5 C 133.578125 117.726562 133.5625 117.949219 133.546875 118.175781 L 133.515625 118.554688 C 133.4375 118.90625 133.4375 118.90625 133.195312 119.1875 L 132.96875 119.375 C 133.015625 119.121094 133.066406 118.867188 133.117188 118.613281 L 133.199219 118.183594 C 133.28125 117.8125 133.28125 117.8125 133.4375 117.5 " fill-opacity="1" fill-rule="nonzero"/><path fill="#003e52" d="M 105.9375 135.9375 L 106.25 135.9375 L 106.40625 136.40625 L 106.71875 136.5625 L 106.71875 137.03125 C 106.417969 136.925781 106.417969 136.925781 106.09375 136.71875 C 105.976562 136.308594 105.976562 136.308594 105.9375 135.9375 " fill-opacity="1" fill-rule="nonzero"/><path fill="#002c3b" d="M 107.65625 114.53125 L 108.125 114.6875 C 108.3125 115.011719 108.3125 115.011719 108.4375 115.3125 L 107.65625 115.15625 Z M 103.59375 120.625 L 104.0625 120.78125 L 103.75 120.78125 L 103.75 121.09375 L 102.96875 121.40625 C 103.105469 121.105469 103.105469 121.105469 103.28125 120.78125 Z M 103.59375 120.625 " fill-opacity="1" fill-rule="nonzero"/></svg>