<?xml version="1.0" encoding="UTF-8"?>
<svg version="1.1" xmlns="http://www.w3.org/2000/svg" width="318" height="177">
<path d="M0 0 C104.94 0 209.88 0 318 0 C318 58.41 318 116.82 318 177 C213.06 177 108.12 177 0 177 C0 118.59 0 60.18 0 0 Z " fill="#4EA1E2" transform="translate(0,0)"/>
<path d="M0 0 C4.66689242 0.22470223 6.61435082 2.2439534 9.60595703 5.50927734 C10.14849121 6.12496582 10.69102539 6.7406543 11.25 7.375 C11.81702637 7.99971191 12.38405273 8.62442383 12.96826172 9.26806641 C17.26240754 14.0405536 21.29845858 18.98326463 25.1953125 24.0859375 C25.79085937 24.71757813 26.38640625 25.34921875 27 26 C30.12778581 26.34113561 30.12778581 26.34113561 32.1640625 23.98046875 C32.97617188 23.05878906 33.78828125 22.13710938 34.625 21.1875 C35.06086426 20.69628662 35.49672852 20.20507324 35.94580078 19.69897461 C39.75359745 15.37305888 43.39712896 10.91392885 46.9921875 6.41015625 C50.8961634 1.72386611 50.8961634 1.72386611 53 0 C54.65 0 56.3  0 58 0 C58 19.14 58 38.28 58 58 C54.04 58 50.08 58 46 58 C45.67 47.44 45.34 36.88 45 26 C39.72 31.61 34.44 37.22 29 43 C21.046875 36.18303571 21.046875 36.18303571 18.1875 32.875 C17.34251953 31.91207031 17.34251953 31.91207031 16.48046875 30.9296875 C15.02235852 29.02914276 13.9908274 27.17498697 13 25 C12.34 25 11.68 25 11 25 C11 35.56 11 46.12 11 57 C7.37 57 3.74 57 0 57 C0 49.08 0 41.16 0 33 C1.65 32.34 3.3 31.68 5 31 C5.33 28.69 5.66 26.38 6 24 C6.78375 23.71125 7.5675 23.4225 8.375 23.125 C11.09671632 22.15087746 11.09671632 22.15087746 13 20 C13.32618658 16.93384617 13.42932497 14.83181713 12 12.0625 C8.65791742 10.28701863 5.65183129 11.34147305 2 12 C-0.60018816 8.09971775 -0.15085514 4.52565431 0 0 Z " fill="#F5FCFD" transform="translate(151,41)"/>
<path d="M0 0 C4.65123401 1.328924 7.99780575 3.3318705 12 6 C17.88756009 8.48782615 23.64029711 8.37485958 29.92382812 8.47851562 C35.33018123 8.65541944 39.32013252 9.17584205 44 12 C47.98715528 17.23479162 48.7509225 21.98588354 49.25 28.4375 C49.32734375 29.26443359 49.4046875 30.09136719 49.484375 30.94335938 C49.67097133 32.9609322 49.83757214 34.98033778 50 37 C47.18918055 34.35232364 45.86039586 31.86847698 44.3125 28.3125 C43.87550781 27.31863281 43.43851563 26.32476562 42.98828125 25.30078125 C42.49908203 24.16189453 42.49908203 24.16189453 42 23 C42.44602543 29.9603442 43.07785526 36.84352019 44.0625 43.75 C44.83182112 49.24922135 45.19456218 54.45497777 45 60 C40.68771007 56.1950383 38.11180096 52.03584079 35.33203125 47.01171875 C34.89246094 46.34785156 34.45289063 45.68398437 34 45 C33.34 45 32.68 45 32 45 C30.24924221 47.23872238 28.61098791 49.47656754 27 51.8125 C26.54882812 52.45509766 26.09765625 53.09769531 25.6328125 53.75976562 C23.72271892 56.48645247 21.84679755 59.22980367 20 62 C19.34 61.67 18.68 61.34 18 61 C18.26554687 60.10539062 18.53109375 59.21078125 18.8046875 58.2890625 C25.28355412 38.09715488 25.28355412 38.09715488 22 18 C19.63363287 16.53658875 17.21725333 15.43047293 14.671875 14.30859375 C8.22206745 11.14969677 3.58610694 6.12626601 0 0 Z " fill="#F7FCFD" transform="translate(92,37)"/>
<path d="M0 0 C0.99 2.31 1.98 4.62 3 7 C3.33 6.67 3.66 6.34 4 6 C7.4375 5.8125 7.4375 5.8125 11 6 C13.32528287 8.32528287 13.29511025 8.84665898 13.3125 12 C13.32925781 12.70125 13.34601563 13.4025 13.36328125 14.125 C13.24339844 14.74375 13.12351563 15.3625 13 16 C10 18 10 18 6 18 C6.495 19.11375 6.495 19.11375 7 20.25 C8 23 8 23 8 27 C5.69 27.66 3.38 28.32 1 29 C1.66 29.99 2.32 30.98 3 32 C2.54716981 38.45283019 2.54716981 38.45283019 0 41 C-3.13704316 41.333728 -5.16554166 41.52849028 -7.875 39.8125 C-9.34781139 37.43963721 -9.22223194 35.74086056 -9 33 C-11.97 33.66 -14.94 34.32 -18 35 C-20 32 -20 32 -20 28 C-18.7934375 27.5359375 -18.7934375 27.5359375 -17.5625 27.0625 C-15.10919595 26.23664655 -15.10919595 26.23664655 -14 25 C-13.66656449 22.54207971 -13.66656449 22.54207971 -14 20 C-17.8503105 17.43312633 -19.58569763 18.16711276 -24 19 C-24.50367757 17.54293274 -25.00282556 16.08429904 -25.5 14.625 C-25.7784375 13.81289063 -26.056875 13.00078125 -26.34375 12.1640625 C-27 10 -27 10 -27 8 C-25.70990357 7.49596232 -24.41786211 6.99690074 -23.125 6.5 C-22.04605469 6.08234375 -22.04605469 6.08234375 -20.9453125 5.65625 C-19 5 -19 5 -17 5 C-17 6.65 -17 8.3 -17 10 C-14.03 10.33 -11.06 10.66 -8 11 C-8 9.906875 -8 8.81375 -8 7.6875 C-8 5.45833333 -8 3.22916667 -8 1 C-5.10765685 0.17361624 -3.11257569 0 0 0 Z " fill="#094C69" transform="translate(84,10)"/>
<!-- Remaining paths omitted for brevity; identical to Logo2.svg -->
</svg>


