<?xml version="1.0" encoding="UTF-8"?>
<svg version="1.1" xmlns="http://www.w3.org/2000/svg" width="167" height="91">
<path d="M0 0 C55.11 0 110.22 0 167 0 C167 30.03 167 60.06 167 91 C111.89 91 56.78 91 0 91 C0 60.97 0 30.94 0 0 Z " fill="#54A6DE" transform="translate(0,0)"/>
<path d="M0 0 C9.9 0 19.8 0 30 0 C30.99 2.97 31.98 5.94 33 9 C33.33 8.67 33.66 8.34 34 8 C40.14340344 7.54493308 40.14340344 7.54493308 43 9.0625 C44.63378851 12.22796524 43.85267564 14.65020286 43 18 C40 20 40 20 36 20 C37.59046594 28.59217235 41.30987609 34.38219382 48 40 C51.36724885 41.91312191 54.7251141 43.59534191 58.27734375 45.13671875 C61 47 61 47 62.34765625 50.328125 C64.80658522 64.16880302 61.55773441 76.88960412 57 90 C56 91 56 91 53.75376892 91.12025452 C52.76115555 91.11803391 51.76854218 91.11581329 50.74584961 91.11352539 C49.60901733 91.11340454 48.47218506 91.11328369 47.30090332 91.11315918 C46.09687866 91.10804321 44.892854 91.10292725 43.65234375 91.09765625 C42.55249146 91.09664917 41.45263916 91.09564209 40.31945801 91.09460449 C36.19212814 91.08935362 32.06481307 91.07539251 27.9375 91.0625 C18.718125 91.041875 9.49875 91.02125 0 91 C0 60.97 0 30.94 0 0 Z " fill="#50A4DF" transform="translate(0,0)"/>
<path d="M0 0 C4.66689242 0.22470223 6.61435082 2.2439534 9.60595703 5.50927734 C10.14849121 6.12496582 10.69102539 6.7406543 11.25 7.375 C11.81702637 7.99971191 12.38405273 8.62442383 12.96826172 9.26806641 C17.26240754 14.0405536 21.29845858 18.98326463 25.1953125 24.0859375 C25.79085937 24.71757813 26.38640625 25.34921875 27 26 C30.12778581 26.34113561 30.12778581 26.34113561 32.1640625 23.98046875 C32.97617188 23.05878906 33.78828125 22.13710938 34.625 21.1875 C35.06086426 20.69628662 35.49672852 20.20507324 35.94580078 19.69897461 C39.75359745 15.37305888 43.39712896 10.91392885 46.9921875 6.41015625 C50.8961634 1.72386611 50.8961634 1.72386611 53 0 C54.65 0 56.3 0 58 0 C58 19.14 58 38.28 58 58 C54.04 58 50.08 58 46 58 C45.67 47.44 45.34 36.88 45 26 C39.72 31.61 34.44 37.22 29 43 C21.046875 36.18303571 21.046875 36.18303571 18.1875 32.875 C17.34251953 31.91207031 17.34251953 31.91207031 16.48046875 30.9296875 C15.02235852 29.02914276 13.9908274 27.17498697 13 25 C12.34 25 11.68 25 11 25 C11 35.56 11 46.12 11 57 C7.37 57 3.74 57 0 57 C0 49.08 0 41.16 0 33 C1.65 32.34 3.3 31.68 5 31 C5.33 28.69 5.66 26.38 6 24 C6.78375 23.71125 7.5675 23.4225 8.375 23.125 C11.09671632 22.15087746 11.09671632 22.15087746 13 20 C13.32618658 16.93384617 13.42932497 14.83181713 12 12.0625 C8.65791742 10.28701863 5.65183129 11.34147305 2 12 C-0.60018816 8.09971775 -0.15085514 4.52565431 0 0 Z " fill="#F5FCFD" transform="translate(97,33)"/>
<path d="M0 0 C4.65123401 1.328924 7.99780575 3.3318705 12 6 C17.88756009 8.48782615 23.64029711 8.37485958 29.92382812 8.47851562 C35.3284151 8.65536165 39.21842877 9.40691714 44 12 C49.4838265 19.1141533 50.39020515 28.22038403 50 37 C47.08975798 34.49941082 45.83208836 31.80344623 44.3125 28.3125 C43.87550781 27.31863281 43.43851563 26.32476562 42.98828125 25.30078125 C42.49908203 24.16189453 42.49908203 24.16189453 42 23 C42.48666635 29.76210084 43.16736579 36.46924887 44.0625 43.1875 C44.8087763 48.83673135 45.2035377 54.30094439 45 60 C40.68771007 56.1950383 38.11180096 52.03584079 35.33203125 47.01171875 C34.89246094 46.34785156 34.45289063 45.68398437 34 45 C33.34 45 32.68 45 32 45 C30.35172402 47.00895906 30.35172402 47.00895906 28.6875 49.5625 C28.07132813 50.46871094 27.45515625 51.37492187 26.8203125 52.30859375 C26.21960938 53.19675781 25.61890625 54.08492187 25 55 C24.02597982 56.37865045 23.04762801 57.75426474 22.0625 59.125 C21.381875 60.07375 20.70125 61.0225 20 62 C19.34 61.67 18.68 61.34 18 61 C18.18175781 60.40687012 18.36351563 59.81374023 18.55078125 59.20263672 C23.65665822 42.40775232 23.65665822 42.40775232 24 25 C23.98453125 24.27683594 23.9690625 23.55367187 23.953125 22.80859375 C23.83823265 20.68677258 23.83823265 20.68677258 22 18 C19.15694392 16.42454854 16.23682189 15.1333498 13.265625 13.81640625 C7.68059014 10.70989762 3.87680249 6.03469703 0 1 C0 0.67 0 0.34 0 0 Z " fill="#F7FCFD" transform="translate(38,29)"/>
<path d="M0 0 C1.75 3.0625 1.75 3.0625 3 6 C3.33 5.67 3.66 5.34 4 5 C10.14340344 4.54493308 10.14340344 4.54493308 13 6.0625 C14.63378851 9.22796524 13.85267564 11.65020286 13 15 C10 17 10 17 6 17 C6.66 19.97 7.32 22.94 8 26 C5.69 26.66 3.38 27.32 1 28 C1.66 28.99 2.32 29.98 3 31 C2.54716981 37.45283019 2.54716981 37.45283019 0 40 C-3.13704316 40.333728 -5.16554166 40.52849028 -7.875 38.8125 C-9.34781139 36.43963721 -9.22223194 34.74086056 -9 32 C-11.97 32.66 -14.94 33.32 -18 34 C-18.66 31.69 -19.32 29.38 -20 27 C-18.7934375 26.5359375 -18.7934375 26.5359375 -17.5625 26.0625 C-15.10919595 25.23664655 -15.10919595 25.23664655 -14 24 C-13.66656449 21.54207971 -13.66656449 21.54207971 -14 19 C-17.8503105 16.43312633 -19.58569763 17.16711276 -24 18 C-24.50367757 16.54293274 -25.00282556 15.08429904 -25.5 13.625 C-25.7784375 12.81289062 -26.056875 12.00078125 -26.34375 11.1640625 C-27 9 -27 9 -27 7 C-22.05 5.515 -22.05 5.515 -17 4 C-17 5.65 -17 7.3 -17 9 C-14.03 9.33 -11.06 9.66 -8 10 C-8 8.906875 -8 7.81375 -8 6.6875 C-8 4.45833333 -8 2.22916667 -8 0 C-4.98451521 -0.96926297 -2.90823905 -1.40721244 0 0 Z " fill="#0A4C69" transform="translate(30,3)"/>
<path d="M0 0 C2.50037734 2.17424117 3.43628586 3.73045798 4 7 C3.34 7 2.68 7 2 7 C2.47618832 10.08380096 2.95647268 13.16695046 3.4375 16.25 C3.57220703 17.12269531 3.70691406 17.99539062 3.84570312 18.89453125 C4.04389648 20.16103516 4.04389648 20.16103516 4.24609375 21.453125 C4.36654053 22.22817383 4.4869873 23.00322266 4.61108398 23.80175781 C4.97995411 25.88669606 5.48647512 27.94590048 6 30 C5.67 33.3 5.34 36.6 5 40 C-3.58 40 -12.16 40 -21 40 C-19.60820733 37.21641466 -18.39906839 35.0140947 -16.6171875 32.546875 C-16.17246094 31.928125 -15.72773437 31.309375 -15.26953125 30.671875 C-14.80933594 30.03765625 -14.34914063 29.4034375 -13.875 28.75 C-13.17310547 27.77546875 -13.17310547 27.77546875 -12.45703125 26.78125 C-11.30725718 25.18564517 -10.15397434 23.59256975 -9 22 C-5.23528557 23.25490481 -4.9056298 24.42305949 -3 27.8125 C-1.16506913 31.04752136 0.70513814 34.06995316 3 37 C2.53477189 27.68319494 1.78612787 18.5366487 0.40234375 9.3046875 C0.0198972 6.16342753 -0.07204482 3.16036603 0 0 Z " fill="#5CACDC" transform="translate(79,51)"/>
<path d="M0 0 C2.5 2.0625 2.5 2.0625 4 5 C3.9375 8.6875 3.9375 8.6875 3 12 C-0.7762638 14.5175092 -3.56353277 14.73941121 -8 14 C-10.6923481 11.81246717 -10.93936827 10.41576045 -11.4375 7 C-11 4 -11 4 -9.4375 1.625 C-6.04129157 -0.63913895 -3.99900698 -0.64269755 0 0 Z " fill="#F3FAFD" transform="translate(74,22)"/>
<path d="M0 0 C0.66 0 1.32 0 2 0 C3.625 2.5 3.625 2.5 5 5 C4.01 5.495 4.01 5.495 3 6 C2.67 14.91 2.34 23.82 2 33 C-2.62 33 -7.24 33 -12 33 C-12 25.08 -12 17.16 -12 9 C-11.67 9 -11.34 9 -11 9 C-11 16.59 -11 24.18 -11 32 C-7.37 32 -3.74 32 0 32 C0 21.44 0 10.88 0 0 Z " fill="#85BCD9" transform="translate(108,58)"/>
<path d="M0 0 C0.99 0.33 1.98 0.66 3 1 C3.02696365 2.79158489 3.04637917 4.58328473 3.0625 6.375 C3.07410156 7.37273438 3.08570312 8.37046875 3.09765625 9.3984375 C3 12 3 12 2 14 C3.32 14.33 4.64 14.66 6 15 C5.67 15.66 5.34 16.32 5 17 C4.21367188 16.68289062 3.42734375 16.36578125 2.6171875 16.0390625 C-1.91556757 14.73699679 -6.18278778 14.54459803 -10.875 14.375 C-11.75414063 14.33632813 -12.63328125 14.29765625 -13.5390625 14.2578125 C-15.69238793 14.16418966 -17.84616414 14.08103541 -20 14 C-20 13.67 -20 13.34 -20 13 C-18.73542969 12.89042969 -17.47085938 12.78085937 -16.16796875 12.66796875 C-14.50774514 12.50851225 -12.84759233 12.34831749 -11.1875 12.1875 C-10.35412109 12.11724609 -9.52074219 12.04699219 -8.66210938 11.97460938 C-7.85966797 11.89404297 -7.05722656 11.81347656 -6.23046875 11.73046875 C-5.49207764 11.66239014 -4.75368652 11.59431152 -3.99291992 11.52416992 C-1.54478387 10.88027085 -0.54933988 9.97632331 1 8 C1.14787017 5.92939512 1.14787017 5.92939512 0.6875 3.8125 C0.460625 2.554375 0.23375 1.29625 0 0 Z " fill="#7AAECF" transform="translate(76,24)"/>
<path d="M0 0 C2.50037734 2.17424117 3.43628586 3.73045798 4 7 C3.34 7 2.68 7 2 7 C2.47618832 10.08380096 2.95647268 13.16695046 3.4375 16.25 C3.57220703 17.12269531 3.70691406 17.99539062 3.84570312 18.89453125 C3.97783203 19.73886719 4.10996094 20.58320312 4.24609375 21.453125 C4.36654053 22.22817383 4.4869873 23.00322266 4.61108398 23.80175781 C4.97061005 26.00217067 4.97061005 26.00217067 5.5546875 28.13671875 C6.11494491 30.48095371 5.87772278 32.36831675 5.5625 34.75 C5.46066406 35.54921875 5.35882813 36.3484375 5.25390625 37.171875 C5.17011719 37.77515625 5.08632812 38.3784375 5 39 C4.34 38.67 3.68 38.34 3 38 C3.0309375 36.75605469 3.061875 35.51210937 3.09375 34.23046875 C3.09375 28.51218074 2.31303416 22.96345367 1.5 17.3125 C-0.21483746 5.2545663 -0.21483746 5.2545663 0 0 Z " fill="#73B0D4" transform="translate(79,51)"/>
<path d="M0 0 C4.61513112 1.31860889 8.09897612 3.21355437 12 6 C11.814375 6.61875 11.62875 7.2375 11.4375 7.875 C10.76313824 10.04160178 10.76313824 10.04160178 12 12 C8.35865951 10.49917723 6.31243814 8.39379438 3.75 5.4375 C3.04359375 4.63183594 2.3371875 3.82617188 1.609375 2.99609375 C0 1 0 1 0 0 Z " fill="#D8F2FB" transform="translate(38,29)"/>
<path d="M0 0 C0.33 0 0.66 0 1 0 C2.22899346 6.06815522 3.27560214 11.79895188 3 18 C-0.44216672 15.3401439 -0.99504674 12.09711714 -2 8 C-1.34 8 -0.68 8 0 8 C0 5.36 0 2.72 0 0 Z " fill="#D3EDF7" transform="translate(85,48)"/>
<path d="M0 0 C0 3 0 3 -1.5 4.6875 C-1.995 5.120625 -2.49 5.55375 -3 6 C-3.99 5.67 -4.98 5.34 -6 5 C-6 7.64 -6 10.28 -6 13 C-7.32 12.67 -8.64 12.34 -10 12 C-9.34 11.67 -8.68 11.34 -8 11 C-7.59270772 8.67843403 -7.25561323 6.3431213 -7 4 C-5.824375 3.566875 -5.824375 3.566875 -4.625 3.125 C-1.90328368 2.15087746 -1.90328368 2.15087746 0 0 Z " fill="#D4F1FB" transform="translate(110,53)"/>
<path d="M0 0 C0.99 0 1.98 0 3 0 C3.99 2.64 4.98 5.28 6 8 C1.125 6.125 1.125 6.125 0 5 C-0.04063832 3.33382885 -0.042721 1.66611905 0 0 Z " fill="#61A9D6" transform="translate(81,58)"/>
<path d="M0 0 C1.65 1.65 3.3 3.3 5 5 C0.38 5 -4.24 5 -9 5 C-9 4.67 -9 4.34 -9 4 C-7.88625 3.896875 -6.7725 3.79375 -5.625 3.6875 C-4.42875 3.460625 -3.2325 3.23375 -2 3 C-1.34 2.01 -0.68 1.02 0 0 Z " fill="#5EA6D5" transform="translate(63,32)"/>
<path d="M0 0 C0.6875 1.75 0.6875 1.75 1 4 C-0.25 6.25 -0.25 6.25 -2 8 C-2.99 8 -3.98 8 -5 8 C-3.62845496 5.04590299 -2.01136276 2.55991624 0 0 Z " fill="#66ACD5" transform="translate(63,83)"/>
<path d="M0 0 C0.33 0 0.66 0 1 0 C2.45295405 8.19256018 2.45295405 8.19256018 0.5625 11.5625 C0.046875 12.036875 -0.46875 12.51125 -1 13 C-1.66 12.67 -2.32 12.34 -3 12 C-2.01 8.04 -1.02 4.08 0 0 Z " fill="#C9EEFA" transform="translate(59,78)"/>
<path d="M0 0 C0.33 0.66 0.66 1.32 1 2 C-0.98 4.31 -2.96 6.62 -5 9 C-5.66 8.67 -6.32 8.34 -7 8 C-4.69 5.36 -2.38 2.72 0 0 Z " fill="#DEF3FB" transform="translate(149,34)"/>
<path d="M0 0 C2.50037734 2.17424117 3.43628586 3.73045798 4 7 C2.68 6.67 1.36 6.34 0 6 C0 4.02 0 2.04 0 0 Z " fill="#86B3D1" transform="translate(79,51)"/>
<path d="M0 0 C-0.33 2.64 -0.66 5.28 -1 8 C-2.20628008 5.66785852 -3.1654738 3.50357861 -4 1 C-2 0 -2 0 0 0 Z " fill="#529AC7" transform="translate(35,30)"/>
<path d="M0 0 C-0.45375 0.433125 -0.9075 0.86625 -1.375 1.3125 C-3.20024334 3.10798342 -3.20024334 3.10798342 -5 6 C-5.33 4.02 -5.66 2.04 -6 0 C-2.25 -1.125 -2.25 -1.125 0 0 Z " fill="#4F98C8" transform="translate(42,20)"/>
</svg>
