<svg xmlns="http://www.w3.org/2000/svg" xmlns:xlink="http://www.w3.org/1999/xlink" width="500" zoomAndPan="magnify" viewBox="0 0 375 374.999991" height="500" preserveAspectRatio="xMidYMid meet" version="1.0"><path fill="#0093c0" d="M 181.25 133.125 C 182.265625 132.980469 183.363281 132.949219 184.375 133.125 C 185.015625 133.484375 185.367188 133.933594 185.78125 134.53125 C 185.957031 134.734375 186.136719 134.9375 186.320312 135.136719 C 186.449219 135.289062 186.449219 135.289062 186.582031 135.441406 C 187.054688 135.988281 187.550781 136.515625 188.042969 137.046875 C 188.335938 137.386719 188.617188 137.738281 188.882812 138.101562 C 189.382812 138.78125 189.949219 139.382812 190.535156 139.992188 C 191.144531 140.621094 191.730469 141.25 192.261719 141.949219 C 192.816406 142.675781 193.425781 143.328125 194.0625 143.984375 C 194.804688 144.75 195.492188 145.527344 196.136719 146.378906 C 196.5625 146.914062 197.027344 147.40625 197.5 147.898438 C 197.785156 148.199219 198.066406 148.5 198.351562 148.800781 C 198.808594 149.292969 199.25 149.800781 199.6875 150.3125 C 199.871094 150.519531 200.050781 150.730469 200.234375 150.9375 C 200.503906 151.246094 200.773438 151.554688 201.042969 151.863281 C 201.550781 152.445312 202.066406 153.023438 202.585938 153.59375 C 202.988281 154.035156 203.367188 154.476562 203.710938 154.960938 C 204.183594 155.609375 204.714844 156.195312 205.253906 156.789062 L 205.519531 157.085938 L 205.777344 157.363281 L 206.007812 157.613281 C 206.289062 157.84375 206.519531 157.90625 206.875 157.96875 C 207.707031 157.0625 208.539062 156.15625 209.367188 155.246094 L 209.691406 154.882812 C 209.914062 154.628906 210.128906 154.367188 210.332031 154.097656 L 210.625 153.75 L 210.9375 153.75 L 211.027344 153.429688 C 211.339844 152.785156 211.796875 152.335938 212.292969 151.824219 C 212.496094 151.617188 212.695312 151.40625 212.894531 151.199219 L 213.179688 150.898438 C 213.480469 150.578125 213.769531 150.253906 214.050781 149.921875 C 214.464844 149.441406 214.902344 149 215.363281 148.566406 C 215.648438 148.273438 215.648438 148.273438 215.902344 147.851562 C 216.324219 147.238281 216.808594 146.726562 217.324219 146.191406 C 217.886719 145.609375 218.425781 145.035156 218.902344 144.378906 C 219.488281 143.574219 220.183594 142.875 220.875 142.160156 C 221.4375 141.574219 221.914062 141 222.34375 140.3125 C 222.597656 140.019531 222.597656 140.019531 222.8125 139.84375 L 223.125 139.84375 L 223.125 139.53125 L 223.4375 139.53125 L 223.558594 139.179688 C 223.761719 138.722656 223.964844 138.492188 224.328125 138.15625 C 225.191406 137.320312 225.957031 136.429688 226.699219 135.488281 L 227.023438 135.09375 C 227.351562 134.691406 227.351562 134.691406 227.625 134.242188 C 227.976562 133.746094 228.230469 133.445312 228.75 133.125 C 229.761719 132.929688 230.855469 132.980469 231.875 133.125 L 232.1875 133.28125 C 232.191406 140.488281 232.195312 147.695312 232.195312 154.902344 L 232.195312 155.359375 C 232.195312 157.816406 232.199219 160.269531 232.199219 162.722656 C 232.199219 165.238281 232.203125 167.753906 232.203125 170.273438 C 232.203125 171.824219 232.203125 173.378906 232.203125 174.933594 C 232.207031 175.996094 232.207031 177.0625 232.207031 178.125 C 232.203125 178.742188 232.207031 179.355469 232.207031 179.96875 C 232.207031 180.53125 232.207031 181.09375 232.207031 181.65625 C 232.207031 181.957031 232.207031 182.257812 232.207031 182.5625 L 232.207031 183.5625 L 232.1875 183.90625 L 232.03125 184.0625 C 231.730469 184.078125 231.429688 184.085938 231.128906 184.085938 L 230.542969 184.089844 L 229.257812 184.089844 C 228.804688 184.089844 228.351562 184.089844 227.898438 184.089844 C 227.316406 184.089844 226.734375 184.09375 226.152344 184.097656 C 225.703125 184.097656 225.257812 184.097656 224.808594 184.097656 C 224.59375 184.097656 224.378906 184.097656 224.167969 184.101562 C 223.867188 184.101562 223.566406 184.101562 223.265625 184.101562 L 222.75 184.101562 L 222.34375 184.0625 L 222.03125 183.75 C 222 183.378906 221.984375 183.003906 221.988281 182.632812 C 221.984375 182.457031 221.984375 182.457031 221.984375 182.28125 C 221.980469 181.886719 221.980469 181.496094 221.980469 181.105469 L 221.976562 180.261719 C 221.972656 179.5 221.96875 178.738281 221.96875 177.976562 C 221.964844 177.179688 221.960938 176.382812 221.957031 175.585938 C 221.949219 174.078125 221.945312 172.570312 221.9375 171.0625 C 221.933594 169.34375 221.925781 167.628906 221.917969 165.910156 C 221.902344 162.378906 221.886719 158.84375 221.875 155.3125 C 221.613281 155.355469 221.351562 155.40625 221.09375 155.46875 C 220.769531 155.746094 220.769531 155.746094 220.488281 156.105469 L 220.195312 156.449219 L 219.84375 156.875 C 218.988281 157.875 218.089844 158.832031 217.179688 159.789062 C 216.398438 160.613281 215.644531 161.460938 214.902344 162.328125 C 214.375 162.941406 213.824219 163.535156 213.269531 164.125 C 212.429688 165.019531 211.613281 165.910156 210.867188 166.882812 C 210.644531 167.164062 210.425781 167.421875 210.15625 167.65625 L 209.84375 167.65625 L 209.71875 167.933594 C 209.527344 168.289062 209.320312 168.546875 209.050781 168.847656 L 208.761719 169.171875 L 208.4375 169.53125 L 208.070312 169.953125 L 207.695312 170.378906 L 207.347656 170.78125 C 207.03125 171.09375 207.03125 171.09375 206.5625 171.25 C 205.808594 170.761719 205.1875 170.050781 204.621094 169.359375 C 203.695312 168.242188 202.699219 167.1875 201.699219 166.136719 C 201.058594 165.460938 200.429688 164.785156 199.84375 164.0625 L 199.84375 163.75 L 199.53125 163.75 L 199.53125 163.4375 L 199.0625 163.28125 L 199.0625 162.96875 L 198.59375 162.8125 C 198.390625 162.574219 198.390625 162.574219 198.183594 162.265625 C 197.710938 161.609375 197.171875 161.066406 196.597656 160.503906 C 195.855469 159.765625 195.203125 158.96875 194.558594 158.144531 C 193.988281 157.421875 193.363281 156.78125 192.703125 156.144531 C 192.34375 155.78125 192.03125 155.402344 191.71875 155 L 191.25 155.15625 L 191.25 155.605469 C 191.234375 159.199219 191.222656 162.792969 191.203125 166.386719 C 191.195312 168.125 191.191406 169.863281 191.183594 171.597656 C 191.179688 173.113281 191.171875 174.628906 191.164062 176.140625 C 191.160156 176.945312 191.15625 177.746094 191.15625 178.546875 C 191.152344 179.304688 191.148438 180.058594 191.144531 180.8125 C 191.144531 181.089844 191.144531 181.367188 191.144531 181.644531 C 191.140625 182.023438 191.140625 182.398438 191.136719 182.777344 L 191.136719 183.113281 C 191.136719 183.378906 191.117188 183.640625 191.09375 183.90625 L 190.78125 184.21875 C 190.390625 184.257812 190.390625 184.257812 189.890625 184.257812 L 189.324219 184.261719 L 188.082031 184.261719 C 187.644531 184.261719 187.207031 184.261719 186.769531 184.257812 C 186.207031 184.257812 185.644531 184.257812 185.082031 184.261719 C 184.652344 184.261719 184.21875 184.261719 183.789062 184.261719 C 183.480469 184.261719 183.171875 184.261719 182.863281 184.261719 L 182.296875 184.257812 C 182.132812 184.257812 181.96875 184.257812 181.796875 184.257812 L 181.40625 184.21875 L 181.09375 183.90625 C 181.054688 183.550781 181.054688 183.550781 181.050781 183.09375 L 181.046875 182.574219 L 181.046875 181.394531 C 181.042969 180.851562 181.042969 180.304688 181.042969 179.757812 C 181.039062 179.300781 181.039062 178.84375 181.039062 178.390625 C 181.035156 177.3125 181.035156 176.238281 181.035156 175.164062 C 181.035156 174.054688 181.03125 172.941406 181.027344 171.832031 C 181.023438 170.878906 181.023438 169.929688 181.023438 168.976562 C 181.023438 168.40625 181.019531 167.835938 181.019531 167.269531 C 181.015625 166.632812 181.015625 166 181.019531 165.363281 L 181.011719 164.792969 L 181.015625 164.269531 L 181.015625 163.8125 L 181.09375 163.4375 C 181.511719 163.046875 181.941406 162.859375 182.476562 162.667969 L 182.917969 162.507812 L 183.378906 162.34375 L 183.828125 162.179688 C 184.675781 161.875 185.53125 161.597656 186.394531 161.347656 C 186.660156 161.265625 186.925781 161.183594 187.1875 161.09375 C 187.246094 159.984375 187.070312 158.96875 186.855469 157.882812 C 186.703125 157.132812 186.578125 156.378906 186.457031 155.625 L 186.394531 155.25 C 186.34375 154.957031 186.296875 154.667969 186.25 154.375 C 186.792969 154.203125 187.273438 154.21875 187.84375 154.238281 C 188.761719 154.246094 189.472656 154.121094 190.3125 153.75 L 190.792969 153.546875 C 191.902344 152.90625 192.769531 152.199219 193.4375 151.09375 C 193.863281 150.300781 194.101562 149.574219 194.132812 148.671875 C 194.074219 147.347656 193.667969 146.210938 192.957031 145.09375 C 192.132812 143.984375 191.125 142.90625 189.84375 142.34375 C 188.734375 142.066406 187.515625 142.042969 186.398438 142.292969 C 185.414062 142.628906 184.582031 143.132812 183.75 143.75 C 183.464844 143.675781 183.464844 143.675781 183.125 143.4375 C 182.957031 143.015625 182.816406 142.589844 182.699219 142.152344 L 182.589844 141.761719 C 182.472656 141.351562 182.359375 140.941406 182.246094 140.527344 C 182.167969 140.253906 182.089844 139.980469 182.015625 139.707031 C 181.808594 138.972656 181.605469 138.238281 181.40625 137.5 L 181.3125 137.160156 C 181.164062 136.59375 181.054688 136.070312 181.058594 135.484375 L 181.058594 135.09375 L 181.0625 134.695312 L 181.066406 134.289062 C 181.066406 133.953125 181.078125 133.617188 181.09375 133.28125 Z M 129.84375 129.84375 C 130.539062 129.933594 131.066406 130.21875 131.660156 130.578125 L 132.246094 130.917969 L 132.539062 131.089844 C 132.914062 131.308594 133.296875 131.515625 133.683594 131.71875 C 134.484375 132.152344 135.253906 132.628906 136.03125 133.113281 C 137.75 134.164062 139.480469 135.152344 141.378906 135.851562 L 141.761719 135.992188 C 143.816406 136.726562 145.921875 137.332031 148.113281 137.386719 L 148.714844 137.40625 C 149.027344 137.414062 149.339844 137.421875 149.652344 137.429688 C 149.957031 137.4375 150.257812 137.445312 150.5625 137.457031 L 151.109375 137.46875 C 151.5625 137.5 151.5625 137.5 152.03125 137.65625 C 152.265625 137.671875 152.496094 137.679688 152.730469 137.683594 L 153.160156 137.691406 L 153.625 137.695312 L 154.609375 137.710938 C 155.125 137.71875 155.636719 137.722656 156.152344 137.730469 C 162.902344 137.816406 162.902344 137.816406 165.9375 139.375 L 166.285156 139.539062 C 167.28125 140.039062 168.066406 140.679688 168.75 141.5625 C 169.242188 142.359375 169.625 143.207031 170 144.0625 L 170.21875 144.542969 C 171.3125 147.152344 171.839844 150.074219 172.265625 152.863281 L 172.445312 154.03125 C 172.488281 154.3125 172.539062 154.59375 172.589844 154.875 C 172.796875 156.066406 172.894531 157.261719 172.988281 158.46875 L 173.03125 158.992188 C 173.105469 160.007812 173.144531 161.011719 173.125 162.03125 L 172.65625 161.875 C 172.410156 161.476562 172.183594 161.070312 171.972656 160.65625 L 171.78125 160.285156 C 171.289062 159.324219 170.867188 158.347656 170.46875 157.34375 C 169.773438 155.621094 169.050781 153.957031 168.125 152.34375 L 167.847656 151.851562 C 167.421875 151.109375 166.980469 150.371094 166.523438 149.648438 L 166.304688 149.304688 C 166.234375 149.222656 166.164062 149.144531 166.09375 149.0625 L 165.625 149.0625 C 165.648438 149.753906 165.667969 150.449219 165.695312 151.144531 L 165.710938 151.742188 L 165.730469 152.3125 L 165.75 152.839844 C 165.765625 153.292969 165.765625 153.292969 165.9375 153.75 C 165.96875 154.054688 165.996094 154.363281 166.015625 154.667969 L 166.054688 155.210938 L 166.132812 156.351562 L 166.171875 156.894531 L 166.207031 157.394531 C 166.238281 157.828125 166.238281 157.828125 166.40625 158.28125 C 166.449219 158.613281 166.480469 158.949219 166.511719 159.28125 L 166.570312 159.890625 L 166.628906 160.527344 C 166.753906 161.867188 166.898438 163.195312 167.113281 164.523438 C 167.230469 165.269531 167.324219 166.019531 167.421875 166.765625 L 167.480469 167.234375 C 167.574219 167.941406 167.664062 168.652344 167.75 169.363281 L 167.792969 169.714844 C 167.828125 170.019531 167.867188 170.324219 167.902344 170.628906 C 167.957031 171.101562 167.957031 171.101562 168.125 171.5625 C 168.15625 171.804688 168.179688 172.046875 168.199219 172.289062 L 168.234375 172.726562 C 168.257812 173.023438 168.28125 173.324219 168.304688 173.621094 C 168.390625 174.59375 168.515625 175.550781 168.671875 176.511719 C 168.804688 177.382812 168.90625 178.253906 169.003906 179.132812 L 169.066406 179.6875 C 169.199219 180.945312 169.28125 182.171875 169.21875 183.4375 C 168.496094 183.140625 168.15625 182.628906 167.6875 182.023438 C 167.09375 181.222656 166.53125 180.40625 165.976562 179.578125 L 165.625 179.066406 C 165.070312 178.246094 164.539062 177.429688 164.0625 176.5625 C 163.890625 176.28125 163.714844 176 163.535156 175.722656 L 163.246094 175.273438 C 163.007812 174.90625 162.765625 174.542969 162.519531 174.179688 C 161.558594 172.746094 160.703125 171.246094 159.855469 169.746094 L 159.675781 169.433594 C 159.378906 168.902344 159.113281 168.382812 158.90625 167.8125 C 158.605469 167.847656 158.605469 167.847656 158.28125 167.96875 C 158.054688 168.210938 158.054688 168.210938 157.871094 168.535156 C 157.792969 168.660156 157.710938 168.789062 157.628906 168.917969 L 157.34375 169.375 C 157.089844 169.761719 156.835938 170.144531 156.582031 170.527344 L 156.378906 170.835938 C 155.886719 171.570312 155.378906 172.289062 154.851562 173 C 154.550781 173.410156 154.253906 173.824219 153.960938 174.242188 C 153.242188 175.25 152.507812 176.25 151.757812 177.238281 C 151.539062 177.53125 151.320312 177.824219 151.101562 178.117188 C 150.234375 179.28125 149.355469 180.4375 148.4375 181.5625 L 148.070312 182.011719 C 147.832031 182.300781 147.59375 182.59375 147.355469 182.882812 C 147.035156 183.273438 146.71875 183.667969 146.40625 184.0625 L 145.9375 183.90625 C 146.132812 182.863281 146.371094 181.832031 146.652344 180.808594 L 146.769531 180.375 C 146.847656 180.074219 146.929688 179.773438 147.011719 179.46875 C 147.226562 178.679688 147.4375 177.890625 147.648438 177.101562 L 147.773438 176.632812 C 148.15625 175.207031 148.515625 173.777344 148.871094 172.34375 C 149.078125 171.492188 149.296875 170.644531 149.523438 169.796875 C 149.878906 168.488281 150.195312 167.171875 150.496094 165.851562 C 150.535156 165.683594 150.574219 165.515625 150.617188 165.347656 C 151.21875 162.667969 151.300781 160.027344 151.289062 157.292969 C 151.289062 156.742188 151.289062 156.1875 151.292969 155.636719 C 151.339844 150.792969 151.339844 150.792969 149.84375 146.25 C 149.257812 145.398438 148.558594 144.859375 147.65625 144.375 C 147.125 144.136719 146.582031 143.925781 146.039062 143.710938 C 144.859375 143.238281 143.765625 142.648438 142.65625 142.03125 L 141.75 141.542969 C 139.269531 140.183594 137.023438 138.601562 135.011719 136.613281 L 134.753906 136.359375 C 134.234375 135.839844 133.84375 135.300781 133.4375 134.6875 C 133.164062 134.382812 132.890625 134.082031 132.609375 133.789062 C 131.859375 132.992188 131.230469 132.160156 130.625 131.25 C 130.472656 131.042969 130.320312 130.832031 130.167969 130.625 L 129.84375 130.15625 Z M 129.84375 129.84375 " fill-opacity="1" fill-rule="nonzero"/><path fill="#00516a" d="M 120.875 105.324219 L 121.25 105.46875 C 121.476562 105.800781 121.476562 105.800781 121.652344 106.230469 L 121.84375 106.703125 L 122.03125 107.1875 L 122.203125 107.628906 C 122.453125 108.296875 122.679688 108.972656 122.882812 109.660156 C 123.078125 110.324219 123.285156 110.984375 123.507812 111.640625 L 123.691406 112.203125 L 123.90625 112.65625 C 124.222656 112.882812 124.222656 112.882812 124.53125 112.96875 C 124.570312 112.875 124.613281 112.785156 124.65625 112.691406 C 125 112.058594 125.507812 111.652344 126.09375 111.25 C 127.074219 110.789062 128.066406 110.519531 129.152344 110.578125 C 130.355469 110.730469 131.316406 111.132812 132.292969 111.863281 C 133.105469 112.589844 133.683594 113.457031 134.050781 114.480469 C 134.371094 115.734375 134.402344 117.171875 134.050781 118.417969 C 133.675781 119.34375 133.078125 120.125 132.304688 120.753906 C 131.664062 121.199219 131.070312 121.519531 130.3125 121.71875 C 129.882812 121.742188 129.472656 121.753906 129.042969 121.75 L 128.710938 121.746094 C 128.183594 121.742188 127.691406 121.726562 127.1875 121.5625 C 127.328125 123.054688 127.863281 124.46875 128.4375 125.839844 C 128.6875 126.492188 128.878906 127.160156 129.074219 127.832031 C 129.203125 128.269531 129.203125 128.269531 129.394531 128.613281 C 129.53125 128.90625 129.53125 128.90625 129.53125 129.53125 L 129.160156 129.652344 C 127.78125 130.109375 126.402344 130.578125 125.027344 131.054688 L 124.480469 131.246094 L 123.960938 131.421875 L 123.496094 131.585938 C 123.128906 131.710938 123.128906 131.710938 122.8125 131.875 C 123.011719 132.316406 123.222656 132.617188 123.566406 132.960938 C 124.242188 133.746094 124.59375 134.625 124.84375 135.625 C 125 136.75 124.980469 137.90625 124.589844 138.984375 C 124.144531 139.917969 123.582031 140.742188 122.753906 141.378906 C 121.839844 141.960938 121.085938 142.207031 119.996094 142.265625 C 119.007812 142.292969 118.175781 142.226562 117.265625 141.808594 C 116.257812 141.21875 115.375 140.484375 114.78125 139.46875 C 114.292969 138.421875 114.1875 137.417969 114.128906 136.28125 L 114.109375 135.90625 C 114.09375 135.605469 114.078125 135.300781 114.0625 135 C 113.375 135.097656 112.753906 135.265625 112.097656 135.496094 L 111.507812 135.703125 L 110.898438 135.917969 C 108.664062 136.703125 108.664062 136.703125 107.707031 137.011719 L 107.351562 137.128906 C 107.03125 137.1875 107.03125 137.1875 106.6875 137.136719 L 106.40625 137.03125 C 106.246094 136.785156 106.246094 136.785156 106.125 136.4375 L 105.96875 136.015625 L 105.78125 135.46875 L 105.515625 134.714844 C 105.324219 134.175781 105.136719 133.636719 104.949219 133.09375 C 104.78125 132.609375 104.605469 132.128906 104.421875 131.652344 C 104.238281 131.152344 104.167969 130.835938 104.21875 130.3125 C 104.683594 130.171875 105.003906 130.160156 105.480469 130.246094 C 106.34375 130.351562 107.132812 130.238281 107.96875 130 C 108.824219 129.574219 109.453125 128.898438 110 128.125 C 110.496094 127.199219 110.550781 126.226562 110.523438 125.1875 C 110.421875 124.238281 110.117188 123.519531 109.574219 122.738281 C 109.109375 122.167969 108.625 121.675781 107.980469 121.316406 C 106.910156 120.917969 105.652344 120.9375 104.53125 121.09375 C 103.972656 121.265625 103.5625 121.488281 103.125 121.875 C 102.867188 122.160156 102.628906 122.441406 102.402344 122.757812 L 102.1875 122.96875 L 101.5625 122.96875 C 101.027344 121.691406 100.585938 120.386719 100.15625 119.074219 C 99.707031 117.707031 99.25 116.347656 98.75 115 C 98.65625 114.742188 98.5625 114.484375 98.46875 114.230469 L 98.347656 113.902344 C 98.28125 113.59375 98.28125 113.59375 98.308594 113.257812 L 98.4375 112.96875 C 98.699219 112.828125 98.699219 112.828125 99.042969 112.734375 C 99.582031 112.582031 100.113281 112.40625 100.636719 112.210938 C 101.710938 111.820312 102.789062 111.449219 103.867188 111.078125 C 104.511719 110.855469 105.152344 110.636719 105.773438 110.359375 C 106.300781 110.136719 106.777344 110.058594 107.34375 110 C 107.511719 110.292969 107.511719 110.292969 107.65625 110.625 L 107.5 110.9375 C 107.421875 111.972656 107.34375 113.078125 107.746094 114.054688 C 108.179688 114.863281 108.753906 115.609375 109.511719 116.144531 C 109.769531 116.292969 110.042969 116.429688 110.3125 116.5625 L 110.597656 116.730469 C 111.339844 117.046875 112.183594 116.945312 112.96875 116.875 C 113.859375 116.679688 114.539062 116.300781 115.214844 115.695312 C 115.761719 115.097656 116.070312 114.5 116.308594 113.726562 C 116.53125 112.710938 116.488281 111.761719 116.238281 110.75 C 115.960938 109.921875 115.476562 109.34375 114.84375 108.75 L 114.386719 108.390625 L 114.0625 108.125 L 114.0625 107.65625 C 114.265625 107.5625 114.472656 107.464844 114.679688 107.375 L 115.023438 107.214844 C 116.25 106.710938 117.535156 106.351562 118.800781 105.960938 L 119.183594 105.84375 L 119.523438 105.738281 C 119.851562 105.628906 119.851562 105.628906 120.171875 105.453125 C 120.46875 105.3125 120.46875 105.3125 120.875 105.324219 " fill-opacity="1" fill-rule="nonzero"/><path fill="#0093c0" d="M 227.34375 190.15625 C 229.0625 190.15625 229.0625 190.15625 229.515625 190.398438 L 229.859375 190.75 L 230.265625 191.144531 L 230.6875 191.589844 C 230.839844 191.742188 230.992188 191.894531 231.148438 192.050781 C 231.5625 192.464844 231.972656 192.882812 232.382812 193.304688 C 232.8125 193.746094 233.246094 194.183594 233.679688 194.617188 C 234.5 195.445312 235.3125 196.273438 236.128906 197.105469 C 237.144531 198.144531 238.167969 199.179688 239.191406 200.214844 L 240.261719 201.296875 L 240.523438 201.5625 C 241.121094 202.167969 241.71875 202.773438 242.3125 203.382812 L 243.019531 204.101562 C 243.238281 204.324219 243.457031 204.546875 243.675781 204.769531 L 244.066406 205.167969 L 244.410156 205.519531 C 244.671875 205.792969 244.671875 205.792969 245 205.9375 L 245 190.15625 L 250 190.15625 L 250 215.625 C 248.125 215.625 248.125 215.625 247.648438 215.382812 L 247.304688 215.03125 L 246.898438 214.632812 L 246.476562 214.191406 C 246.324219 214.035156 246.167969 213.882812 246.015625 213.730469 C 245.601562 213.3125 245.1875 212.894531 244.78125 212.46875 C 244.351562 212.027344 243.914062 211.59375 243.480469 211.15625 C 242.660156 210.328125 241.84375 209.5 241.03125 208.664062 C 239.929688 207.539062 238.820312 206.421875 237.714844 205.300781 C 235.96875 203.539062 234.234375 201.769531 232.5 200 L 232.34375 215.625 L 227.34375 215.625 Z M 195.382812 191.144531 C 196.671875 191.726562 197.847656 192.496094 198.90625 193.4375 C 198.472656 194.160156 197.964844 194.710938 197.359375 195.296875 C 196.941406 195.714844 196.558594 196.160156 196.179688 196.613281 C 195.9375 196.875 195.9375 196.875 195.46875 197.1875 C 195.328125 197.101562 195.1875 197.019531 195.046875 196.929688 C 193.324219 195.90625 191.785156 195.335938 189.757812 195.273438 C 188.3125 195.292969 186.9375 195.546875 185.644531 196.203125 C 184.558594 196.851562 183.761719 197.660156 183.078125 198.71875 C 182.269531 200.175781 182.113281 201.5625 182.121094 203.203125 C 182.164062 204.683594 182.527344 205.9375 183.234375 207.238281 C 183.847656 208.179688 184.597656 208.902344 185.578125 209.457031 C 187.335938 210.300781 189.011719 210.417969 190.9375 210.3125 C 192.058594 210.195312 192.695312 209.902344 193.75 209.375 L 193.90625 205 L 190.46875 205 L 190.46875 200.3125 L 198.90625 200.3125 C 198.988281 203.257812 198.988281 203.257812 199.003906 204.519531 C 199.015625 205.378906 199.03125 206.238281 199.058594 207.097656 C 199.082031 207.789062 199.09375 208.484375 199.097656 209.175781 C 199.101562 209.441406 199.109375 209.703125 199.121094 209.96875 C 199.15625 210.800781 199.148438 211.539062 198.90625 212.34375 C 198.375 213.015625 197.628906 213.378906 196.875 213.75 L 196.375 214.03125 C 194.378906 215.140625 192.042969 215.609375 189.777344 215.664062 C 187.332031 215.605469 185.097656 215.089844 182.96875 213.882812 C 180.992188 212.664062 179.417969 211.039062 178.273438 209.023438 C 177.203125 207.039062 176.796875 204.792969 176.820312 202.558594 C 176.890625 200.324219 177.449219 198.179688 178.554688 196.230469 C 179.75 194.355469 181.25 192.777344 183.195312 191.671875 C 187.035156 189.71875 191.371094 189.59375 195.382812 191.140625 M 203.75 190.15625 L 222.5 190.15625 L 222.5 194.84375 L 208.90625 194.84375 L 208.90625 200.3125 L 219.0625 200.3125 L 219.0625 205 L 208.90625 205 L 208.90625 210.78125 L 210.136719 210.777344 C 211.476562 210.777344 212.816406 210.773438 214.152344 210.773438 C 214.964844 210.773438 215.777344 210.769531 216.589844 210.769531 C 217.375 210.769531 218.15625 210.765625 218.941406 210.765625 C 219.238281 210.765625 219.539062 210.765625 219.839844 210.765625 C 220.257812 210.765625 220.675781 210.761719 221.09375 210.761719 L 221.472656 210.761719 C 221.761719 210.761719 222.054688 210.769531 222.34375 210.78125 L 222.5 210.9375 C 222.515625 211.269531 222.519531 211.605469 222.519531 211.9375 L 222.519531 212.875 C 222.519531 213.203125 222.519531 213.527344 222.519531 213.851562 L 222.519531 215.039062 L 222.5 215.46875 L 222.34375 215.625 C 222.101562 215.640625 221.859375 215.644531 221.617188 215.644531 L 220.0625 215.644531 C 219.460938 215.644531 218.859375 215.640625 218.261719 215.640625 L 217.152344 215.640625 C 215.78125 215.640625 214.410156 215.636719 213.035156 215.632812 L 203.75 215.625 Z M 99.375 190.15625 L 117.96875 190.15625 L 117.96875 194.84375 L 104.53125 195 L 104.53125 200.15625 L 114.6875 200.3125 L 114.6875 205 L 104.53125 205.15625 L 104.375 210.78125 L 117.96875 210.78125 L 117.96875 215.625 L 99.375 215.625 Z M 280.9375 190.15625 L 299.53125 190.15625 L 299.53125 194.84375 L 285.9375 194.84375 L 285.9375 200.3125 L 296.09375 200.3125 L 296.09375 205 L 285.9375 205 L 285.9375 210.78125 L 299.53125 210.78125 L 299.53125 215.625 L 280.9375 215.625 Z M 271.746094 190.964844 C 272.164062 191.148438 272.566406 191.347656 272.96875 191.5625 L 273.417969 191.789062 C 274.308594 192.25 275.046875 192.75 275.78125 193.4375 C 275.25 194.1875 274.695312 194.863281 274.03125 195.5 C 273.628906 195.90625 273.273438 196.347656 272.917969 196.796875 L 272.65625 197.03125 C 272.03125 197.03125 272.03125 197.03125 271.695312 196.847656 L 271.328125 196.601562 C 270.023438 195.789062 268.621094 195.378906 267.09375 195.289062 C 265.519531 195.238281 263.988281 195.480469 262.558594 196.160156 C 262.039062 196.445312 261.644531 196.742188 261.25 197.1875 L 260.9375 197.1875 L 260.808594 197.460938 C 260.625 197.8125 260.410156 198.117188 260.175781 198.4375 C 259.542969 199.402344 259.132812 200.320312 259.027344 201.484375 C 258.929688 203.1875 258.914062 204.847656 259.6875 206.40625 L 259.886719 206.820312 C 260.425781 207.816406 261.109375 208.566406 262.03125 209.21875 C 263.621094 210.121094 265.105469 210.367188 266.90625 210.359375 C 268.707031 210.316406 270.152344 209.785156 271.71875 208.90625 L 272.1875 208.59375 C 272.5 208.621094 272.5 208.621094 272.8125 208.75 C 273.046875 208.96875 273.046875 208.96875 273.28125 209.257812 C 273.640625 209.691406 274.007812 210.113281 274.394531 210.523438 L 274.652344 210.796875 C 274.824219 210.980469 274.996094 211.164062 275.171875 211.34375 C 275.378906 211.566406 275.582031 211.800781 275.78125 212.03125 L 275.78125 212.34375 C 275.492188 212.578125 275.191406 212.800781 274.882812 213.007812 L 274.605469 213.199219 C 272.300781 214.734375 269.820312 215.46875 267.0625 215.65625 C 264.550781 215.714844 262.132812 215.15625 259.925781 213.972656 C 258.871094 213.367188 258.03125 212.585938 257.1875 211.71875 C 257.070312 211.605469 256.957031 211.492188 256.835938 211.375 C 255.542969 210.019531 254.667969 208.371094 254.179688 206.570312 L 254.0625 206.09375 L 253.957031 205.695312 C 253.460938 203.507812 253.605469 201.046875 254.21875 198.90625 C 254.984375 196.636719 256.230469 194.753906 257.96875 193.125 C 259.566406 191.75 261.519531 190.71875 263.59375 190.3125 C 266.292969 189.835938 269.171875 190.015625 271.746094 190.964844 M 73.59375 190.15625 L 95.625 190.15625 L 95.625 194.84375 L 87.1875 194.84375 L 87.1875 215.625 L 82.1875 215.625 L 82.03125 215.46875 C 82.015625 215.203125 82.011719 214.933594 82.011719 214.667969 L 82.011719 212.949219 C 82.011719 212.394531 82.015625 211.839844 82.015625 211.289062 C 82.015625 210.710938 82.015625 210.132812 82.015625 209.554688 C 82.015625 208.460938 82.019531 207.367188 82.019531 206.269531 C 82.023438 205.027344 82.023438 203.78125 82.023438 202.535156 C 82.023438 199.96875 82.027344 197.40625 82.03125 194.84375 L 73.59375 194.84375 Z M 145.625 190.15625 L 150.78125 190.15625 L 150.78125 210.78125 C 155.195312 210.773438 155.195312 210.773438 159.613281 210.765625 C 160.464844 210.765625 160.464844 210.765625 160.863281 210.765625 C 161.140625 210.765625 161.421875 210.765625 161.699219 210.765625 C 162.121094 210.765625 162.546875 210.761719 162.96875 210.761719 L 163.347656 210.761719 C 163.636719 210.761719 163.929688 210.769531 164.21875 210.78125 L 164.375 210.9375 C 164.390625 211.269531 164.394531 211.605469 164.394531 211.9375 L 164.394531 212.875 C 164.394531 213.203125 164.394531 213.527344 164.394531 213.851562 L 164.394531 215.039062 L 164.375 215.46875 L 164.21875 215.625 C 163.976562 215.640625 163.734375 215.644531 163.492188 215.644531 L 161.9375 215.644531 C 161.335938 215.644531 160.734375 215.640625 160.136719 215.640625 L 159.027344 215.640625 C 157.65625 215.640625 156.285156 215.636719 154.914062 215.632812 L 145.625 215.625 Z M 122.96875 190.15625 L 127.96875 190.15625 L 127.96875 210.78125 L 141.5625 210.78125 L 141.5625 215.625 L 122.96875 215.625 Z M 168.28125 190.15625 L 173.4375 190.15625 L 173.4375 215.625 L 168.28125 215.625 Z M 158.007812 123.398438 L 158.390625 123.390625 C 159.511719 123.382812 160.410156 123.648438 161.414062 124.136719 C 162.476562 124.789062 163.132812 125.476562 163.75 126.5625 L 163.949219 126.894531 C 164.515625 127.960938 164.539062 129.125 164.53125 130.3125 C 164.449219 131.574219 163.945312 132.683594 163.28125 133.75 C 162.625 134.601562 161.871094 135.175781 160.890625 135.621094 C 159.738281 136.058594 158.578125 136.367188 157.34375 136.25 C 155.886719 135.953125 154.722656 135.480469 153.574219 134.53125 C 152.753906 133.769531 152.28125 132.914062 151.875 131.875 C 151.492188 130.550781 151.539062 128.882812 151.855469 127.550781 C 152.03125 127.101562 152.25 126.664062 152.5 126.25 L 152.71875 125.867188 C 153.367188 124.894531 154.253906 124.375 155.265625 123.832031 C 156.175781 123.410156 157.019531 123.40625 158.007812 123.398438 M 278.4375 222.1875 L 278.75 222.65625 L 279.191406 222.421875 C 279.835938 222.148438 280.429688 222.113281 281.128906 222.128906 C 281.703125 222.207031 282.152344 222.402344 282.660156 222.675781 C 283.007812 222.855469 283.007812 222.855469 283.59375 222.8125 C 283.910156 222.660156 284.222656 222.503906 284.53125 222.34375 C 285.34375 222.085938 286.191406 222.117188 287.03125 222.1875 C 287.570312 222.308594 287.992188 222.480469 288.4375 222.8125 C 288.882812 223.34375 289.222656 223.914062 289.53125 224.53125 C 289.546875 224.742188 289.550781 224.957031 289.550781 225.167969 L 289.550781 225.566406 L 289.546875 225.996094 L 289.546875 226.4375 C 289.546875 226.902344 289.542969 227.367188 289.542969 227.832031 C 289.539062 228.148438 289.539062 228.460938 289.539062 228.777344 C 289.535156 229.546875 289.535156 230.320312 289.53125 231.09375 C 289.144531 231.097656 288.757812 231.101562 288.371094 231.105469 L 288.035156 231.109375 C 287.753906 231.109375 287.46875 231.101562 287.1875 231.09375 L 287.03125 230.9375 C 287.011719 230.527344 287 230.121094 286.992188 229.714844 L 286.976562 228.953125 C 286.96875 228.554688 286.964844 228.15625 286.957031 227.753906 C 286.949219 227.367188 286.941406 226.984375 286.933594 226.597656 L 286.929688 226.238281 C 286.917969 225.769531 286.894531 225.367188 286.730469 224.929688 C 286.574219 224.667969 286.574219 224.667969 286.285156 224.542969 C 285.957031 224.460938 285.652344 224.394531 285.3125 224.375 C 284.859375 224.535156 284.859375 224.535156 284.53125 224.84375 C 284.171875 225.300781 284.171875 225.300781 284.167969 225.894531 C 284.164062 226.136719 284.15625 226.378906 284.152344 226.621094 L 284.144531 227.011719 C 284.136719 227.417969 284.128906 227.824219 284.121094 228.230469 C 284.113281 228.507812 284.109375 228.785156 284.101562 229.0625 C 284.089844 229.738281 284.074219 230.417969 284.0625 231.09375 C 283.675781 231.097656 283.289062 231.101562 282.902344 231.105469 L 282.566406 231.109375 C 282.285156 231.109375 282 231.101562 281.71875 231.09375 L 281.5625 230.9375 C 281.542969 230.527344 281.53125 230.121094 281.523438 229.714844 L 281.507812 228.953125 C 281.5 228.554688 281.496094 228.15625 281.488281 227.753906 C 281.480469 227.367188 281.472656 226.984375 281.464844 226.597656 L 281.460938 226.238281 C 281.449219 225.769531 281.425781 225.367188 281.261719 224.929688 C 281.109375 224.667969 281.109375 224.667969 280.824219 224.542969 C 280.492188 224.457031 280.1875 224.394531 279.84375 224.375 C 279.308594 224.542969 279.308594 224.542969 278.90625 224.84375 C 278.65625 225.34375 278.714844 225.894531 278.707031 226.445312 L 278.699219 226.832031 C 278.683594 227.378906 278.675781 227.925781 278.664062 228.472656 C 278.65625 228.871094 278.648438 229.269531 278.636719 229.667969 L 278.632812 230.046875 C 278.625 230.34375 278.609375 230.640625 278.59375 230.9375 L 278.4375 231.09375 L 276.09375 231.09375 L 276.09375 222.34375 C 277.65625 222.1875 277.65625 222.1875 278.4375 222.1875 M 291.25 222.1875 L 293.75 222.1875 L 293.773438 223.394531 C 293.78125 223.78125 293.789062 224.167969 293.800781 224.554688 C 293.804688 224.824219 293.8125 225.09375 293.816406 225.363281 C 293.824219 225.75 293.832031 226.132812 293.839844 226.519531 L 293.847656 226.882812 C 293.859375 227.351562 293.882812 227.753906 294.050781 228.195312 C 294.210938 228.453125 294.210938 228.453125 294.480469 228.632812 C 294.996094 228.800781 295.398438 228.808594 295.9375 228.75 C 296.378906 228.535156 296.378906 228.535156 296.71875 228.125 C 296.800781 227.644531 296.832031 227.246094 296.828125 226.765625 L 296.835938 226.367188 C 296.84375 225.953125 296.84375 225.535156 296.847656 225.117188 C 296.847656 224.832031 296.851562 224.550781 296.859375 224.269531 C 296.867188 223.574219 296.871094 222.882812 296.875 222.1875 L 299.375 222.1875 C 299.386719 223.40625 299.394531 224.621094 299.402344 225.839844 C 299.402344 226.253906 299.40625 226.667969 299.410156 227.082031 C 299.417969 227.679688 299.417969 228.273438 299.421875 228.871094 C 299.421875 229.054688 299.425781 229.238281 299.429688 229.425781 C 299.429688 230.515625 299.335938 231.488281 298.90625 232.5 C 298.453125 233.261719 297.917969 233.890625 297.175781 234.378906 C 296.460938 234.738281 295.710938 234.820312 294.921875 234.890625 C 293.707031 234.785156 292.808594 234.320312 291.820312 233.625 L 291.5625 233.4375 C 291.925781 232.855469 292.230469 232.40625 292.8125 232.03125 L 293.058594 232.164062 C 293.910156 232.621094 293.910156 232.621094 294.84375 232.8125 C 295.28125 232.757812 295.683594 232.664062 296.09375 232.5 C 296.425781 232.273438 296.425781 232.273438 296.5625 231.875 C 296.644531 231.40625 296.6875 230.941406 296.71875 230.46875 L 296.4375 230.609375 C 295.695312 230.953125 295.089844 231.148438 294.265625 231.09375 C 293.484375 230.980469 292.980469 230.785156 292.34375 230.3125 C 291.921875 229.914062 291.617188 229.503906 291.386719 228.96875 C 291.210938 228.292969 291.210938 227.671875 291.21875 226.980469 L 291.222656 226.5625 C 291.222656 226.125 291.226562 225.691406 291.230469 225.253906 C 291.230469 224.957031 291.234375 224.660156 291.234375 224.363281 C 291.238281 223.636719 291.242188 222.914062 291.25 222.1875 M 261.71875 217.8125 L 264.21875 217.8125 L 264.21875 231.09375 L 261.71875 231.09375 L 261.71875 230.46875 L 261.4375 230.609375 C 260.710938 230.945312 260.101562 231.148438 259.296875 231.101562 C 258.390625 230.972656 257.621094 230.691406 256.875 230.15625 C 256.207031 229.519531 255.769531 228.835938 255.480469 227.960938 C 255.269531 227.105469 255.207031 226.382812 255.410156 225.527344 C 255.710938 224.570312 256.132812 223.828125 256.835938 223.105469 C 257.421875 222.617188 258.003906 222.351562 258.75 222.1875 C 259.890625 222.050781 260.472656 222.1875 261.5625 222.65625 Z M 258.402344 224.632812 C 258.023438 224.921875 257.800781 225.207031 257.597656 225.636719 C 257.425781 226.167969 257.398438 226.644531 257.5 227.1875 C 257.652344 227.648438 257.84375 228.042969 258.125 228.4375 C 258.527344 228.765625 258.851562 228.890625 259.347656 229.042969 C 259.902344 229.066406 260.277344 228.960938 260.792969 228.777344 C 261.226562 228.511719 261.449219 228.242188 261.71875 227.8125 C 261.8125 227.28125 261.8125 227.28125 261.789062 226.71875 L 261.785156 226.152344 C 261.714844 225.589844 261.578125 225.296875 261.25 224.84375 C 260.996094 224.550781 260.996094 224.550781 260.625 224.375 C 259.746094 224.15625 259.191406 224.175781 258.402344 224.632812 M 251.679688 222.292969 C 252.246094 222.523438 252.695312 222.800781 253.117188 223.253906 C 253.515625 223.871094 253.71875 224.441406 253.777344 225.183594 C 253.785156 225.5625 253.785156 225.9375 253.78125 226.316406 L 253.777344 226.734375 C 253.777344 227.167969 253.773438 227.601562 253.769531 228.035156 C 253.769531 228.332031 253.765625 228.628906 253.765625 228.925781 C 253.761719 229.648438 253.757812 230.371094 253.75 231.09375 L 251.25 231.09375 L 251.25 230.46875 L 250.972656 230.609375 C 250.203125 230.96875 249.582031 231.144531 248.730469 231.09375 C 248.03125 231.003906 247.429688 230.855469 246.816406 230.507812 C 246.40625 230.191406 246.175781 229.824219 245.9375 229.375 C 245.722656 228.734375 245.707031 228.171875 245.78125 227.5 C 245.957031 226.878906 246.199219 226.339844 246.617188 225.84375 C 246.996094 225.496094 247.378906 225.296875 247.851562 225.109375 C 248.707031 224.949219 249.53125 224.867188 250.378906 225.105469 C 250.671875 225.214844 250.960938 225.339844 251.25 225.46875 C 251.136719 225.085938 251.136719 225.085938 250.9375 224.6875 C 250.605469 224.472656 250.355469 224.378906 249.960938 224.332031 C 249.050781 224.339844 248.222656 224.449219 247.34375 224.6875 C 247.1875 224.484375 247.03125 224.285156 246.875 224.082031 L 246.613281 223.742188 L 246.40625 223.4375 L 246.40625 223.125 C 246.703125 222.996094 247 222.871094 247.296875 222.746094 L 247.792969 222.53125 C 249 222.066406 250.421875 221.980469 251.679688 222.292969 M 248.125 227.1875 C 247.945312 227.511719 247.945312 227.511719 247.902344 227.949219 L 247.96875 228.4375 C 248.332031 228.847656 248.332031 228.847656 248.90625 229.0625 C 249.570312 229.144531 250.191406 229.171875 250.820312 228.921875 L 251.09375 228.75 C 251.300781 228.335938 251.3125 227.945312 251.300781 227.484375 L 251.25 227.1875 C 250.957031 226.835938 250.957031 226.835938 250.46875 226.71875 C 249.574219 226.605469 248.898438 226.683594 248.125 227.1875 M 233.039062 222.355469 C 233.597656 222.605469 233.953125 222.980469 234.339844 223.449219 C 234.628906 223.90625 234.824219 224.308594 234.871094 224.855469 C 234.878906 225.25 234.878906 225.648438 234.875 226.042969 L 234.871094 226.480469 C 234.871094 226.941406 234.867188 227.402344 234.863281 227.859375 C 234.863281 228.175781 234.859375 228.488281 234.859375 228.800781 C 234.855469 229.5625 234.851562 230.328125 234.84375 231.09375 L 232.5 231.09375 L 232.34375 230.46875 L 232.066406 230.609375 C 231.289062 230.972656 230.667969 231.140625 229.804688 231.082031 C 229.105469 230.992188 228.550781 230.886719 227.96875 230.46875 C 227.117188 229.636719 227.117188 229.636719 226.929688 229.058594 C 226.804688 228.339844 226.832031 227.703125 227.0625 227.011719 C 227.304688 226.417969 227.628906 226.039062 228.125 225.625 C 228.707031 225.226562 229.1875 225.03125 229.890625 224.96875 C 230.824219 224.949219 231.488281 225.089844 232.34375 225.46875 L 232.1875 224.53125 C 231.164062 224.234375 230.066406 224.300781 229.035156 224.53125 L 228.4375 224.6875 C 228.300781 224.519531 228.167969 224.351562 228.039062 224.179688 L 227.8125 223.894531 C 227.65625 223.59375 227.65625 223.59375 227.664062 223.265625 L 227.8125 222.96875 C 228.136719 222.777344 228.136719 222.777344 228.546875 222.628906 L 228.945312 222.472656 C 230.214844 222.089844 231.757812 221.953125 233.039062 222.351562 M 229.695312 226.933594 C 229.367188 227.183594 229.367188 227.183594 229.0625 227.5 C 229.039062 228.046875 229.039062 228.046875 229.21875 228.59375 C 229.605469 228.929688 229.605469 228.929688 230.15625 229.0625 C 230.828125 229.144531 231.394531 229.113281 232.042969 228.914062 L 232.34375 228.59375 C 232.453125 228.101562 232.453125 227.679688 232.34375 227.1875 C 232.054688 226.824219 232.054688 226.824219 231.5625 226.71875 C 230.871094 226.632812 230.332031 226.636719 229.699219 226.933594 M 271.777344 222.363281 C 272.429688 222.660156 272.96875 223.046875 273.4375 223.59375 C 273.894531 224.332031 274.261719 225.070312 274.375 225.9375 L 274.375 227.5 L 268.28125 227.5 L 268.75 228.4375 C 269.160156 228.691406 269.386719 228.816406 269.84375 228.90625 C 270.765625 228.929688 271.523438 228.683594 272.34375 228.28125 C 272.558594 228.472656 272.769531 228.667969 272.980469 228.867188 L 273.335938 229.195312 L 273.59375 229.53125 C 273.582031 229.863281 273.582031 229.863281 273.4375 230.15625 C 272.519531 230.820312 271.574219 231.007812 270.457031 231.128906 C 269.582031 231.167969 268.78125 230.945312 267.96875 230.625 C 267.226562 230.21875 266.753906 229.742188 266.25 229.0625 C 265.796875 228.265625 265.621094 227.59375 265.585938 226.691406 C 265.601562 225.863281 265.75 225.128906 266.09375 224.375 C 266.632812 223.558594 267.304688 222.988281 268.140625 222.484375 C 269.199219 221.980469 270.679688 221.996094 271.777344 222.363281 M 269.101562 224.414062 C 268.746094 224.691406 268.503906 224.917969 268.28125 225.3125 L 268.4375 225.78125 L 271.71875 225.78125 L 271.875 225.3125 C 271.53125 224.8125 271.53125 224.8125 271.09375 224.375 C 270.386719 224.140625 269.789062 224.101562 269.101562 224.414062 M 242.628906 222.363281 C 243.332031 222.628906 243.847656 223.066406 244.375 223.59375 C 243.878906 224.101562 243.375 224.566406 242.8125 225 C 242.1875 224.6875 242.1875 224.6875 241.914062 224.511719 C 241.484375 224.34375 241.089844 224.3125 240.628906 224.324219 C 240.265625 224.367188 240.265625 224.367188 239.792969 224.640625 C 239.351562 225.023438 239.121094 225.234375 238.90625 225.78125 C 238.816406 226.535156 238.839844 227.164062 239.101562 227.882812 C 239.382812 228.292969 239.558594 228.515625 240 228.75 C 240.515625 228.910156 240.515625 228.910156 241.09375 228.90625 C 241.425781 228.8125 241.730469 228.699219 242.046875 228.5625 L 242.34375 228.4375 L 242.648438 228.308594 L 242.96875 228.28125 C 243.335938 228.503906 243.335938 228.503906 243.710938 228.820312 L 244.089844 229.128906 L 244.375 229.375 C 244.226562 229.730469 244.101562 229.96875 243.808594 230.222656 C 243.03125 230.707031 242.324219 231.011719 241.40625 231.09375 C 240.441406 231.117188 239.585938 231.011719 238.703125 230.617188 C 237.933594 230.191406 237.359375 229.632812 236.875 228.90625 C 236.363281 227.957031 236.46875 226.816406 236.496094 225.769531 C 236.53125 225.136719 236.632812 224.644531 236.941406 224.082031 C 237.472656 223.375 238.121094 222.894531 238.90625 222.5 C 240.058594 222.023438 241.433594 222.019531 242.628906 222.363281 " fill-opacity="1" fill-rule="nonzero"/><path fill="#00607f" d="M 105.597656 120.585938 L 105.933594 120.589844 C 106.878906 120.605469 107.65625 120.695312 108.503906 121.132812 C 109.433594 121.765625 110.1875 122.800781 110.710938 123.789062 C 111.09375 124.78125 111.078125 125.832031 110.9375 126.875 C 110.566406 128.039062 109.945312 128.914062 109.050781 129.730469 L 108.75 130 L 108.4375 130.335938 C 108.125 130.625 108.125 130.625 107.851562 130.742188 C 107.3125 130.800781 106.773438 130.804688 106.230469 130.800781 L 105.886719 130.800781 C 105.039062 130.800781 105.039062 130.800781 104.6875 130.625 C 104.9375 131.769531 105.269531 132.816406 105.738281 133.890625 C 106.5625 135.898438 106.5625 135.898438 106.5625 136.875 C 107.988281 136.507812 107.988281 136.507812 109.367188 135.996094 C 109.84375 135.78125 109.84375 135.78125 110.363281 135.636719 C 110.835938 135.5 111.273438 135.339844 111.730469 135.15625 C 113.433594 134.464844 113.433594 134.464844 114.375 134.53125 L 114.53125 134.6875 C 114.546875 134.902344 114.554688 135.117188 114.558594 135.332031 C 114.597656 136.972656 114.65625 138.292969 115.523438 139.722656 C 116.035156 140.476562 116.53125 140.851562 117.34375 141.25 L 117.714844 141.496094 C 118.183594 141.75 118.460938 141.773438 118.988281 141.765625 L 119.472656 141.761719 C 119.636719 141.757812 119.800781 141.753906 119.96875 141.746094 L 120.480469 141.742188 C 120.894531 141.734375 121.304688 141.726562 121.71875 141.71875 C 121.1875 142.070312 121.027344 142.179688 120.390625 142.234375 C 119.28125 142.28125 118.292969 142.289062 117.265625 141.808594 C 116.257812 141.21875 115.375 140.484375 114.78125 139.46875 C 114.292969 138.421875 114.1875 137.417969 114.128906 136.28125 L 114.109375 135.90625 C 114.09375 135.605469 114.078125 135.300781 114.0625 135 C 113.375 135.097656 112.753906 135.265625 112.097656 135.496094 L 111.507812 135.703125 L 110.898438 135.917969 C 108.664062 136.703125 108.664062 136.703125 107.707031 137.011719 L 107.351562 137.128906 C 107.03125 137.1875 107.03125 137.1875 106.6875 137.136719 L 106.40625 137.03125 C 106.246094 136.785156 106.246094 136.785156 106.125 136.4375 L 105.96875 136.015625 L 105.78125 135.46875 L 105.515625 134.714844 C 105.324219 134.175781 105.136719 133.636719 104.949219 133.09375 C 104.78125 132.609375 104.605469 132.128906 104.421875 131.652344 C 104.238281 131.152344 104.167969 130.835938 104.21875 130.3125 C 104.683594 130.171875 105.003906 130.160156 105.480469 130.246094 C 106.34375 130.351562 107.132812 130.238281 107.96875 130 C 108.824219 129.574219 109.453125 128.898438 110 128.125 C 110.496094 127.199219 110.550781 126.226562 110.523438 125.1875 C 110.421875 124.238281 110.117188 123.519531 109.574219 122.738281 C 109.109375 122.167969 108.625 121.675781 107.980469 121.316406 C 106.910156 120.917969 105.652344 120.9375 104.53125 121.09375 C 103.972656 121.265625 103.5625 121.488281 103.125 121.875 C 102.867188 122.160156 102.628906 122.441406 102.402344 122.757812 L 102.1875 122.96875 L 101.5625 122.96875 C 101.457031 122.722656 101.351562 122.472656 101.25 122.226562 L 101.074219 121.808594 C 100.9375 121.40625 100.9375 121.40625 100.9375 120.78125 L 101.25 120.78125 C 101.328125 121.007812 101.40625 121.238281 101.484375 121.464844 L 101.617188 121.847656 C 101.71875 122.1875 101.71875 122.1875 101.71875 122.5 L 101.96875 122.277344 L 102.304688 121.984375 L 102.632812 121.691406 C 103.597656 120.871094 104.3125 120.570312 105.59375 120.585938 M 107.394531 110.148438 L 107.65625 110.3125 L 107.582031 110.554688 C 107.371094 111.546875 107.363281 112.714844 107.601562 113.703125 C 107.957031 114.574219 108.53125 115.300781 109.21875 115.9375 C 109.574219 116.1875 109.917969 116.367188 110.3125 116.5625 L 110.59375 116.734375 C 111.054688 116.921875 111.4375 116.910156 111.933594 116.902344 L 112.453125 116.902344 C 112.949219 116.875 113.417969 116.8125 113.90625 116.71875 L 113.90625 117.03125 C 113.140625 117.378906 112.496094 117.417969 111.660156 117.402344 C 110.695312 117.300781 109.75 117.050781 108.90625 116.5625 C 108.628906 116.09375 108.628906 116.09375 108.4375 115.625 C 108.089844 115.148438 107.835938 114.859375 107.34375 114.53125 C 106.890625 113.34375 106.96875 112.035156 107.03125 110.78125 L 107.1875 110.46875 L 105.3125 110.78125 L 105.3125 111.09375 C 104.976562 111.207031 104.640625 111.324219 104.308594 111.4375 L 103.992188 111.542969 C 103.410156 111.738281 102.820312 111.917969 102.226562 112.085938 L 101.863281 112.1875 C 101.625 112.25 101.390625 112.316406 101.152344 112.375 C 100.867188 112.457031 100.589844 112.554688 100.3125 112.65625 L 100.15625 113.125 L 98.90625 113.28125 C 99.050781 114.457031 99.378906 115.507812 99.8125 116.601562 C 100.070312 117.257812 100.28125 117.910156 100.46875 118.59375 L 100.605469 119.058594 L 100.730469 119.492188 L 100.859375 119.929688 C 100.9375 120.3125 100.9375 120.3125 100.78125 120.78125 C 100.285156 119.46875 99.820312 118.148438 99.363281 116.824219 C 99.222656 116.414062 99.078125 116.007812 98.933594 115.597656 C 98.847656 115.347656 98.757812 115.09375 98.671875 114.84375 L 98.546875 114.488281 C 98.269531 113.679688 98.269531 113.679688 98.332031 113.253906 L 98.4375 112.96875 C 98.699219 112.828125 98.699219 112.828125 99.042969 112.734375 C 99.582031 112.582031 100.113281 112.40625 100.636719 112.210938 C 101.710938 111.820312 102.789062 111.449219 103.867188 111.078125 C 104.675781 110.800781 105.464844 110.5 106.25 110.15625 C 106.730469 110.011719 106.925781 109.957031 107.394531 110.148438 M 130.3125 110.792969 C 131.367188 111.148438 132.238281 111.722656 132.980469 112.550781 C 133.621094 113.40625 134.058594 114.253906 134.21875 115.3125 C 134.304688 116.46875 134.359375 117.648438 133.925781 118.742188 C 133.457031 119.601562 132.859375 120.398438 132.03125 120.9375 L 131.71875 120.9375 L 131.71875 120.625 C 131.941406 120.417969 131.941406 120.417969 132.238281 120.1875 C 132.707031 119.800781 132.984375 119.4375 133.28125 118.90625 L 133.59375 118.90625 L 133.585938 118.457031 C 133.59375 117.96875 133.59375 117.96875 133.75 117.65625 C 133.878906 115.980469 133.878906 115.980469 133.476562 114.375 C 133.359375 114.164062 133.242188 113.957031 133.125 113.75 L 132.992188 113.421875 C 132.796875 112.9375 132.59375 112.589844 132.207031 112.230469 C 131.339844 111.601562 130.429688 111.265625 129.375 111.09375 C 128.515625 111.03125 127.71875 111.0625 126.875 111.25 L 126.875 111.5625 L 126.40625 111.5625 L 126.40625 111.875 C 126.152344 112.039062 125.890625 112.195312 125.625 112.34375 C 125.3125 112.550781 125 112.757812 124.6875 112.96875 L 124.6875 112.5 C 125.199219 111.867188 125.820312 111.382812 126.550781 111.03125 C 127.839844 110.5625 128.980469 110.460938 130.3125 110.789062 M 120.46875 105.3125 C 120.898438 105.371094 120.898438 105.371094 121.25 105.46875 L 121.40625 106.09375 L 121.09375 106.09375 L 120.9375 105.78125 C 120.542969 105.679688 120.542969 105.679688 120.15625 105.625 L 120.15625 105.9375 C 119.828125 106.042969 119.5 106.148438 119.171875 106.25 L 118.613281 106.425781 C 118.125 106.5625 118.125 106.5625 117.65625 106.5625 L 117.65625 106.875 L 117.089844 107.039062 L 116.355469 107.257812 L 115.984375 107.363281 L 115.625 107.46875 L 115.296875 107.566406 C 115.039062 107.644531 114.785156 107.726562 114.53125 107.8125 L 115.34375 108.746094 C 115.625 109.074219 115.625 109.074219 115.976562 109.375 C 116.375 109.832031 116.566406 110.351562 116.71875 110.9375 L 116.71875 111.5625 L 117.03125 111.5625 C 117.105469 112.550781 117.039062 113.378906 116.636719 114.292969 C 116.101562 115.214844 115.296875 116.164062 114.375 116.71875 L 113.90625 116.5625 L 114.308594 116.328125 C 115.0625 115.816406 115.6875 115.167969 116.109375 114.355469 C 116.457031 113.4375 116.503906 112.53125 116.40625 111.5625 C 116.289062 110.847656 116.109375 110.246094 115.691406 109.648438 C 115.296875 109.183594 114.863281 108.761719 114.382812 108.390625 L 114.0625 108.125 L 114.0625 107.65625 C 114.265625 107.5625 114.472656 107.464844 114.679688 107.375 L 115.023438 107.214844 C 116.25 106.710938 117.535156 106.351562 118.800781 105.960938 L 119.183594 105.84375 L 119.523438 105.738281 C 119.851562 105.632812 119.851562 105.632812 120.171875 105.453125 Z M 127.8125 124.6875 L 128.125 124.84375 C 128.257812 125.167969 128.257812 125.167969 128.382812 125.589844 L 128.527344 126.050781 L 128.671875 126.535156 C 128.765625 126.847656 128.863281 127.160156 128.960938 127.472656 L 129.085938 127.898438 C 129.207031 128.28125 129.207031 128.28125 129.390625 128.605469 C 129.53125 128.90625 129.53125 128.90625 129.53125 129.53125 L 129.160156 129.652344 C 127.78125 130.109375 126.402344 130.578125 125.027344 131.054688 L 124.480469 131.246094 L 123.960938 131.421875 L 123.496094 131.585938 C 123.128906 131.710938 123.128906 131.710938 122.8125 131.875 C 123.054688 132.472656 123.441406 132.84375 123.90625 133.28125 L 123.75 133.59375 C 123.539062 133.402344 123.332031 133.210938 123.125 133.019531 L 122.773438 132.695312 C 122.5 132.34375 122.5 132.34375 122.414062 131.941406 L 122.5 131.5625 C 123.660156 130.671875 125.308594 130.367188 126.695312 129.96875 C 127.492188 129.738281 128.277344 129.488281 129.0625 129.21875 L 128.9375 128.910156 L 128.769531 128.496094 L 128.605469 128.089844 C 128.289062 127.273438 128.074219 126.511719 127.949219 125.644531 Z M 123.90625 133.59375 C 124.335938 134.066406 124.566406 134.570312 124.753906 135.175781 C 124.976562 136.28125 124.992188 137.488281 124.734375 138.589844 C 124.367188 139.589844 123.792969 140.480469 122.996094 141.195312 C 122.707031 141.417969 122.707031 141.417969 122.1875 141.71875 L 121.71875 141.5625 L 122.03125 141.25 L 122.5 141.25 L 122.5 140.9375 L 122.863281 140.742188 C 123.316406 140.492188 123.316406 140.492188 123.546875 140 L 123.75 139.53125 L 124.0625 139.0625 C 124.332031 138.28125 124.429688 137.558594 124.425781 136.738281 L 124.421875 136.40625 C 124.40625 135.535156 124.234375 134.867188 123.90625 134.0625 Z M 121.40625 106.09375 C 121.832031 106.519531 121.976562 107.023438 122.179688 107.578125 L 122.304688 107.921875 C 122.5625 108.628906 122.792969 109.339844 123.003906 110.066406 C 123.164062 110.59375 123.328125 111.117188 123.503906 111.640625 L 123.691406 112.203125 L 123.90625 112.65625 C 124.222656 112.882812 124.222656 112.882812 124.53125 112.96875 L 124.375 113.4375 C 124.101562 113.339844 124.101562 113.339844 123.75 113.125 C 123.128906 112.347656 122.90625 111.550781 122.65625 110.597656 C 122.371094 109.550781 122.066406 108.539062 121.679688 107.527344 C 121.515625 107.050781 121.449219 106.59375 121.40625 106.09375 M 131.25 120.9375 L 131.71875 121.09375 C 131.070312 121.496094 130.449219 121.730469 129.683594 121.765625 C 127.90625 121.789062 127.90625 121.789062 127.1875 121.5625 C 127.253906 122.1875 127.351562 122.714844 127.589844 123.300781 C 127.78125 123.785156 127.863281 124.160156 127.8125 124.6875 L 127.5 124.6875 L 127.410156 124.292969 L 127.285156 123.777344 L 127.164062 123.269531 C 127.046875 122.789062 127.046875 122.789062 126.71875 122.34375 C 126.679688 121.945312 126.679688 121.945312 126.71875 121.5625 L 127.03125 121.25 C 127.351562 121.21875 127.351562 121.21875 127.746094 121.230469 C 127.890625 121.234375 128.03125 121.234375 128.179688 121.238281 L 129.078125 121.261719 C 129.882812 121.277344 130.488281 121.222656 131.25 120.9375 " fill-opacity="1" fill-rule="nonzero"/><path fill="#00607f" d="M 126.875 111.5625 L 126.40625 111.5625 L 126.40625 111.875 C 126.152344 112.039062 125.890625 112.195312 125.625 112.34375 C 125.3125 112.550781 125 112.757812 124.6875 112.96875 L 124.6875 112.5 C 124.871094 112.253906 124.871094 112.253906 125.117188 112.011719 L 125.359375 111.765625 C 125.867188 111.375 126.28125 111.371094 126.875 111.5625 M 125 130.46875 L 125.46875 130.625 L 124.53125 130.9375 L 124.53125 131.25 L 123.28125 131.25 C 123.84375 130.957031 124.410156 130.695312 125 130.46875 " fill-opacity="1" fill-rule="nonzero"/><path fill="#00516a" d="M 127.65625 124.6875 C 127.988281 125.1875 128.046875 125.511719 128.125 126.09375 C 127.890625 125.917969 127.890625 125.917969 127.65625 125.625 C 127.628906 125.128906 127.628906 125.128906 127.65625 124.6875 " fill-opacity="1" fill-rule="nonzero"/></svg>