<?xml version="1.0" encoding="UTF-8"?>
<svg version="1.1" xmlns="http://www.w3.org/2000/svg" width="318" height="177">
<path d="M0 0 C104.94 0 209.88 0 318 0 C318 58.41 318 116.82 318 177 C213.06 177 108.12 177 0 177 C0 118.59 0 60.18 0 0 Z " fill="#4EA1E2" transform="translate(0,0)"/>
<path d="M0 0 C4.66689242 0.22470223 6.61435082 2.2439534 9.60595703 5.50927734 C10.14849121 6.12496582 10.69102539 6.7406543 11.25 7.375 C11.81702637 7.99971191 12.38405273 8.62442383 12.96826172 9.26806641 C17.26240754 14.0405536 21.29845858 18.98326463 25.1953125 24.0859375 C25.79085937 24.71757813 26.38640625 25.34921875 27 26 C30.12778581 26.34113561 30.12778581 26.34113561 32.1640625 23.98046875 C32.97617188 23.05878906 33.78828125 22.13710938 34.625 21.1875 C35.06086426 20.69628662 35.49672852 20.20507324 35.94580078 19.69897461 C39.75359745 15.37305888 43.39712896 10.91392885 46.9921875 6.41015625 C50.8961634 1.72386611 50.8961634 1.72386611 53 0 C54.65 0 56.3 0 58 0 C58 19.14 58 38.28 58 58 C54.04 58 50.08 58 46 58 C45.67 47.44 45.34 36.88 45 26 C39.72 31.61 34.44 37.22 29 43 C21.046875 36.18303571 21.046875 36.18303571 18.1875 32.875 C17.34251953 31.91207031 17.34251953 31.91207031 16.48046875 30.9296875 C15.02235852 29.02914276 13.9908274 27.17498697 13 25 C12.34 25 11.68 25 11 25 C11 35.56 11 46.12 11 57 C7.37 57 3.74 57 0 57 C0 49.08 0 41.16 0 33 C1.65 32.34 3.3 31.68 5 31 C5.33 28.69 5.66 26.38 6 24 C6.78375 23.71125 7.5675 23.4225 8.375 23.125 C11.09671632 22.15087746 11.09671632 22.15087746 13 20 C13.32618658 16.93384617 13.42932497 14.83181713 12 12.0625 C8.65791742 10.28701863 5.65183129 11.34147305 2 12 C-0.60018816 8.09971775 -0.15085514 4.52565431 0 0 Z " fill="#F5FCFD" transform="translate(151,41)"/>
<path d="M0 0 C4.65123401 1.328924 7.99780575 3.3318705 12 6 C17.88756009 8.48782615 23.64029711 8.37485958 29.92382812 8.47851562 C35.33018123 8.65541944 39.32013252 9.17584205 44 12 C47.98715528 17.23479162 48.7509225 21.98588354 49.25 28.4375 C49.32734375 29.26443359 49.4046875 30.09136719 49.484375 30.94335938 C49.67097133 32.9609322 49.83757214 34.98033778 50 37 C47.18918055 34.35232364 45.86039586 31.86847698 44.3125 28.3125 C43.87550781 27.31863281 43.43851563 26.32476562 42.98828125 25.30078125 C42.49908203 24.16189453 42.49908203 24.16189453 42 23 C42.44602543 29.9603442 43.07785526 36.84352019 44.0625 43.75 C44.83182112 49.24922135 45.19456218 54.45497777 45 60 C40.68771007 56.1950383 38.11180096 52.03584079 35.33203125 47.01171875 C34.89246094 46.34785156 34.45289063 45.68398437 34 45 C33.34 45 32.68 45 32 45 C30.24924221 47.23872238 28.61098791 49.47656754 27 51.8125 C26.54882812 52.45509766 26.09765625 53.09769531 25.6328125 53.75976562 C23.72271892 56.48645247 21.84679755 59.22980367 20 62 C19.34 61.67 18.68 61.34 18 61 C18.26554687 60.10539062 18.53109375 59.21078125 18.8046875 58.2890625 C25.28355412 38.09715488 25.28355412 38.09715488 22 18 C19.63363287 16.53658875 17.21725333 15.43047293 14.671875 14.30859375 C8.22206745 11.14969677 3.58610694 6.12626601 0 0 Z " fill="#F7FCFD" transform="translate(92,37)"/>
<path d="M0 0 C0.99 2.31 1.98 4.62 3 7 C3.33 6.67 3.66 6.34 4 6 C7.4375 5.8125 7.4375 5.8125 11 6 C13.32528287 8.32528287 13.29511025 8.84665898 13.3125 12 C13.32925781 12.70125 13.34601563 13.4025 13.36328125 14.125 C13.24339844 14.74375 13.12351563 15.3625 13 16 C10 18 10 18 6 18 C6.495 19.11375 6.495 19.11375 7 20.25 C8 23 8 23 8 27 C5.69 27.66 3.38 28.32 1 29 C1.66 29.99 2.32 30.98 3 32 C2.54716981 38.45283019 2.54716981 38.45283019 0 41 C-3.13704316 41.333728 -5.16554166 41.52849028 -7.875 39.8125 C-9.34781139 37.43963721 -9.22223194 35.74086056 -9 33 C-11.97 33.66 -14.94 34.32 -18 35 C-20 32 -20 32 -20 28 C-18.7934375 27.5359375 -18.7934375 27.5359375 -17.5625 27.0625 C-15.10919595 26.23664655 -15.10919595 26.23664655 -14 25 C-13.66656449 22.54207971 -13.66656449 22.54207971 -14 20 C-17.8503105 17.43312633 -19.58569763 18.16711276 -24 19 C-24.50367757 17.54293274 -25.00282556 16.08429904 -25.5 14.625 C-25.7784375 13.81289063 -26.056875 13.00078125 -26.34375 12.1640625 C-27 10 -27 10 -27 8 C-25.70990357 7.49596232 -24.41786211 6.99690074 -23.125 6.5 C-22.04605469 6.08234375 -22.04605469 6.08234375 -20.9453125 5.65625 C-19 5 -19 5 -17 5 C-17 6.65 -17 8.3 -17 10 C-14.03 10.33 -11.06 10.66 -8 11 C-8 9.906875 -8 8.81375 -8 7.6875 C-8 5.45833333 -8 3.22916667 -8 1 C-5.10765685 0.17361624 -3.11257569 0 0 0 Z " fill="#094C69" transform="translate(84,10)"/>
<path d="M0 0 C5.1665625 -0.0309375 5.1665625 -0.0309375 10.4375 -0.0625 C11.52474365 -0.071604 12.6119873 -0.08070801 13.73217773 -0.09008789 C15.00750366 -0.09383423 15.00750366 -0.09383423 16.30859375 -0.09765625 C17.62041626 -0.10551147 17.62041626 -0.10551147 18.95874023 -0.11352539 C21 0 21 0 22 1 C22 2.65 22 4.3 22 6 C16.72 6 11.44 6 6 6 C6 7.98 6 9.96 6 12 C9.96 12 13.92 12 18 12 C18 13.65 18 15.3 18 17 C14.04 17 10.08 17 6 17 C6 18.98 6 20.96 6 23 C7.60681641 22.98259766 7.60681641 22.98259766 9.24609375 22.96484375 C10.64322743 22.95546701 12.04036299 22.94636669 13.4375 22.9375 C14.14455078 22.92912109 14.85160156 22.92074219 15.58007812 22.91210938 C17.38693559 22.90346412 19.19387603 22.94779989 21 23 C22 24 22 24 22 29 C14.74 29 7.48 29 0 29 C0 19.43 0 9.86 0 0 Z " fill="#F6FCFD" transform="translate(261,105)"/>
<path d="M0 0 C7.26 0 14.52 0 22 0 C22 1.98 22 3.96 22 6 C16.72 6 11.44 6 6 6 C6 7.98 6 9.96 6 12 C9.96 12 13.92 12 18 12 C18 13.65 18 15.3 18 17 C14.04 17 10.08 17 6 17 C6 19.31 6 21.62 6 24 C11.28 24 16.56 24 22 24 C22 25.65 22 27.3 22 29 C14.74 29 7.48 29 0 29 C0 19.43 0 9.86 0 0 Z " fill="#F8FDFD" transform="translate(175,105)"/>
<path d="M0 0 C3.37056985 1.68528493 4.88746114 2.65130249 7.3828125 5.22265625 C8.29740234 6.15368164 8.29740234 6.15368164 9.23046875 7.10351562 C9.85566406 7.74998047 10.48085937 8.39644531 11.125 9.0625 C12.37536074 10.3472393 13.62786516 11.62989681 14.8828125 12.91015625 C15.43340332 13.47871338 15.98399414 14.04727051 16.55126953 14.63305664 C17.97414012 16.10729905 17.97414012 16.10729905 20 17 C20 11.72 20 6.44 20 1 C21.65 1 23.3 1 25 1 C25 10.24 25 19.48 25 29 C22 29 22 29 20.45703125 27.53125 C19.91433594 26.8609375 19.37164062 26.190625 18.8125 25.5 C15.10722798 21.06634117 11.12127481 17.04897174 7 13 C6.67 18.28 6.34 23.56 6 29 C4.02 29 2.04 29 0 29 C0 19.43 0 9.86 0 0 Z " fill="#F7FCFD" transform="translate(202,105)"/>
<path d="M0 0 C0.83265381 0.00523682 1.66530762 0.01047363 2.52319336 0.01586914 C3.42231445 0.0190918 4.32143555 0.02231445 5.24780273 0.02563477 C6.66609375 0.03820312 6.66609375 0.03820312 8.11303711 0.05102539 C9.06243164 0.05553711 10.01182617 0.06004883 10.98999023 0.06469727 C13.34356776 0.07652429 15.69702188 0.09300514 18.05053711 0.11352539 C18.05053711 2.09352539 18.05053711 4.07352539 18.05053711 6.11352539 C13.10053711 6.11352539 8.15053711 6.11352539 3.05053711 6.11352539 C3.05053711 8.09352539 3.05053711 10.07352539 3.05053711 12.11352539 C7.01053711 12.11352539 10.97053711 12.11352539 15.05053711 12.11352539 C15.05053711 13.76352539 15.05053711 15.41352539 15.05053711 17.11352539 C11.09053711 17.11352539 7.13053711 17.11352539 3.05053711 17.11352539 C3.05053711 19.42352539 3.05053711 21.73352539 3.05053711 24.11352539 C8.00053711 24.11352539 12.95053711 24.11352539 18.05053711 24.11352539 C18.05053711 25.76352539 18.05053711 27.41352539 18.05053711 29.11352539 C11.12053711 29.11352539 4.19053711 29.11352539 -2.94946289 29.11352539 C-2.97237777 25.14415989 -2.99230304 21.17496219 -3.00439453 17.20556641 C-3.00943346 15.85432153 -3.01626466 14.50308213 -3.02490234 13.15185547 C-3.03698708 11.21332105 -3.04216117 9.27474739 -3.04711914 7.33618164 C-3.05235596 6.16837158 -3.05759277 5.00056152 -3.06298828 3.79736328 C-2.90952816 0.16943401 -2.90952816 0.16943401 0 0 Z " fill="#F6FDFD" transform="translate(61.949462890625,104.886474609375)"/>
<path d="M0 0 C1.57394531 -0.05607422 1.57394531 -0.05607422 3.1796875 -0.11328125 C6.76396444 0.40487019 7.87527959 1.55740761 10.125 4.3125 C8.93359375 5.84375 8.93359375 5.84375 7.125 7.3125 C4.52743972 7.27780804 2.1509942 6.80589261 -0.40234375 6.34375 C-2.93980678 6.11777416 -2.93980678 6.11777416 -5.171875 7.5 C-7.04554125 9.17278445 -7.04554125 9.17278445 -7.30078125 11.46875 C-7.26339844 12.2421875 -7.22601563 13.015625 -7.1875 13.8125 C-7.16300781 14.5859375 -7.13851562 15.359375 -7.11328125 16.15625 C-6.93144612 18.49334889 -6.93144612 18.49334889 -5.875 21.3125 C-2.575 21.6425 0.725 21.9725 4.125 22.3125 C4.125 20.3325 4.125 18.3525 4.125 16.3125 C3.135 16.3125 2.145 16.3125 1.125 16.3125 C1.125 14.6625 1.125 13.0125 1.125 11.3125 C4.095 11.3125 7.065 11.3125 10.125 11.3125 C10.125 15.9325 10.125 20.5525 10.125 25.3125 C4.45329136 28.14835432 2.06007991 29.16715151 -3.875 28.3125 C-7.61144125 27.01911649 -9.53041418 25.67522191 -12.25 22.8125 C-14.52878598 17.90434558 -14.92153859 13.62983943 -13.875 8.3125 C-10.38577061 2.23826225 -6.90817282 0.16045878 0 0 Z " fill="#F0FAFC" transform="translate(159.875,105.6875)"/>
<path d="M0 0 C2.79736328 -0.34057617 2.79736328 -0.34057617 6.3203125 -0.29296875 C7.57714844 -0.28330078 8.83398438 -0.27363281 10.12890625 -0.26367188 C12.10697266 -0.2259668 12.10697266 -0.2259668 14.125 -0.1875 C15.46482903 -0.17245483 16.80467404 -0.15876613 18.14453125 -0.14648438 C21.43008842 -0.11102872 24.71484582 -0.06160849 28 0 C28 2.64 28 5.28 28 8 C28.99 8 29.98 8 31 8 C31 5.69 31 3.38 31 1 C31.99 1 32.98 1 34 1 C34.05389087 2.95803507 34.09274217 4.91648909 34.125 6.875 C34.14820313 7.96554688 34.17140625 9.05609375 34.1953125 10.1796875 C34 13 34 13 32 15 C29.5625 15.375 29.5625 15.375 27 15 C25.375 13 25.375 13 24 11 C23.01 11 22.02 11 21 11 C21 8.69 21 6.38 21 4 C20.01 4 19.02 4 18 4 C18 6.31 18 8.62 18 11 C17.01 11 16.02 11 15 11 C15 8.69 15 6.38 15 4 C14.01 4 13.02 4 12 4 C12 6.31 12 8.62 12 11 C10.04196493 11.05389087 8.08351091 11.09274217 6.125 11.125 C5.03445312 11.14820313 3.94390625 11.17140625 2.8203125 11.1953125 C0 11 0 11 -2 9 C-2.34490322 4.94738713 -2.30163882 3.45245824 0 0 Z " fill="#5F9ECF" transform="translate(248,141)"/>
<path d="M0 0 C0.33 0 0.66 0 1 0 C1 9.24 1 18.48 1 28 C0.67 27.34 0.34 26.68 0 26 C-1.98 26.99 -1.98 26.99 -4 28 C-4 26.35 -4 24.7 -4 23 C-9.28 23 -14.56 23 -20 23 C-20 20.69 -20 18.38 -20 16 C-16.04 16 -12.08 16 -8 16 C-8 14.35 -8 12.7 -8 11 C-11.96 11 -15.92 11 -20 11 C-20 9.02 -20 7.04 -20 5 C-17.02077407 4.97316013 -14.04178705 4.95323963 -11.0625 4.9375 C-9.78729492 4.92493164 -9.78729492 4.92493164 -8.48632812 4.91210938 C-7.67744141 4.90888672 -6.86855469 4.90566406 -6.03515625 4.90234375 C-5.2862915 4.89710693 -4.53742676 4.89187012 -3.76586914 4.88647461 C-2 5 -2 5 -1 6 C-0.67 4.02 -0.34 2.04 0 0 Z " fill="#6BB0D7" transform="translate(201,106)"/>
<path d="M0 0 C3.1875 1.5 3.1875 1.5 5 3 C3.8046875 5.03515625 3.8046875 5.03515625 2 7 C-0.3046875 6.99609375 -0.3046875 6.99609375 -2.875 6.4375 C-7.23860521 5.80760826 -7.23860521 5.80760826 -11.1875 8 C-13.31242403 10.93294585 -13.31242403 10.93294585 -13 14.625 C-11.97127846 18.60771764 -11.97127846 18.60771764 -9 21 C-5.69320035 21.24049452 -2.9338605 21.28534626 0.25 20.3125 C0.8275 20.209375 1.405 20.10625 2 20 C3.75 21.3125 3.75 21.3125 5 23 C5 23.66 5 24.32 5 25 C-1.00598594 27.9417074 -5.4986182 29.12044218 -12.125 27 C-16.49055289 23.96309364 -19.3167739 20.17848666 -20.44921875 14.91015625 C-20.73163273 9.83644303 -19.24667499 6.77316283 -16 3 C-11.4959553 -1.09458609 -5.75276219 -0.67273681 0 0 Z " fill="#EDF9FD" transform="translate(251,106)"/>
<path d="M0 0 C8.25 0 16.5 0 25 0 C25 1.98 25 3.96 25 6 C21.7 6 18.4 6 15 6 C15 13.59 15 21.18 15 29 C13.02 29 11.04 29 9 29 C9 21.41 9 13.82 9 6 C6.03 6 3.06 6 0 6 C0 4.02 0 2.04 0 0 Z " fill="#F9FDFE" transform="translate(31,105)"/>
<path d="M0 0 C1.98 0 3.96 0 6 0 C6 7.59 6 15.18 6 23 C10.95 23 15.9 23 21 23 C21 24.98 21 26.96 21 29 C14.07 29 7.14 29 0 29 C0 19.43 0 9.86 0 0 Z " fill="#ECF8FC" transform="translate(111,105)"/>
<path d="M0 0 C1.65 0 3.3 0 5 0 C5 7.26 5 14.52 5 22 C10.28 22 15.56 22 21 22 C21 23.98 21 25.96 21 28 C14.07 28 7.14 28 0 28 C0 18.76 0 9.52 0 0 Z " fill="#F0FAFD" transform="translate(86,106)"/>
<path d="M0 0 C1.41152344 -0.00386719 1.41152344 -0.00386719 2.8515625 -0.0078125 C5.375 0.125 5.375 0.125 8.375 1.125 C8.375 1.785 8.375 2.445 8.375 3.125 C9.365 3.455 10.355 3.785 11.375 4.125 C11.045 5.775 10.715 7.425 10.375 9.125 C8.395 9.785 6.415 10.445 4.375 11.125 C6.85 11.62 6.85 11.62 9.375 12.125 C9.375 12.455 9.375 12.785 9.375 13.125 C6.405 13.125 3.435 13.125 0.375 13.125 C0.375 14.775 0.375 16.425 0.375 18.125 C1.365 18.125 2.355 18.125 3.375 18.125 C3.375 20.105 3.375 22.085 3.375 24.125 C-3.79383117 24.60292208 -3.79383117 24.60292208 -7.125 22.6875 C-9.36375025 18.86296832 -9.50235343 15.44063039 -8.625 11.125 C-6.75 8.5 -6.75 8.5 -3.625 7.125 C-0.22180418 7.11460856 3.0288121 7.5272344 6.375 8.125 C7.035 7.135 7.695 6.145 8.375 5.125 C4.92416005 2.82444003 3.50324272 2.85489744 -0.5625 2.875 C-1.60277344 2.86984375 -2.64304688 2.8646875 -3.71484375 2.859375 C-6.55598495 3.11870064 -8.21207634 3.65980298 -10.625 5.125 C-10.625 3.805 -10.625 2.485 -10.625 1.125 C-7.02459663 0.30018032 -3.69148597 -0.01016938 0 0 Z " fill="#62ADD9" transform="translate(160.625,103.875)"/>
<path d="M0 0 C1.98 0 3.96 0 6 0 C6 9.57 6 19.14 6 29 C4.02 29 2.04 29 0 29 C0 19.43 0 9.86 0 0 Z " fill="#EDF7FA" transform="translate(136,105)"/>
<path d="M0 0 C2.4375 1.625 2.4375 1.625 4 4 C4.60024477 7.60146865 4.45562482 9.27859404 2.5 12.375 C-1.26897129 14.82483134 -3.54334931 14.5659239 -8 14 C-10.6923481 11.81246717 -10.93936827 10.41576045 -11.4375 7 C-11 4 -11 4 -9.4375 1.625 C-6.06489221 -0.62340519 -3.97487617 -0.56783945 0 0 Z " fill="#F3FAFD" transform="translate(128,30)"/>
<path d="M0 0 C0.33 0 0.66 0 1 0 C1 9.57 1 19.14 1 29 C2.98 29 4.96 29 7 29 C7 19.76 7 10.52 7 1 C7.33 1 7.66 1 8 1 C8.495 6.445 8.495 6.445 9 12 C9.66 11.67 10.32 11.34 11 11 C12.30825934 18.73579434 12.18549027 23.27784895 8 30 C-2.66666667 30 -13.33333333 30 -24 30 C-24 29.67 -24 29.34 -24 29 C-17.07 29 -10.14 29 -3 29 C-3 27.02 -3 25.04 -3 23 C-2.01 23.33 -1.02 23.66 0 24 C-0.03552979 23.30849854 -0.07105957 22.61699707 -0.10766602 21.90454102 C-0.26465181 18.79077094 -0.41368123 15.67667062 -0.5625 12.5625 C-0.61857422 11.47388672 -0.67464844 10.38527344 -0.73242188 9.26367188 C-0.78076172 8.22919922 -0.82910156 7.19472656 -0.87890625 6.12890625 C-0.9260376 5.17056885 -0.97316895 4.21223145 -1.02172852 3.22485352 C-1 1 -1 1 0 0 Z " fill="#69ADD4" transform="translate(135,105)"/>
<path d="M0 0 C0.33 0 0.66 0 1 0 C1.625 2.875 1.625 2.875 2 6 C1.34 6.66 0.68 7.32 0 8 C-0.42137285 9.93991404 -0.42137285 9.93991404 -0.5625 12.0625 C-1 16 -1 16 -2 17 C-4.01964199 17.07244053 -6.04167124 17.08377188 -8.0625 17.0625 C-9.71958984 17.04896484 -9.71958984 17.04896484 -11.41015625 17.03515625 C-12.26480469 17.02355469 -13.11945313 17.01195313 -14 17 C-14 18.65 -14 20.3 -14 22 C-9.38 22 -4.76 22 0 22 C0 22.33 0 22.66 0 23 C-4.95 23 -9.9 23 -15 23 C-15 20.69 -15 18.38 -15 16 C-11.04 16 -7.08 16 -3 16 C-3 14.35 -3 12.7 -3 11 C-6.96 11 -10.92 11 -15 11 C-15 9.02 -15 7.04 -15 5 C-10.05 5 -5.1 5 0 5 C0 3.35 0 1.7 0 0 Z " fill="#6EAFD8" transform="translate(80,106)"/>
<path d="M0 0 C7.26 0 14.52 0 22 0 C22 1.98 22 3.96 22 6 C21.67 6 21.34 6 21 6 C21 4.35 21 2.7 21 1 C11.595 1.495 11.595 1.495 2 2 C2 10.58 2 19.16 2 28 C8.27 28 14.54 28 21 28 C21.33 26.68 21.66 25.36 22 24 C22 25.65 22 27.3 22 29 C14.74 29 7.48 29 0 29 C0 19.43 0 9.86 0 0 Z " fill="#C6E6F4" transform="translate(175,105)"/>
<path d="M0 0 C0.66 0 1.32 0 2 0 C3.2890625 1.53125 3.2890625 1.53125 4.625 3.5 C5.07101563 4.1496875 5.51703125 4.799375 5.9765625 5.46875 C6.31429687 5.9740625 6.65203125 6.479375 7 7 C5.68 7 4.36 7 3 7 C2.67 15.58 2.34 24.16 2 33 C-2.62 33 -7.24 33 -12 33 C-12 25.08 -12 17.16 -12 9 C-11.67 9 -11.34 9 -11 9 C-11 16.59 -11 24.18 -11 32 C-7.37 32 -3.74 32 0 32 C0 21.44 0 10.88 0 0 Z " fill="#83BBD9" transform="translate(162,66)"/>
<path d="M0 0 C1.41152344 -0.00386719 1.41152344 -0.00386719 2.8515625 -0.0078125 C5.375 0.125 5.375 0.125 8.375 1.125 C8.375 1.785 8.375 2.445 8.375 3.125 C9.365 3.455 10.355 3.785 11.375 4.125 C11.045 5.775 10.715 7.425 10.375 9.125 C8.395 9.785 6.415 10.445 4.375 11.125 C6.85 11.62 6.85 11.62 9.375 12.125 C9.375 12.455 9.375 12.785 9.375 13.125 C6.405 13.125 3.435 13.125 0.375 13.125 C0.375 14.775 0.375 16.425 0.375 18.125 C0.045 18.125 -0.285 18.125 -0.625 18.125 C-0.75 11.375 -0.75 11.375 0.375 9.125 C-3.42047921 10.09276098 -3.42047921 10.09276098 -6.625 12.125 C-6.99260731 14.45317964 -7.32741581 16.7868385 -7.625 19.125 C-7.955 19.125 -8.285 19.125 -8.625 19.125 C-9.22350374 11.94295511 -9.22350374 11.94295511 -6.75 8.5625 C-2.228925 6.4828055 1.57615996 7.26773149 6.375 8.125 C7.035 7.135 7.695 6.145 8.375 5.125 C4.92416005 2.82444003 3.50324272 2.85489744 -0.5625 2.875 C-1.60277344 2.86984375 -2.64304688 2.8646875 -3.71484375 2.859375 C-6.55598495 3.11870064 -8.21207634 3.65980298 -10.625 5.125 C-10.625 3.805 -10.625 2.485 -10.625 1.125 C-7.02459663 0.30018032 -3.69148597 -0.01016938 0 0 Z " fill="#79B5D7" transform="translate(160.625,103.875)"/>
<path d="M0 0 C2.12472576 -0.05386629 4.24983652 -0.09273071 6.375 -0.125 C7.55835938 -0.14820313 8.74171875 -0.17140625 9.9609375 -0.1953125 C13 0 13 0 15 2 C15.26991906 4.68839385 15.08737357 7.29141936 15 10 C14.01 10 13.02 10 12 10 C12 7.69 12 5.38 12 3 C11.01 3 10.02 3 9 3 C9 5.31 9 7.62 9 10 C8.01 10 7.02 10 6 10 C6 7.69 6 5.38 6 3 C5.01 3 4.02 3 3 3 C3 5.31 3 7.62 3 10 C2.01 10 1.02 10 0 10 C0 6.7 0 3.4 0 0 Z " fill="#DCF0FA" transform="translate(257,142)"/>
<path d="M0 0 C6.93 0 13.86 0 21 0 C21 0.33 21 0.66 21 1 C14.4 1 7.8 1 1 1 C1 9.91 1 18.82 1 28 C7.27 28 13.54 28 20 28 C20 27.01 20 26.02 20 25 C19.31292969 25.02320313 18.62585938 25.04640625 17.91796875 25.0703125 C16.56638672 25.09738281 16.56638672 25.09738281 15.1875 25.125 C14.29417969 25.14820313 13.40085937 25.17140625 12.48046875 25.1953125 C10 25 10 25 7 23 C9.31243792 22.97314588 11.6249627 22.95367159 13.9375 22.9375 C15.22527344 22.92589844 16.51304687 22.91429688 17.83984375 22.90234375 C21 23 21 23 22 24 C22 25.65 22 27.3 22 29 C14.74 29 7.48 29 0 29 C0 19.43 0 9.86 0 0 Z " fill="#B7DCF4" transform="translate(261,105)"/>
<path d="M0 0 C0.83265381 0.00523682 1.66530762 0.01047363 2.52319336 0.01586914 C3.42231445 0.0190918 4.32143555 0.02231445 5.24780273 0.02563477 C6.66609375 0.03820312 6.66609375 0.03820312 8.11303711 0.05102539 C9.06243164 0.05553711 10.01182617 0.06004883 10.98999023 0.06469727 C13.34356776 0.07652429 15.69702188 0.09300514 18.05053711 0.11352539 C18.05053711 0.44352539 18.05053711 0.77352539 18.05053711 1.11352539 C8.64553711 1.60852539 8.64553711 1.60852539 -0.94946289 2.11352539 C-0.94946289 10.69352539 -0.94946289 19.27352539 -0.94946289 28.11352539 C5.32053711 28.11352539 11.59053711 28.11352539 18.05053711 28.11352539 C18.05053711 28.44352539 18.05053711 28.77352539 18.05053711 29.11352539 C11.12053711 29.11352539 4.19053711 29.11352539 -2.94946289 29.11352539 C-2.97237777 25.14415989 -2.99230304 21.17496219 -3.00439453 17.20556641 C-3.00943346 15.85432153 -3.01626466 14.50308213 -3.02490234 13.15185547 C-3.03698708 11.21332105 -3.04216117 9.27474739 -3.04711914 7.33618164 C-3.05235596 6.16837158 -3.05759277 5.00056152 -3.06298828 3.79736328 C-2.90952816 0.16943401 -2.90952816 0.16943401 0 0 Z " fill="#CDEBFA" transform="translate(61.949462890625,104.886474609375)"/>
<path d="M0 0 C0.99 0 1.98 0 3 0 C3 2.31 3 4.62 3 7 C3.99 7 4.98 7 6 7 C6 4.69 6 2.38 6 0 C6.99 0 7.98 0 9 0 C9.05389087 1.95803507 9.09274217 3.91648909 9.125 5.875 C9.14820313 6.96554688 9.17140625 8.05609375 9.1953125 9.1796875 C9 12 9 12 7 14 C4.375 14.125 4.375 14.125 2 14 C1.67 13.01 1.34 12.02 1 11 C2.32 11 3.64 11 5 11 C3.7625 10.505 3.7625 10.505 2.5 10 C0 8 0 8 -0.33203125 6.01953125 C-0.31424822 4.01004942 -0.16416751 2.0028436 0 0 Z " fill="#D6F1FC" transform="translate(273,142)"/>
<path d="M0 0 C8.25 0 16.5 0 25 0 C25 1.98 25 3.96 25 6 C24.67 6 24.34 6 24 6 C24 4.35 24 2.7 24 1 C20.85264283 1.27654417 17.70758146 1.5737556 14.5625 1.875 C13.66466797 1.95363281 12.76683594 2.03226562 11.84179688 2.11328125 C10.98779297 2.19707031 10.13378906 2.28085938 9.25390625 2.3671875 C8.46314697 2.44050293 7.6723877 2.51381836 6.85766602 2.58935547 C6.24463623 2.72486816 5.63160645 2.86038086 5 3 C4.67 3.66 4.34 4.32 4 5 C5.98 5 7.96 5 10 5 C10 12.92 10 20.84 10 29 C9.67 29 9.34 29 9 29 C9 21.41 9 13.82 9 6 C6.03 6 3.06 6 0 6 C0 4.02 0 2.04 0 0 Z " fill="#C2E1F2" transform="translate(31,105)"/>
<path d="M0 0 C2.375 -0.125 2.375 -0.125 5 0 C7 2 7 2 7.1953125 3.9453125 C7.13020833 5.96354167 7.06510417 7.98177083 7 10 C4.36 10 1.72 10 -1 10 C-2.15837626 5.94568308 -1.83691257 3.78187881 0 0 Z " fill="#DBF2F9" transform="translate(226,142)"/>
<path d="M0 0 C1 1 1 1 1.09765625 2.84765625 C1.04882812 5.92382812 1.04882812 5.92382812 1 9 C-2.375 9.125 -2.375 9.125 -6 9 C-6.66 8.34 -7.32 7.68 -8 7 C-7.75 3.4375 -7.75 3.4375 -7 0 C-4.31633121 -1.3418344 -2.84719317 -0.73004953 0 0 Z " fill="#BCDCE8" transform="translate(211,143)"/>
<path d="M0 0 C2.5 0.25 2.5 0.25 4.5 2.25 C3.92307692 8.82692308 3.92307692 8.82692308 2.5 10.25 C0.0625 10.4375 0.0625 10.4375 -2.5 10.25 C-4.5 8.25 -4.5 8.25 -4.75 5.25 C-4.43608753 1.48305032 -3.83691092 0.38369109 0 0 Z " fill="#D9EEF6" transform="translate(250.5,141.75)"/>
<path d="M0 0 C0.99 0.33 1.98 0.66 3 1 C2.96699341 3.27145346 2.89759995 5.54240126 2.8125 7.8125 C2.77769531 9.07707031 2.74289063 10.34164062 2.70703125 11.64453125 C2 15 2 15 -0.14453125 16.92578125 C-3.43899512 18.16514864 -5.98339385 18.39964911 -9.5 18.375 C-10.6034375 18.38273437 -11.706875 18.39046875 -12.84375 18.3984375 C-16.31640361 17.96005796 -18.2185464 17.0924232 -21 15 C-21.8125 12.8125 -21.8125 12.8125 -22 11 C-21.236875 11.639375 -20.47375 12.27875 -19.6875 12.9375 C-15.40087311 16.22723691 -11.25699606 16.54319224 -6 16 C-4.02 15.34 -2.04 14.68 0 14 C0 9.38 0 4.76 0 0 Z " fill="#6FAFD4" transform="translate(170,117)"/>
<path d="M0 0 C3.09011944 2.58265114 4.21627918 5.48956659 5.6875 9.1875 C6.12449219 10.27417969 6.56148437 11.36085938 7.01171875 12.48046875 C7.33785156 13.31191406 7.66398438 14.14335938 8 15 C7.01 14.67 6.02 14.34 5 14 C5 13.34 5 12.68 5 12 C4.34 12 3.68 12 3 12 C3.165 12.94875 3.33 13.8975 3.5 14.875 C4.18541792 19.5763877 4.08583441 24.26003286 4 29 C3.67 29 3.34 29 3 29 C2.4935767 25.29251453 1.99600845 21.58389201 1.5 17.875 C1.35691406 16.82828125 1.21382812 15.7815625 1.06640625 14.703125 C0.41114246 9.77304508 -0.20707401 4.98703253 0 0 Z " fill="#7EB1D1" transform="translate(133,59)"/>
<path d="M0 0 C0.99 0 1.98 0 3 0 C3 4.95 3 9.9 3 15 C0.03 14.505 0.03 14.505 -3 14 C-2.34 13.34 -1.68 12.68 -1 12 C-0.3574765 9.93125966 -0.3574765 9.93125966 0 8 C-2.86724686 8.57344937 -3.8614515 8.8614515 -6 11 C-5.67 9.35 -5.34 7.7 -5 6 C-3.35 5.67 -1.7 5.34 0 5 C0 3.35 0 1.7 0 0 Z " fill="#E0F7FC" transform="translate(241,137)"/>
<path d="M0 0 C2 2 2 2 2.1953125 5.0390625 C2.17210937 6.22242188 2.14890625 7.40578125 2.125 8.625 C2.10695312 9.81351563 2.08890625 11.00203125 2.0703125 12.2265625 C2.04710937 13.14179687 2.02390625 14.05703125 2 15 C2.99 15.33 3.98 15.66 5 16 C4.67 16.66 4.34 17.32 4 18 C3.21367187 17.68289062 2.42734375 17.36578125 1.6171875 17.0390625 C-2.91556757 15.73699679 -7.18278778 15.54459803 -11.875 15.375 C-12.75414063 15.33632813 -13.63328125 15.29765625 -14.5390625 15.2578125 C-16.69238793 15.16418966 -18.84616414 15.08103541 -21 15 C-21 14.67 -21 14.34 -21 14 C-19.73542969 13.89042969 -18.47085938 13.78085937 -17.16796875 13.66796875 C-15.50774514 13.50851225 -13.84759233 13.34831749 -12.1875 13.1875 C-11.35412109 13.11724609 -10.52074219 13.04699219 -9.66210938 12.97460938 C-8.85966797 12.89404297 -8.05722656 12.81347656 -7.23046875 12.73046875 C-6.49207764 12.66239014 -5.75368652 12.59431152 -4.99291992 12.52416992 C-2.52158038 11.87416796 -1.53692896 11.0230666 0 9 C0.25 6 0.25 6 0 3 C0 2.01 0 1.02 0 0 Z " fill="#77ADCF" transform="translate(131,31)"/>
<path d="M0 0 C1.79133978 -0.05391993 3.58313899 -0.09275571 5.375 -0.125 C6.37273437 -0.14820312 7.37046875 -0.17140625 8.3984375 -0.1953125 C11 0 11 0 13 2 C9.04 2 5.08 2 1 2 C1 2.66 1 3.32 1 4 C5.95 4 10.9 4 16 4 C16.33 3.34 16.66 2.68 17 2 C16.4140625 8.15234375 16.4140625 8.15234375 16 10 C15.01 10.495 15.01 10.495 14 11 C14 9.02 14 7.04 14 5 C9.38 5 4.76 5 0 5 C0 3.35 0 1.7 0 0 Z " fill="#529ED5" transform="translate(66,123)"/>
<path d="M0 0 C1.41152344 -0.00386719 1.41152344 -0.00386719 2.8515625 -0.0078125 C5.375 0.125 5.375 0.125 8.375 1.125 C8.375 1.785 8.375 2.445 8.375 3.125 C9.365 3.455 10.355 3.785 11.375 4.125 C11.045 5.775 10.715 7.425 10.375 9.125 C9.385 9.455 8.395 9.785 7.375 10.125 C7.705 8.475 8.035 6.825 8.375 5.125 C4.92416005 2.82444003 3.50324272 2.85489744 -0.5625 2.875 C-1.60277344 2.86984375 -2.64304688 2.8646875 -3.71484375 2.859375 C-6.55598495 3.11870064 -8.21207634 3.65980298 -10.625 5.125 C-10.625 3.805 -10.625 2.485 -10.625 1.125 C-7.02459663 0.30018032 -3.69148597 -0.01016938 0 0 Z " fill="#6BADCF" transform="translate(160.625,103.875)"/>
<path d="M0 0 C0.99 0.33 1.98 0.66 3 1 C2.67 1.66 2.34 2.32 2 3 C1.84655791 4.88472859 1.75040429 6.77427874 1.68359375 8.6640625 C1.64169922 9.78554687 1.59980469 10.90703125 1.55664062 12.0625 C1.51732422 13.238125 1.47800781 14.41375 1.4375 15.625 C1.39431641 16.80835937 1.35113281 17.99171875 1.30664062 19.2109375 C1.20032574 22.14050328 1.09829358 25.07015588 1 28 C2.32 28 3.64 28 5 28 C5 22.72 5 17.44 5 12 C5.33 12 5.66 12 6 12 C6 17.61 6 23.22 6 29 C4.02 29 2.04 29 0 29 C0 19.43 0 9.86 0 0 Z " fill="#D9F2FB" transform="translate(202,105)"/>
<path d="M0 0 C0.78375 0.04125 1.5675 0.0825 2.375 0.125 C2.705 1.115 3.035 2.105 3.375 3.125 C1.725 3.125 0.075 3.125 -1.625 3.125 C-1.625 4.445 -1.625 5.765 -1.625 7.125 C0.025 7.125 1.675 7.125 3.375 7.125 C3.045 8.115 2.715 9.105 2.375 10.125 C-3.5 9.25 -3.5 9.25 -4.625 8.125 C-4.8125 5.1875 -4.8125 5.1875 -4.625 2.125 C-2.625 0.125 -2.625 0.125 0 0 Z " fill="#D6F0F8" transform="translate(218.625,141.875)"/>
<path d="M0 0 C1.65 0 3.3 0 5 0 C4.67 3.3 4.34 6.6 4 10 C2.68 9.67 1.36 9.34 0 9 C0.33 8.34 0.66 7.68 1 7 C-0.65 7 -2.3 7 -4 7 C-4 5.68 -4 4.36 -4 3 C-2.35 3 -0.7 3 1 3 C0.67 2.01 0.34 1.02 0 0 Z " fill="#67A8D0" transform="translate(221,142)"/>
<path d="M0 0 C0.33 0 0.66 0 1 0 C1 9.57 1 19.14 1 29 C-0.32 29 -1.64 29 -3 29 C-3 27.02 -3 25.04 -3 23 C-2.01 23 -1.02 23 0 23 C0 15.41 0 7.82 0 0 Z " fill="#78B2D3" transform="translate(110,105)"/>
<path d="M0 0 C3.3 0 6.6 0 10 0 C10.66 1.32 11.32 2.64 12 4 C8.04 4 4.08 4 0 4 C0 2.68 0 1.36 0 0 Z " fill="#56ABDD" transform="translate(184,123)"/>
<path d="M0 0 C4.61513112 1.31860889 8.09897612 3.21355437 12 6 C11.34 7.65 10.68 9.3 10 11 C5.67760044 7.65996398 2.82522609 4.67248931 0 0 Z " fill="#D9F3FB" transform="translate(92,37)"/>
<path d="M0 0 C1.98 1.65 3.96 3.3 6 5 C5.67 5.66 5.34 6.32 5 7 C4.34 7 3.68 7 3 7 C3 6.01 3 5.02 3 4 C2.34 4 1.68 4 1 4 C1 8.62 1 13.24 1 18 C-1.31 18 -3.62 18 -6 18 C-6 17.67 -6 17.34 -6 17 C-4.02 17 -2.04 17 0 17 C0 11.39 0 5.78 0 0 Z " fill="#6CA7CE" transform="translate(208,117)"/>
<path d="M0 0 C2.33333333 0 4.66666667 0 7 0 C6.79375 0.78375 6.5875 1.5675 6.375 2.375 C6.25125 3.24125 6.1275 4.1075 6 5 C6.66 5.66 7.32 6.32 8 7 C3.52599758 7.36275695 3.52599758 7.36275695 1.1875 5.75 C0 4 0 4 0 0 Z " fill="#A2C9E0" transform="translate(234,145)"/>
<path d="M0 0 C3.3 0 6.6 0 10 0 C9.67 1.32 9.34 2.64 9 4 C6.03 4 3.06 4 0 4 C0 2.68 0 1.36 0 0 Z " fill="#5DA8DC" transform="translate(183,112)"/>
<path d="M0 0 C-0.66 0.66 -1.32 1.32 -2 2 C-3.32 2 -4.64 2 -6 2 C-5.938125 3.11375 -5.87625 4.2275 -5.8125 5.375 C-5.874375 6.57125 -5.93625 7.7675 -6 9 C-6.99 9.66 -7.98 10.32 -9 11 C-9.99 10.67 -10.98 10.34 -12 10 C-10.68 9.67 -9.36 9.34 -8 9 C-8 6.03 -8 3.06 -8 0 C-2.25 -1.125 -2.25 -1.125 0 0 Z " fill="#6DAED7" transform="translate(163,63)"/>
<path d="M0 0 C6.22222222 -0.35897436 6.22222222 -0.35897436 9.4375 1.125 C11.61930024 3.74316028 11.14125253 5.68056547 11 9 C11.66 9.66 12.32 10.32 13 11 C11.35 11 9.7 11 8 11 C7.67 8.36 7.34 5.72 7 3 C3.52852158 2.25042843 3.52852158 2.25042843 0 2 C0 1.34 0 0.68 0 0 Z " fill="#72AED4" transform="translate(204,141)"/>
<path d="M0 0 C0.66 0.33 1.32 0.66 2 1 C1.67 6.28 1.34 11.56 1 17 C0.67 17 0.34 17 0 17 C-0.33 13.7 -0.66 10.4 -1 7 C-1.66 7 -2.32 7 -3 7 C-3 5.02 -3 3.04 -3 1 C-2.01 0.67 -1.02 0.34 0 0 Z " fill="#55A9D9" transform="translate(200,105)"/>
<path d="M0 0 C1.32 0 2.64 0 4 0 C4 3.3 4 6.6 4 10 C2.68 9.67 1.36 9.34 0 9 C0.33 8.34 0.66 7.68 1 7 C-0.65 7 -2.3 7 -4 7 C-4 6.67 -4 6.34 -4 6 C-2.02 6 -0.04 6 2 6 C1.34 4.02 0.68 2.04 0 0 Z " fill="#71A7CD" transform="translate(253,142)"/>
<path d="M0 0 C3.17218843 3.62535821 4.42902597 7.51150278 6 12 C5.01 11.67 4.02 11.34 3 11 C3 10.34 3 9.68 3 9 C2.01 9 1.02 9 0 9 C0 6.03 0 3.06 0 0 Z " fill="#63AAD5" transform="translate(135,62)"/>
<path d="M0 0 C4.875 0.875 4.875 0.875 6 2 C6.04092937 4.33297433 6.04241723 6.66705225 6 9 C4.35 9 2.7 9 1 9 C1.99 8.67 2.98 8.34 4 8 C3.67 6.35 3.34 4.7 3 3 C2.01 2.67 1.02 2.34 0 2 C0 1.34 0 0.68 0 0 Z " fill="#F1FAFE" transform="translate(206,142)"/>
<path d="M0 0 C0.33 0.99 0.66 1.98 1 3 C-0.1796875 4.75390625 -0.1796875 4.75390625 -1.875 6.5625 C-4.22310453 9.08137361 -4.22310453 9.08137361 -6 12 C-8.5625 12.625 -8.5625 12.625 -11 13 C-10.62488281 12.56429687 -10.24976563 12.12859375 -9.86328125 11.6796875 C-6.54140223 7.81392401 -3.25357073 3.92342352 0 0 Z " fill="#71AFD5" transform="translate(190,72)"/>
<path d="M0 0 C1.65 0.33 3.3 0.66 5 1 C4.67 2.65 4.34 4.3 4 6 C3.01 5.67 2.02 5.34 1 5 C0.34 5.66 -0.32 6.32 -1 7 C-0.67 4.69 -0.34 2.38 0 0 Z " fill="#BFDBE6" transform="translate(225,144)"/>
<path d="M0 0 C0.99 0 1.98 0 3 0 C3 3.3 3 6.6 3 10 C2.34 10 1.68 10 1 10 C-0.60725635 6.78548731 -0.05748185 3.56387464 0 0 Z " fill="#E3F5FE" transform="translate(279,142)"/>
<path d="M0 0 C3 1 3 1 4.16796875 2.84765625 C4.50441406 3.57855469 4.84085938 4.30945313 5.1875 5.0625 C5.53167969 5.79597656 5.87585938 6.52945313 6.23046875 7.28515625 C6.48441406 7.85105469 6.73835937 8.41695312 7 9 C6.34 9 5.68 9 5 9 C4.34 7.35 3.68 5.7 3 4 C1.68 4 0.36 4 -1 4 C-1 4.66 -1 5.32 -1 6 C-1.66 6 -2.32 6 -3 6 C-1.125 1.125 -1.125 1.125 0 0 Z " fill="#71AFD3" transform="translate(124,81)"/>
<path d="M0 0 C1.98 0 3.96 0 6 0 C5.01 1.485 5.01 1.485 4 3 C4.32126128 5.63434254 4.81355048 7.62710097 6 10 C5.01 10.33 4.02 10.66 3 11 C1.11942336 9.11942336 1.53722415 6.42875904 1.28125 3.91015625 C1.08962214 1.91911653 1.08962214 1.91911653 0 0 Z " fill="#66A5D1" transform="translate(231,142)"/>
<path d="M0 0 C0.66 0 1.32 0 2 0 C2.33 0.66 2.66 1.32 3 2 C3.99 2.66 4.98 3.32 6 4 C4.35 5.32 2.7 6.64 1 8 C0 7 0 7 -0.0625 3.4375 C-0.041875 2.303125 -0.02125 1.16875 0 0 Z " fill="#54AADB" transform="translate(136,71)"/>
<path d="M0 0 C0 3 0 3 -1.5 4.6875 C-1.995 5.120625 -2.49 5.55375 -3 6 C-3.99 5.67 -4.98 5.34 -6 5 C-6 7.64 -6 10.28 -6 13 C-7.32 12.67 -8.64 12.34 -10 12 C-9.34 11.67 -8.68 11.34 -8 11 C-7.59270772 8.67843403 -7.25561323 6.3431213 -7 4 C-5.824375 3.566875 -5.824375 3.566875 -4.625 3.125 C-1.90328368 2.15087746 -1.90328368 2.15087746 0 0 Z " fill="#D4F1FB" transform="translate(164,61)"/>
<path d="M0 0 C1.65 1.65 3.3 3.3 5 5 C0.38 5 -4.24 5 -9 5 C-9 4.67 -9 4.34 -9 4 C-7.88625 3.896875 -6.7725 3.79375 -5.625 3.6875 C-4.42875 3.460625 -3.2325 3.23375 -2 3 C-1.34 2.01 -0.68 1.02 0 0 Z " fill="#5EA6D5" transform="translate(117,40)"/>
<path d="M0 0 C0.33 0 0.66 0 1 0 C1 2.97 1 5.94 1 9 C-0.98 7.35 -2.96 5.7 -5 4 C-2 3 -2 3 0 3 C0 2.01 0 1.02 0 0 Z " fill="#66A5D0" transform="translate(220,113)"/>
<path d="M0 0 C0.33 0 0.66 0 1 0 C2.45295405 8.19256018 2.45295405 8.19256018 0.5625 11.5625 C0.046875 12.036875 -0.46875 12.51125 -1 13 C-1.66 12.67 -2.32 12.34 -3 12 C-2.01 8.04 -1.02 4.08 0 0 Z " fill="#C9EEFA" transform="translate(113,86)"/>
<path d="M0 0 C0.99 0.495 0.99 0.495 2 1 C4.3400417 0.71758117 6.67504723 0.38749213 9 0 C9.66 0.99 10.32 1.98 11 3 C7.37 3 3.74 3 0 3 C0 2.01 0 1.02 0 0 Z " fill="#73B3D8" transform="translate(152,51)"/>
<path d="M0 0 C0.66 0 1.32 0 2 0 C2 0.66 2 1.32 2 2 C4.97 1.34 7.94 0.68 11 0 C11 0.99 11 1.98 11 3 C7.04 3 3.08 3 -1 3 C-0.67 2.01 -0.34 1.02 0 0 Z " fill="#5AABDE" transform="translate(119,124)"/>
<path d="M0 0 C1.65 0 3.3 0 5 0 C4.67 1.98 4.34 3.96 4 6 C2.68 5.34 1.36 4.68 0 4 C0 2.68 0 1.36 0 0 Z " fill="#5EA8D9" transform="translate(202,101)"/>
<path d="M0 0 C0.33 0 0.66 0 1 0 C1.33 4.29 1.66 8.58 2 13 C-1.08669204 9.91330796 -1.44855089 9.08072342 -2 5 C-1.34 5 -0.68 5 0 5 C0 3.35 0 1.7 0 0 Z " fill="#D5EFF9" transform="translate(140,61)"/>
<path d="M0 0 C0.99 0 1.98 0 3 0 C3 2.31 3 4.62 3 7 C2.01 7 1.02 7 0 7 C0 4.69 0 2.38 0 0 Z " fill="#61A2D4" transform="translate(276,142)"/>
<path d="M0 0 C1 3 1 3 0.3125 5.125 C-1 7 -1 7 -3.125 7.75 C-4.053125 7.87375 -4.053125 7.87375 -5 8 C-3.62845496 5.04590299 -2.01136276 2.55991624 0 0 Z " fill="#6FAFD7" transform="translate(120,87)"/>
<path d="M0 0 C3.96 0 7.92 0 12 0 C12 0.33 12 0.66 12 1 C11.30132812 1.13277344 10.60265625 1.26554687 9.8828125 1.40234375 C8.97273437 1.57894531 8.06265625 1.75554687 7.125 1.9375 C6.22007812 2.11152344 5.31515625 2.28554687 4.3828125 2.46484375 C2.00043683 2.89963701 2.00043683 2.89963701 0 4 C0 2.68 0 1.36 0 0 Z " fill="#7DB6D5" transform="translate(150,105)"/>
<path d="M0 0 C0.33 0.66 0.66 1.32 1 2 C-0.98 4.31 -2.96 6.62 -5 9 C-5.66 8.67 -6.32 8.34 -7 8 C-4.69 5.36 -2.38 2.72 0 0 Z " fill="#DEF3FB" transform="translate(203,42)"/>
<path d="M0 0 C0.66 0.33 1.32 0.66 2 1 C2.29296875 7.0546875 2.29296875 7.0546875 2 9 C1.01 9.66 0.02 10.32 -1 11 C-0.979375 9.906875 -0.95875 8.81375 -0.9375 7.6875 C-0.81455548 4.05615809 -0.81455548 4.05615809 -2 1 C-1.34 0.67 -0.68 0.34 0 0 Z " fill="#5098C5" transform="translate(87,38)"/>
<path d="M0 0 C1.98 0 3.96 0 6 0 C6 0.66 6 1.32 6 2 C6.66 2.66 7.32 3.32 8 4 C5.69 4 3.38 4 1 4 C0.67 2.68 0.34 1.36 0 0 Z " fill="#CFECF8" transform="translate(204,148)"/>
<path d="M0 0 C0.99 0 1.98 0 3 0 C3 1.98 3 3.96 3 6 C2.01 6 1.02 6 0 6 C0 4.02 0 2.04 0 0 Z " fill="#60A7D3" transform="translate(107,128)"/>
<path d="M0 0 C0.33 0 0.66 0 1 0 C0.4140625 6.15234375 0.4140625 6.15234375 0 8 C-0.99 8.495 -0.99 8.495 -2 9 C-2 6.69 -2 4.38 -2 2 C-1.34 2 -0.68 2 0 2 C0 1.34 0 0.68 0 0 Z " fill="#65ADDA" transform="translate(82,125)"/>
<path d="M0 0 C-1.65 1.32 -3.3 2.64 -5 4 C-5.99 2.68 -6.98 1.36 -8 0 C-4.71303767 -0.79953138 -3.28976808 -1.09658936 0 0 Z " fill="#77AED0" transform="translate(184,65)"/>
</svg>
